M48
; DRILL file {KiCad 7.0.2} date Tue May 16 00:09:48 2023
; FORMAT={3:3/ absolute / metric / keep zeros}
; #@! TF.CreationDate,2023-05-16T00:09:48+02:00
; #@! TF.GenerationSoftware,Kicad,Pcbnew,7.0.2
; #@! TF.FileFunction,MixedPlating,1,2
FMAT,2
METRIC
; #@! TA.AperFunction,Plated,PTH,ComponentDrill
T1C0.750
; #@! TA.AperFunction,Plated,PTH,ComponentDrill
T2C0.800
; #@! TA.AperFunction,Plated,PTH,ComponentDrill
T3C0.900
; #@! TA.AperFunction,Plated,PTH,ComponentDrill
T4C1.000
; #@! TA.AperFunction,Plated,PTH,ComponentDrill
T5C1.700
; #@! TA.AperFunction,Plated,PTH,ComponentDrill
T6C2.800
%
G90
G05
T1
X-323215Y-109220
X-321945Y-107950
X-320675Y-109220
X-317500Y-109220
X-316230Y-107950
X-314960Y-109220
T2
X-374650Y-092710
X-374650Y-096520
X-364490Y-092710
X-364490Y-096520
X-331470Y-104140
X-331470Y-123190
X-331470Y-127000
X-324485Y-116840
X-321310Y-104140
X-321310Y-123190
X-321310Y-127000
X-314325Y-116840
T3
X-317500Y-123190
X-317500Y-125730
X-312420Y-123190
X-312420Y-125730
T4
X-366642Y-110526
X-366642Y-113067
X-366642Y-115607
X-366642Y-118147
X-366642Y-120687
X-366642Y-123227
X-366642Y-125767
X-358893Y-096520
X-358893Y-099060
X-358893Y-101600
X-358893Y-104140
X-356353Y-096520
X-356353Y-099060
X-356353Y-101600
X-356353Y-104140
X-350520Y-093964
X-350520Y-096504
X-350520Y-099044
X-350520Y-101584
X-350520Y-104124
X-350520Y-106664
X-350520Y-109204
X-350520Y-111744
X-350520Y-114284
X-350520Y-116824
X-350520Y-119364
X-350520Y-121904
X-350520Y-124444
X-350520Y-126984
X-335280Y-093964
X-335280Y-096504
X-335280Y-099044
X-335280Y-101584
X-335280Y-104124
X-335280Y-106664
X-335280Y-109204
X-335280Y-111744
X-335280Y-114284
X-335280Y-116824
X-335280Y-119364
X-335280Y-121904
X-335280Y-124444
X-335280Y-126984
X-326390Y-095250
X-326390Y-097790
X-323850Y-095250
X-323850Y-097790
X-321310Y-095250
X-321310Y-097790
X-318770Y-095250
X-318770Y-097790
X-309363Y-110485
X-309363Y-113025
X-309363Y-115565
X-306823Y-110485
X-306823Y-113025
X-306823Y-115565
T5
X-378900Y-129490
X-307900Y-129490
T6
X-378071Y-111797
X-378071Y-124497
T0
M30
