%TF.GenerationSoftware,KiCad,Pcbnew,7.0.2*%
%TF.CreationDate,2023-05-16T00:00:26+02:00*%
%TF.ProjectId,PRO_MCU,50524f5f-4d43-4552-9e6b-696361645f70,rev?*%
%TF.SameCoordinates,Original*%
%TF.FileFunction,Legend,Top*%
%TF.FilePolarity,Positive*%
%FSLAX45Y45*%
G04 Gerber Fmt 4.5, Leading zero omitted, Abs format (unit mm)*
G04 Created by KiCad (PCBNEW 7.0.2) date 2023-05-16 00:00:26*
%MOMM*%
%LPD*%
G01*
G04 APERTURE LIST*
%ADD10C,0.200000*%
%ADD11C,0.150000*%
%ADD12C,0.120000*%
%ADD13C,0.100000*%
G04 APERTURE END LIST*
D10*
X-36052095Y-12144762D02*
X-36052095Y-12044762D01*
X-36052095Y-12044762D02*
X-36014000Y-12044762D01*
X-36014000Y-12044762D02*
X-36004476Y-12049524D01*
X-36004476Y-12049524D02*
X-35999714Y-12054286D01*
X-35999714Y-12054286D02*
X-35994952Y-12063809D01*
X-35994952Y-12063809D02*
X-35994952Y-12078095D01*
X-35994952Y-12078095D02*
X-35999714Y-12087619D01*
X-35999714Y-12087619D02*
X-36004476Y-12092381D01*
X-36004476Y-12092381D02*
X-36014000Y-12097143D01*
X-36014000Y-12097143D02*
X-36052095Y-12097143D01*
X-35952095Y-12144762D02*
X-35952095Y-12078095D01*
X-35952095Y-12097143D02*
X-35947333Y-12087619D01*
X-35947333Y-12087619D02*
X-35942571Y-12082857D01*
X-35942571Y-12082857D02*
X-35933048Y-12078095D01*
X-35933048Y-12078095D02*
X-35923524Y-12078095D01*
X-35875905Y-12144762D02*
X-35885429Y-12140000D01*
X-35885429Y-12140000D02*
X-35890190Y-12135238D01*
X-35890190Y-12135238D02*
X-35894952Y-12125714D01*
X-35894952Y-12125714D02*
X-35894952Y-12097143D01*
X-35894952Y-12097143D02*
X-35890190Y-12087619D01*
X-35890190Y-12087619D02*
X-35885429Y-12082857D01*
X-35885429Y-12082857D02*
X-35875905Y-12078095D01*
X-35875905Y-12078095D02*
X-35861619Y-12078095D01*
X-35861619Y-12078095D02*
X-35852095Y-12082857D01*
X-35852095Y-12082857D02*
X-35847333Y-12087619D01*
X-35847333Y-12087619D02*
X-35842571Y-12097143D01*
X-35842571Y-12097143D02*
X-35842571Y-12125714D01*
X-35842571Y-12125714D02*
X-35847333Y-12135238D01*
X-35847333Y-12135238D02*
X-35852095Y-12140000D01*
X-35852095Y-12140000D02*
X-35861619Y-12144762D01*
X-35861619Y-12144762D02*
X-35875905Y-12144762D01*
X-35799714Y-12078095D02*
X-35799714Y-12163809D01*
X-35799714Y-12163809D02*
X-35804476Y-12173333D01*
X-35804476Y-12173333D02*
X-35814000Y-12178095D01*
X-35814000Y-12178095D02*
X-35818762Y-12178095D01*
X-35799714Y-12044762D02*
X-35804476Y-12049524D01*
X-35804476Y-12049524D02*
X-35799714Y-12054286D01*
X-35799714Y-12054286D02*
X-35794952Y-12049524D01*
X-35794952Y-12049524D02*
X-35799714Y-12044762D01*
X-35799714Y-12044762D02*
X-35799714Y-12054286D01*
X-35714000Y-12140000D02*
X-35723524Y-12144762D01*
X-35723524Y-12144762D02*
X-35742571Y-12144762D01*
X-35742571Y-12144762D02*
X-35752095Y-12140000D01*
X-35752095Y-12140000D02*
X-35756857Y-12130476D01*
X-35756857Y-12130476D02*
X-35756857Y-12092381D01*
X-35756857Y-12092381D02*
X-35752095Y-12082857D01*
X-35752095Y-12082857D02*
X-35742571Y-12078095D01*
X-35742571Y-12078095D02*
X-35723524Y-12078095D01*
X-35723524Y-12078095D02*
X-35714000Y-12082857D01*
X-35714000Y-12082857D02*
X-35709238Y-12092381D01*
X-35709238Y-12092381D02*
X-35709238Y-12101905D01*
X-35709238Y-12101905D02*
X-35756857Y-12111428D01*
X-35666381Y-12144762D02*
X-35666381Y-12044762D01*
X-35656857Y-12106667D02*
X-35628286Y-12144762D01*
X-35628286Y-12078095D02*
X-35666381Y-12116190D01*
X-35599714Y-12078095D02*
X-35561619Y-12078095D01*
X-35585429Y-12044762D02*
X-35585429Y-12130476D01*
X-35585429Y-12130476D02*
X-35580667Y-12140000D01*
X-35580667Y-12140000D02*
X-35571143Y-12144762D01*
X-35571143Y-12144762D02*
X-35561619Y-12144762D01*
X-36354476Y-12306762D02*
X-36354476Y-12206762D01*
X-36354476Y-12206762D02*
X-36321143Y-12278190D01*
X-36321143Y-12278190D02*
X-36287810Y-12206762D01*
X-36287810Y-12206762D02*
X-36287810Y-12306762D01*
X-36240191Y-12306762D02*
X-36240191Y-12240095D01*
X-36240191Y-12206762D02*
X-36244952Y-12211524D01*
X-36244952Y-12211524D02*
X-36240191Y-12216286D01*
X-36240191Y-12216286D02*
X-36235429Y-12211524D01*
X-36235429Y-12211524D02*
X-36240191Y-12206762D01*
X-36240191Y-12206762D02*
X-36240191Y-12216286D01*
X-36149714Y-12302000D02*
X-36159238Y-12306762D01*
X-36159238Y-12306762D02*
X-36178286Y-12306762D01*
X-36178286Y-12306762D02*
X-36187810Y-12302000D01*
X-36187810Y-12302000D02*
X-36192572Y-12297238D01*
X-36192572Y-12297238D02*
X-36197333Y-12287714D01*
X-36197333Y-12287714D02*
X-36197333Y-12259143D01*
X-36197333Y-12259143D02*
X-36192572Y-12249619D01*
X-36192572Y-12249619D02*
X-36187810Y-12244857D01*
X-36187810Y-12244857D02*
X-36178286Y-12240095D01*
X-36178286Y-12240095D02*
X-36159238Y-12240095D01*
X-36159238Y-12240095D02*
X-36149714Y-12244857D01*
X-36106857Y-12306762D02*
X-36106857Y-12240095D01*
X-36106857Y-12259143D02*
X-36102095Y-12249619D01*
X-36102095Y-12249619D02*
X-36097333Y-12244857D01*
X-36097333Y-12244857D02*
X-36087810Y-12240095D01*
X-36087810Y-12240095D02*
X-36078286Y-12240095D01*
X-36030667Y-12306762D02*
X-36040191Y-12302000D01*
X-36040191Y-12302000D02*
X-36044952Y-12297238D01*
X-36044952Y-12297238D02*
X-36049714Y-12287714D01*
X-36049714Y-12287714D02*
X-36049714Y-12259143D01*
X-36049714Y-12259143D02*
X-36044952Y-12249619D01*
X-36044952Y-12249619D02*
X-36040191Y-12244857D01*
X-36040191Y-12244857D02*
X-36030667Y-12240095D01*
X-36030667Y-12240095D02*
X-36016381Y-12240095D01*
X-36016381Y-12240095D02*
X-36006857Y-12244857D01*
X-36006857Y-12244857D02*
X-36002095Y-12249619D01*
X-36002095Y-12249619D02*
X-35997333Y-12259143D01*
X-35997333Y-12259143D02*
X-35997333Y-12287714D01*
X-35997333Y-12287714D02*
X-36002095Y-12297238D01*
X-36002095Y-12297238D02*
X-36006857Y-12302000D01*
X-36006857Y-12302000D02*
X-36016381Y-12306762D01*
X-36016381Y-12306762D02*
X-36030667Y-12306762D01*
X-35911619Y-12302000D02*
X-35921143Y-12306762D01*
X-35921143Y-12306762D02*
X-35940191Y-12306762D01*
X-35940191Y-12306762D02*
X-35949714Y-12302000D01*
X-35949714Y-12302000D02*
X-35954476Y-12297238D01*
X-35954476Y-12297238D02*
X-35959238Y-12287714D01*
X-35959238Y-12287714D02*
X-35959238Y-12259143D01*
X-35959238Y-12259143D02*
X-35954476Y-12249619D01*
X-35954476Y-12249619D02*
X-35949714Y-12244857D01*
X-35949714Y-12244857D02*
X-35940191Y-12240095D01*
X-35940191Y-12240095D02*
X-35921143Y-12240095D01*
X-35921143Y-12240095D02*
X-35911619Y-12244857D01*
X-35854476Y-12306762D02*
X-35864000Y-12302000D01*
X-35864000Y-12302000D02*
X-35868762Y-12297238D01*
X-35868762Y-12297238D02*
X-35873524Y-12287714D01*
X-35873524Y-12287714D02*
X-35873524Y-12259143D01*
X-35873524Y-12259143D02*
X-35868762Y-12249619D01*
X-35868762Y-12249619D02*
X-35864000Y-12244857D01*
X-35864000Y-12244857D02*
X-35854476Y-12240095D01*
X-35854476Y-12240095D02*
X-35840191Y-12240095D01*
X-35840191Y-12240095D02*
X-35830667Y-12244857D01*
X-35830667Y-12244857D02*
X-35825905Y-12249619D01*
X-35825905Y-12249619D02*
X-35821143Y-12259143D01*
X-35821143Y-12259143D02*
X-35821143Y-12287714D01*
X-35821143Y-12287714D02*
X-35825905Y-12297238D01*
X-35825905Y-12297238D02*
X-35830667Y-12302000D01*
X-35830667Y-12302000D02*
X-35840191Y-12306762D01*
X-35840191Y-12306762D02*
X-35854476Y-12306762D01*
X-35778286Y-12240095D02*
X-35778286Y-12306762D01*
X-35778286Y-12249619D02*
X-35773524Y-12244857D01*
X-35773524Y-12244857D02*
X-35764000Y-12240095D01*
X-35764000Y-12240095D02*
X-35749714Y-12240095D01*
X-35749714Y-12240095D02*
X-35740191Y-12244857D01*
X-35740191Y-12244857D02*
X-35735429Y-12254381D01*
X-35735429Y-12254381D02*
X-35735429Y-12306762D01*
X-35702095Y-12240095D02*
X-35664000Y-12240095D01*
X-35687810Y-12206762D02*
X-35687810Y-12292476D01*
X-35687810Y-12292476D02*
X-35683048Y-12302000D01*
X-35683048Y-12302000D02*
X-35673524Y-12306762D01*
X-35673524Y-12306762D02*
X-35664000Y-12306762D01*
X-35630667Y-12306762D02*
X-35630667Y-12240095D01*
X-35630667Y-12259143D02*
X-35625905Y-12249619D01*
X-35625905Y-12249619D02*
X-35621143Y-12244857D01*
X-35621143Y-12244857D02*
X-35611619Y-12240095D01*
X-35611619Y-12240095D02*
X-35602095Y-12240095D01*
X-35554476Y-12306762D02*
X-35564000Y-12302000D01*
X-35564000Y-12302000D02*
X-35568762Y-12297238D01*
X-35568762Y-12297238D02*
X-35573524Y-12287714D01*
X-35573524Y-12287714D02*
X-35573524Y-12259143D01*
X-35573524Y-12259143D02*
X-35568762Y-12249619D01*
X-35568762Y-12249619D02*
X-35564000Y-12244857D01*
X-35564000Y-12244857D02*
X-35554476Y-12240095D01*
X-35554476Y-12240095D02*
X-35540190Y-12240095D01*
X-35540190Y-12240095D02*
X-35530667Y-12244857D01*
X-35530667Y-12244857D02*
X-35525905Y-12249619D01*
X-35525905Y-12249619D02*
X-35521143Y-12259143D01*
X-35521143Y-12259143D02*
X-35521143Y-12287714D01*
X-35521143Y-12287714D02*
X-35525905Y-12297238D01*
X-35525905Y-12297238D02*
X-35530667Y-12302000D01*
X-35530667Y-12302000D02*
X-35540190Y-12306762D01*
X-35540190Y-12306762D02*
X-35554476Y-12306762D01*
X-35464000Y-12306762D02*
X-35473524Y-12302000D01*
X-35473524Y-12302000D02*
X-35478286Y-12292476D01*
X-35478286Y-12292476D02*
X-35478286Y-12206762D01*
X-35411619Y-12306762D02*
X-35421143Y-12302000D01*
X-35421143Y-12302000D02*
X-35425905Y-12292476D01*
X-35425905Y-12292476D02*
X-35425905Y-12206762D01*
X-35335428Y-12302000D02*
X-35344952Y-12306762D01*
X-35344952Y-12306762D02*
X-35364000Y-12306762D01*
X-35364000Y-12306762D02*
X-35373524Y-12302000D01*
X-35373524Y-12302000D02*
X-35378286Y-12292476D01*
X-35378286Y-12292476D02*
X-35378286Y-12254381D01*
X-35378286Y-12254381D02*
X-35373524Y-12244857D01*
X-35373524Y-12244857D02*
X-35364000Y-12240095D01*
X-35364000Y-12240095D02*
X-35344952Y-12240095D01*
X-35344952Y-12240095D02*
X-35335428Y-12244857D01*
X-35335428Y-12244857D02*
X-35330667Y-12254381D01*
X-35330667Y-12254381D02*
X-35330667Y-12263905D01*
X-35330667Y-12263905D02*
X-35378286Y-12273428D01*
X-35287809Y-12306762D02*
X-35287809Y-12240095D01*
X-35287809Y-12259143D02*
X-35283047Y-12249619D01*
X-35283047Y-12249619D02*
X-35278286Y-12244857D01*
X-35278286Y-12244857D02*
X-35268762Y-12240095D01*
X-35268762Y-12240095D02*
X-35259238Y-12240095D01*
X-36247643Y-11608914D02*
X-36247643Y-11706057D01*
X-36247643Y-11706057D02*
X-36241929Y-11717486D01*
X-36241929Y-11717486D02*
X-36236214Y-11723200D01*
X-36236214Y-11723200D02*
X-36224786Y-11728914D01*
X-36224786Y-11728914D02*
X-36201929Y-11728914D01*
X-36201929Y-11728914D02*
X-36190500Y-11723200D01*
X-36190500Y-11723200D02*
X-36184786Y-11717486D01*
X-36184786Y-11717486D02*
X-36179071Y-11706057D01*
X-36179071Y-11706057D02*
X-36179071Y-11608914D01*
X-36121929Y-11648914D02*
X-36121929Y-11728914D01*
X-36121929Y-11660343D02*
X-36116214Y-11654628D01*
X-36116214Y-11654628D02*
X-36104786Y-11648914D01*
X-36104786Y-11648914D02*
X-36087643Y-11648914D01*
X-36087643Y-11648914D02*
X-36076214Y-11654628D01*
X-36076214Y-11654628D02*
X-36070500Y-11666057D01*
X-36070500Y-11666057D02*
X-36070500Y-11728914D01*
X-36013357Y-11728914D02*
X-36013357Y-11648914D01*
X-36013357Y-11608914D02*
X-36019071Y-11614628D01*
X-36019071Y-11614628D02*
X-36013357Y-11620343D01*
X-36013357Y-11620343D02*
X-36007643Y-11614628D01*
X-36007643Y-11614628D02*
X-36013357Y-11608914D01*
X-36013357Y-11608914D02*
X-36013357Y-11620343D01*
X-35967643Y-11648914D02*
X-35939071Y-11728914D01*
X-35939071Y-11728914D02*
X-35910500Y-11648914D01*
X-35819071Y-11723200D02*
X-35830500Y-11728914D01*
X-35830500Y-11728914D02*
X-35853357Y-11728914D01*
X-35853357Y-11728914D02*
X-35864786Y-11723200D01*
X-35864786Y-11723200D02*
X-35870500Y-11711771D01*
X-35870500Y-11711771D02*
X-35870500Y-11666057D01*
X-35870500Y-11666057D02*
X-35864786Y-11654628D01*
X-35864786Y-11654628D02*
X-35853357Y-11648914D01*
X-35853357Y-11648914D02*
X-35830500Y-11648914D01*
X-35830500Y-11648914D02*
X-35819071Y-11654628D01*
X-35819071Y-11654628D02*
X-35813357Y-11666057D01*
X-35813357Y-11666057D02*
X-35813357Y-11677486D01*
X-35813357Y-11677486D02*
X-35870500Y-11688914D01*
X-35761929Y-11728914D02*
X-35761929Y-11648914D01*
X-35761929Y-11671771D02*
X-35756214Y-11660343D01*
X-35756214Y-11660343D02*
X-35750500Y-11654628D01*
X-35750500Y-11654628D02*
X-35739071Y-11648914D01*
X-35739071Y-11648914D02*
X-35727643Y-11648914D01*
X-35693357Y-11723200D02*
X-35681929Y-11728914D01*
X-35681929Y-11728914D02*
X-35659071Y-11728914D01*
X-35659071Y-11728914D02*
X-35647643Y-11723200D01*
X-35647643Y-11723200D02*
X-35641929Y-11711771D01*
X-35641929Y-11711771D02*
X-35641929Y-11706057D01*
X-35641929Y-11706057D02*
X-35647643Y-11694628D01*
X-35647643Y-11694628D02*
X-35659071Y-11688914D01*
X-35659071Y-11688914D02*
X-35676214Y-11688914D01*
X-35676214Y-11688914D02*
X-35687643Y-11683200D01*
X-35687643Y-11683200D02*
X-35693357Y-11671771D01*
X-35693357Y-11671771D02*
X-35693357Y-11666057D01*
X-35693357Y-11666057D02*
X-35687643Y-11654628D01*
X-35687643Y-11654628D02*
X-35676214Y-11648914D01*
X-35676214Y-11648914D02*
X-35659071Y-11648914D01*
X-35659071Y-11648914D02*
X-35647643Y-11654628D01*
X-35590500Y-11728914D02*
X-35590500Y-11648914D01*
X-35590500Y-11608914D02*
X-35596214Y-11614628D01*
X-35596214Y-11614628D02*
X-35590500Y-11620343D01*
X-35590500Y-11620343D02*
X-35584786Y-11614628D01*
X-35584786Y-11614628D02*
X-35590500Y-11608914D01*
X-35590500Y-11608914D02*
X-35590500Y-11620343D01*
X-35550500Y-11648914D02*
X-35504786Y-11648914D01*
X-35533357Y-11608914D02*
X-35533357Y-11711771D01*
X-35533357Y-11711771D02*
X-35527643Y-11723200D01*
X-35527643Y-11723200D02*
X-35516214Y-11728914D01*
X-35516214Y-11728914D02*
X-35504786Y-11728914D01*
X-35413357Y-11728914D02*
X-35413357Y-11666057D01*
X-35413357Y-11666057D02*
X-35419071Y-11654628D01*
X-35419071Y-11654628D02*
X-35430500Y-11648914D01*
X-35430500Y-11648914D02*
X-35453357Y-11648914D01*
X-35453357Y-11648914D02*
X-35464786Y-11654628D01*
X-35413357Y-11723200D02*
X-35424786Y-11728914D01*
X-35424786Y-11728914D02*
X-35453357Y-11728914D01*
X-35453357Y-11728914D02*
X-35464786Y-11723200D01*
X-35464786Y-11723200D02*
X-35470500Y-11711771D01*
X-35470500Y-11711771D02*
X-35470500Y-11700343D01*
X-35470500Y-11700343D02*
X-35464786Y-11688914D01*
X-35464786Y-11688914D02*
X-35453357Y-11683200D01*
X-35453357Y-11683200D02*
X-35424786Y-11683200D01*
X-35424786Y-11683200D02*
X-35413357Y-11677486D01*
X-35464786Y-11608914D02*
X-35459071Y-11614628D01*
X-35459071Y-11614628D02*
X-35464786Y-11620343D01*
X-35464786Y-11620343D02*
X-35470500Y-11614628D01*
X-35470500Y-11614628D02*
X-35464786Y-11608914D01*
X-35464786Y-11608914D02*
X-35464786Y-11620343D01*
X-35419071Y-11608914D02*
X-35413357Y-11614628D01*
X-35413357Y-11614628D02*
X-35419071Y-11620343D01*
X-35419071Y-11620343D02*
X-35424786Y-11614628D01*
X-35424786Y-11614628D02*
X-35419071Y-11608914D01*
X-35419071Y-11608914D02*
X-35419071Y-11620343D01*
X-35373357Y-11648914D02*
X-35327643Y-11648914D01*
X-35356214Y-11608914D02*
X-35356214Y-11711771D01*
X-35356214Y-11711771D02*
X-35350500Y-11723200D01*
X-35350500Y-11723200D02*
X-35339071Y-11728914D01*
X-35339071Y-11728914D02*
X-35327643Y-11728914D01*
X-35896214Y-11803314D02*
X-35896214Y-11900457D01*
X-35896214Y-11900457D02*
X-35890500Y-11911886D01*
X-35890500Y-11911886D02*
X-35884786Y-11917600D01*
X-35884786Y-11917600D02*
X-35873357Y-11923314D01*
X-35873357Y-11923314D02*
X-35850500Y-11923314D01*
X-35850500Y-11923314D02*
X-35839071Y-11917600D01*
X-35839071Y-11917600D02*
X-35833357Y-11911886D01*
X-35833357Y-11911886D02*
X-35827643Y-11900457D01*
X-35827643Y-11900457D02*
X-35827643Y-11803314D01*
X-35753357Y-11923314D02*
X-35764786Y-11917600D01*
X-35764786Y-11917600D02*
X-35770500Y-11906171D01*
X-35770500Y-11906171D02*
X-35770500Y-11803314D01*
X-35707643Y-11923314D02*
X-35707643Y-11843314D01*
X-35707643Y-11854743D02*
X-35701929Y-11849028D01*
X-35701929Y-11849028D02*
X-35690500Y-11843314D01*
X-35690500Y-11843314D02*
X-35673357Y-11843314D01*
X-35673357Y-11843314D02*
X-35661929Y-11849028D01*
X-35661929Y-11849028D02*
X-35656214Y-11860457D01*
X-35656214Y-11860457D02*
X-35656214Y-11923314D01*
X-35656214Y-11860457D02*
X-35650500Y-11849028D01*
X-35650500Y-11849028D02*
X-35639071Y-11843314D01*
X-35639071Y-11843314D02*
X-35621929Y-11843314D01*
X-35621929Y-11843314D02*
X-35610500Y-11849028D01*
X-35610500Y-11849028D02*
X-35604786Y-11860457D01*
X-35604786Y-11860457D02*
X-35604786Y-11923314D01*
X-37090357Y-10730381D02*
X-37123690Y-10730381D01*
X-37123690Y-10782762D02*
X-37123690Y-10682762D01*
X-37123690Y-10682762D02*
X-37076071Y-10682762D01*
X-37037976Y-10782762D02*
X-37037976Y-10716095D01*
X-37037976Y-10735143D02*
X-37033214Y-10725619D01*
X-37033214Y-10725619D02*
X-37028452Y-10720857D01*
X-37028452Y-10720857D02*
X-37018929Y-10716095D01*
X-37018929Y-10716095D02*
X-37009405Y-10716095D01*
X-36961786Y-10782762D02*
X-36971309Y-10778000D01*
X-36971309Y-10778000D02*
X-36976071Y-10773238D01*
X-36976071Y-10773238D02*
X-36980833Y-10763714D01*
X-36980833Y-10763714D02*
X-36980833Y-10735143D01*
X-36980833Y-10735143D02*
X-36976071Y-10725619D01*
X-36976071Y-10725619D02*
X-36971309Y-10720857D01*
X-36971309Y-10720857D02*
X-36961786Y-10716095D01*
X-36961786Y-10716095D02*
X-36947500Y-10716095D01*
X-36947500Y-10716095D02*
X-36937976Y-10720857D01*
X-36937976Y-10720857D02*
X-36933214Y-10725619D01*
X-36933214Y-10725619D02*
X-36928452Y-10735143D01*
X-36928452Y-10735143D02*
X-36928452Y-10763714D01*
X-36928452Y-10763714D02*
X-36933214Y-10773238D01*
X-36933214Y-10773238D02*
X-36937976Y-10778000D01*
X-36937976Y-10778000D02*
X-36947500Y-10782762D01*
X-36947500Y-10782762D02*
X-36961786Y-10782762D01*
X-36885595Y-10716095D02*
X-36885595Y-10782762D01*
X-36885595Y-10725619D02*
X-36880833Y-10720857D01*
X-36880833Y-10720857D02*
X-36871309Y-10716095D01*
X-36871309Y-10716095D02*
X-36857024Y-10716095D01*
X-36857024Y-10716095D02*
X-36847500Y-10720857D01*
X-36847500Y-10720857D02*
X-36842738Y-10730381D01*
X-36842738Y-10730381D02*
X-36842738Y-10782762D01*
X-36809405Y-10716095D02*
X-36771309Y-10716095D01*
X-36795119Y-10682762D02*
X-36795119Y-10768476D01*
X-36795119Y-10768476D02*
X-36790357Y-10778000D01*
X-36790357Y-10778000D02*
X-36780833Y-10782762D01*
X-36780833Y-10782762D02*
X-36771309Y-10782762D01*
X-36661786Y-10782762D02*
X-36661786Y-10682762D01*
X-36661786Y-10682762D02*
X-36623690Y-10682762D01*
X-36623690Y-10682762D02*
X-36614167Y-10687524D01*
X-36614167Y-10687524D02*
X-36609405Y-10692286D01*
X-36609405Y-10692286D02*
X-36604643Y-10701810D01*
X-36604643Y-10701810D02*
X-36604643Y-10716095D01*
X-36604643Y-10716095D02*
X-36609405Y-10725619D01*
X-36609405Y-10725619D02*
X-36614167Y-10730381D01*
X-36614167Y-10730381D02*
X-36623690Y-10735143D01*
X-36623690Y-10735143D02*
X-36661786Y-10735143D01*
X-36518928Y-10782762D02*
X-36518928Y-10730381D01*
X-36518928Y-10730381D02*
X-36523690Y-10720857D01*
X-36523690Y-10720857D02*
X-36533214Y-10716095D01*
X-36533214Y-10716095D02*
X-36552262Y-10716095D01*
X-36552262Y-10716095D02*
X-36561786Y-10720857D01*
X-36518928Y-10778000D02*
X-36528452Y-10782762D01*
X-36528452Y-10782762D02*
X-36552262Y-10782762D01*
X-36552262Y-10782762D02*
X-36561786Y-10778000D01*
X-36561786Y-10778000D02*
X-36566547Y-10768476D01*
X-36566547Y-10768476D02*
X-36566547Y-10758952D01*
X-36566547Y-10758952D02*
X-36561786Y-10749429D01*
X-36561786Y-10749429D02*
X-36552262Y-10744667D01*
X-36552262Y-10744667D02*
X-36528452Y-10744667D01*
X-36528452Y-10744667D02*
X-36518928Y-10739905D01*
X-36471309Y-10716095D02*
X-36471309Y-10782762D01*
X-36471309Y-10725619D02*
X-36466547Y-10720857D01*
X-36466547Y-10720857D02*
X-36457024Y-10716095D01*
X-36457024Y-10716095D02*
X-36442738Y-10716095D01*
X-36442738Y-10716095D02*
X-36433214Y-10720857D01*
X-36433214Y-10720857D02*
X-36428452Y-10730381D01*
X-36428452Y-10730381D02*
X-36428452Y-10782762D01*
X-36342738Y-10778000D02*
X-36352262Y-10782762D01*
X-36352262Y-10782762D02*
X-36371309Y-10782762D01*
X-36371309Y-10782762D02*
X-36380833Y-10778000D01*
X-36380833Y-10778000D02*
X-36385595Y-10768476D01*
X-36385595Y-10768476D02*
X-36385595Y-10730381D01*
X-36385595Y-10730381D02*
X-36380833Y-10720857D01*
X-36380833Y-10720857D02*
X-36371309Y-10716095D01*
X-36371309Y-10716095D02*
X-36352262Y-10716095D01*
X-36352262Y-10716095D02*
X-36342738Y-10720857D01*
X-36342738Y-10720857D02*
X-36337976Y-10730381D01*
X-36337976Y-10730381D02*
X-36337976Y-10739905D01*
X-36337976Y-10739905D02*
X-36385595Y-10749429D01*
X-36280833Y-10782762D02*
X-36290357Y-10778000D01*
X-36290357Y-10778000D02*
X-36295119Y-10768476D01*
X-36295119Y-10768476D02*
X-36295119Y-10682762D01*
X-31853190Y-10274762D02*
X-31853190Y-10174762D01*
X-31853190Y-10174762D02*
X-31829381Y-10174762D01*
X-31829381Y-10174762D02*
X-31815095Y-10179524D01*
X-31815095Y-10179524D02*
X-31805571Y-10189048D01*
X-31805571Y-10189048D02*
X-31800809Y-10198571D01*
X-31800809Y-10198571D02*
X-31796048Y-10217619D01*
X-31796048Y-10217619D02*
X-31796048Y-10231905D01*
X-31796048Y-10231905D02*
X-31800809Y-10250952D01*
X-31800809Y-10250952D02*
X-31805571Y-10260476D01*
X-31805571Y-10260476D02*
X-31815095Y-10270000D01*
X-31815095Y-10270000D02*
X-31829381Y-10274762D01*
X-31829381Y-10274762D02*
X-31853190Y-10274762D01*
X-31753190Y-10274762D02*
X-31753190Y-10208095D01*
X-31753190Y-10174762D02*
X-31757952Y-10179524D01*
X-31757952Y-10179524D02*
X-31753190Y-10184286D01*
X-31753190Y-10184286D02*
X-31748428Y-10179524D01*
X-31748428Y-10179524D02*
X-31753190Y-10174762D01*
X-31753190Y-10174762D02*
X-31753190Y-10184286D01*
X-31710333Y-10270000D02*
X-31700809Y-10274762D01*
X-31700809Y-10274762D02*
X-31681762Y-10274762D01*
X-31681762Y-10274762D02*
X-31672238Y-10270000D01*
X-31672238Y-10270000D02*
X-31667476Y-10260476D01*
X-31667476Y-10260476D02*
X-31667476Y-10255714D01*
X-31667476Y-10255714D02*
X-31672238Y-10246190D01*
X-31672238Y-10246190D02*
X-31681762Y-10241429D01*
X-31681762Y-10241429D02*
X-31696048Y-10241429D01*
X-31696048Y-10241429D02*
X-31705571Y-10236667D01*
X-31705571Y-10236667D02*
X-31710333Y-10227143D01*
X-31710333Y-10227143D02*
X-31710333Y-10222381D01*
X-31710333Y-10222381D02*
X-31705571Y-10212857D01*
X-31705571Y-10212857D02*
X-31696048Y-10208095D01*
X-31696048Y-10208095D02*
X-31681762Y-10208095D01*
X-31681762Y-10208095D02*
X-31672238Y-10212857D01*
X-31624619Y-10208095D02*
X-31624619Y-10308095D01*
X-31624619Y-10212857D02*
X-31615095Y-10208095D01*
X-31615095Y-10208095D02*
X-31596048Y-10208095D01*
X-31596048Y-10208095D02*
X-31586524Y-10212857D01*
X-31586524Y-10212857D02*
X-31581762Y-10217619D01*
X-31581762Y-10217619D02*
X-31577000Y-10227143D01*
X-31577000Y-10227143D02*
X-31577000Y-10255714D01*
X-31577000Y-10255714D02*
X-31581762Y-10265238D01*
X-31581762Y-10265238D02*
X-31586524Y-10270000D01*
X-31586524Y-10270000D02*
X-31596048Y-10274762D01*
X-31596048Y-10274762D02*
X-31615095Y-10274762D01*
X-31615095Y-10274762D02*
X-31624619Y-10270000D01*
X-31519857Y-10274762D02*
X-31529381Y-10270000D01*
X-31529381Y-10270000D02*
X-31534143Y-10260476D01*
X-31534143Y-10260476D02*
X-31534143Y-10174762D01*
X-31438905Y-10274762D02*
X-31438905Y-10222381D01*
X-31438905Y-10222381D02*
X-31443667Y-10212857D01*
X-31443667Y-10212857D02*
X-31453190Y-10208095D01*
X-31453190Y-10208095D02*
X-31472238Y-10208095D01*
X-31472238Y-10208095D02*
X-31481762Y-10212857D01*
X-31438905Y-10270000D02*
X-31448428Y-10274762D01*
X-31448428Y-10274762D02*
X-31472238Y-10274762D01*
X-31472238Y-10274762D02*
X-31481762Y-10270000D01*
X-31481762Y-10270000D02*
X-31486524Y-10260476D01*
X-31486524Y-10260476D02*
X-31486524Y-10250952D01*
X-31486524Y-10250952D02*
X-31481762Y-10241429D01*
X-31481762Y-10241429D02*
X-31472238Y-10236667D01*
X-31472238Y-10236667D02*
X-31448428Y-10236667D01*
X-31448428Y-10236667D02*
X-31438905Y-10231905D01*
X-31400809Y-10208095D02*
X-31377000Y-10274762D01*
X-31353190Y-10208095D02*
X-31377000Y-10274762D01*
X-31377000Y-10274762D02*
X-31386524Y-10298571D01*
X-31386524Y-10298571D02*
X-31391286Y-10303333D01*
X-31391286Y-10303333D02*
X-31400809Y-10308095D01*
X-31930976Y-12778262D02*
X-31897643Y-12878262D01*
X-31897643Y-12878262D02*
X-31864309Y-12778262D01*
X-31788119Y-12878262D02*
X-31788119Y-12825881D01*
X-31788119Y-12825881D02*
X-31792881Y-12816357D01*
X-31792881Y-12816357D02*
X-31802405Y-12811595D01*
X-31802405Y-12811595D02*
X-31821452Y-12811595D01*
X-31821452Y-12811595D02*
X-31830976Y-12816357D01*
X-31788119Y-12873500D02*
X-31797643Y-12878262D01*
X-31797643Y-12878262D02*
X-31821452Y-12878262D01*
X-31821452Y-12878262D02*
X-31830976Y-12873500D01*
X-31830976Y-12873500D02*
X-31835738Y-12863976D01*
X-31835738Y-12863976D02*
X-31835738Y-12854452D01*
X-31835738Y-12854452D02*
X-31830976Y-12844928D01*
X-31830976Y-12844928D02*
X-31821452Y-12840167D01*
X-31821452Y-12840167D02*
X-31797643Y-12840167D01*
X-31797643Y-12840167D02*
X-31788119Y-12835405D01*
X-31726214Y-12878262D02*
X-31735738Y-12873500D01*
X-31735738Y-12873500D02*
X-31740500Y-12863976D01*
X-31740500Y-12863976D02*
X-31740500Y-12778262D01*
X-31697643Y-12811595D02*
X-31673833Y-12878262D01*
X-31673833Y-12878262D02*
X-31650024Y-12811595D01*
X-31573833Y-12873500D02*
X-31583357Y-12878262D01*
X-31583357Y-12878262D02*
X-31602405Y-12878262D01*
X-31602405Y-12878262D02*
X-31611928Y-12873500D01*
X-31611928Y-12873500D02*
X-31616690Y-12863976D01*
X-31616690Y-12863976D02*
X-31616690Y-12825881D01*
X-31616690Y-12825881D02*
X-31611928Y-12816357D01*
X-31611928Y-12816357D02*
X-31602405Y-12811595D01*
X-31602405Y-12811595D02*
X-31583357Y-12811595D01*
X-31583357Y-12811595D02*
X-31573833Y-12816357D01*
X-31573833Y-12816357D02*
X-31569071Y-12825881D01*
X-31569071Y-12825881D02*
X-31569071Y-12835405D01*
X-31569071Y-12835405D02*
X-31616690Y-12844928D01*
X-31408690Y-12878262D02*
X-31408690Y-12778262D01*
X-31408690Y-12778262D02*
X-31370595Y-12778262D01*
X-31370595Y-12778262D02*
X-31361071Y-12783024D01*
X-31361071Y-12783024D02*
X-31356309Y-12787786D01*
X-31356309Y-12787786D02*
X-31351548Y-12797309D01*
X-31351548Y-12797309D02*
X-31351548Y-12811595D01*
X-31351548Y-12811595D02*
X-31356309Y-12821119D01*
X-31356309Y-12821119D02*
X-31361071Y-12825881D01*
X-31361071Y-12825881D02*
X-31370595Y-12830643D01*
X-31370595Y-12830643D02*
X-31408690Y-12830643D01*
X-31265833Y-12811595D02*
X-31265833Y-12878262D01*
X-31308690Y-12811595D02*
X-31308690Y-12863976D01*
X-31308690Y-12863976D02*
X-31303928Y-12873500D01*
X-31303928Y-12873500D02*
X-31294405Y-12878262D01*
X-31294405Y-12878262D02*
X-31280119Y-12878262D01*
X-31280119Y-12878262D02*
X-31270595Y-12873500D01*
X-31270595Y-12873500D02*
X-31265833Y-12868738D01*
X-31218214Y-12878262D02*
X-31218214Y-12811595D01*
X-31218214Y-12821119D02*
X-31213452Y-12816357D01*
X-31213452Y-12816357D02*
X-31203928Y-12811595D01*
X-31203928Y-12811595D02*
X-31189643Y-12811595D01*
X-31189643Y-12811595D02*
X-31180119Y-12816357D01*
X-31180119Y-12816357D02*
X-31175357Y-12825881D01*
X-31175357Y-12825881D02*
X-31175357Y-12878262D01*
X-31175357Y-12825881D02*
X-31170595Y-12816357D01*
X-31170595Y-12816357D02*
X-31161071Y-12811595D01*
X-31161071Y-12811595D02*
X-31146786Y-12811595D01*
X-31146786Y-12811595D02*
X-31137262Y-12816357D01*
X-31137262Y-12816357D02*
X-31132500Y-12825881D01*
X-31132500Y-12825881D02*
X-31132500Y-12878262D01*
X-31084881Y-12811595D02*
X-31084881Y-12911595D01*
X-31084881Y-12816357D02*
X-31075357Y-12811595D01*
X-31075357Y-12811595D02*
X-31056309Y-12811595D01*
X-31056309Y-12811595D02*
X-31046786Y-12816357D01*
X-31046786Y-12816357D02*
X-31042024Y-12821119D01*
X-31042024Y-12821119D02*
X-31037262Y-12830643D01*
X-31037262Y-12830643D02*
X-31037262Y-12859214D01*
X-31037262Y-12859214D02*
X-31042024Y-12868738D01*
X-31042024Y-12868738D02*
X-31046786Y-12873500D01*
X-31046786Y-12873500D02*
X-31056309Y-12878262D01*
X-31056309Y-12878262D02*
X-31075357Y-12878262D01*
X-31075357Y-12878262D02*
X-31084881Y-12873500D01*
X-37508190Y-12837919D02*
X-37508190Y-12952205D01*
X-37508190Y-12952205D02*
X-37515810Y-12975062D01*
X-37515810Y-12975062D02*
X-37531048Y-12990300D01*
X-37531048Y-12990300D02*
X-37553905Y-12997919D01*
X-37553905Y-12997919D02*
X-37569143Y-12997919D01*
X-37363429Y-12997919D02*
X-37363429Y-12914109D01*
X-37363429Y-12914109D02*
X-37371048Y-12898871D01*
X-37371048Y-12898871D02*
X-37386286Y-12891252D01*
X-37386286Y-12891252D02*
X-37416762Y-12891252D01*
X-37416762Y-12891252D02*
X-37432000Y-12898871D01*
X-37363429Y-12990300D02*
X-37378667Y-12997919D01*
X-37378667Y-12997919D02*
X-37416762Y-12997919D01*
X-37416762Y-12997919D02*
X-37432000Y-12990300D01*
X-37432000Y-12990300D02*
X-37439619Y-12975062D01*
X-37439619Y-12975062D02*
X-37439619Y-12959824D01*
X-37439619Y-12959824D02*
X-37432000Y-12944586D01*
X-37432000Y-12944586D02*
X-37416762Y-12936967D01*
X-37416762Y-12936967D02*
X-37378667Y-12936967D01*
X-37378667Y-12936967D02*
X-37363429Y-12929348D01*
X-37287238Y-12997919D02*
X-37287238Y-12837919D01*
X-37272000Y-12936967D02*
X-37226286Y-12997919D01*
X-37226286Y-12891252D02*
X-37287238Y-12952205D01*
X-37134857Y-12997919D02*
X-37150095Y-12990300D01*
X-37150095Y-12990300D02*
X-37157714Y-12982681D01*
X-37157714Y-12982681D02*
X-37165333Y-12967443D01*
X-37165333Y-12967443D02*
X-37165333Y-12921728D01*
X-37165333Y-12921728D02*
X-37157714Y-12906490D01*
X-37157714Y-12906490D02*
X-37150095Y-12898871D01*
X-37150095Y-12898871D02*
X-37134857Y-12891252D01*
X-37134857Y-12891252D02*
X-37112000Y-12891252D01*
X-37112000Y-12891252D02*
X-37096762Y-12898871D01*
X-37096762Y-12898871D02*
X-37089143Y-12906490D01*
X-37089143Y-12906490D02*
X-37081524Y-12921728D01*
X-37081524Y-12921728D02*
X-37081524Y-12967443D01*
X-37081524Y-12967443D02*
X-37089143Y-12982681D01*
X-37089143Y-12982681D02*
X-37096762Y-12990300D01*
X-37096762Y-12990300D02*
X-37112000Y-12997919D01*
X-37112000Y-12997919D02*
X-37134857Y-12997919D01*
X-37012952Y-12997919D02*
X-37012952Y-12837919D01*
X-37012952Y-12898871D02*
X-36997714Y-12891252D01*
X-36997714Y-12891252D02*
X-36967238Y-12891252D01*
X-36967238Y-12891252D02*
X-36952000Y-12898871D01*
X-36952000Y-12898871D02*
X-36944381Y-12906490D01*
X-36944381Y-12906490D02*
X-36936762Y-12921728D01*
X-36936762Y-12921728D02*
X-36936762Y-12967443D01*
X-36936762Y-12967443D02*
X-36944381Y-12982681D01*
X-36944381Y-12982681D02*
X-36952000Y-12990300D01*
X-36952000Y-12990300D02*
X-36967238Y-12997919D01*
X-36967238Y-12997919D02*
X-36997714Y-12997919D01*
X-36997714Y-12997919D02*
X-37012952Y-12990300D01*
X-36746286Y-12997919D02*
X-36746286Y-12837919D01*
X-36746286Y-12914109D02*
X-36654857Y-12914109D01*
X-36654857Y-12997919D02*
X-36654857Y-12837919D01*
X-36555810Y-12997919D02*
X-36571048Y-12990300D01*
X-36571048Y-12990300D02*
X-36578667Y-12982681D01*
X-36578667Y-12982681D02*
X-36586286Y-12967443D01*
X-36586286Y-12967443D02*
X-36586286Y-12921728D01*
X-36586286Y-12921728D02*
X-36578667Y-12906490D01*
X-36578667Y-12906490D02*
X-36571048Y-12898871D01*
X-36571048Y-12898871D02*
X-36555810Y-12891252D01*
X-36555810Y-12891252D02*
X-36532952Y-12891252D01*
X-36532952Y-12891252D02*
X-36517714Y-12898871D01*
X-36517714Y-12898871D02*
X-36510095Y-12906490D01*
X-36510095Y-12906490D02*
X-36502476Y-12921728D01*
X-36502476Y-12921728D02*
X-36502476Y-12967443D01*
X-36502476Y-12967443D02*
X-36510095Y-12982681D01*
X-36510095Y-12982681D02*
X-36517714Y-12990300D01*
X-36517714Y-12990300D02*
X-36532952Y-12997919D01*
X-36532952Y-12997919D02*
X-36555810Y-12997919D01*
X-36411048Y-12997919D02*
X-36426286Y-12990300D01*
X-36426286Y-12990300D02*
X-36433905Y-12975062D01*
X-36433905Y-12975062D02*
X-36433905Y-12837919D01*
X-36365333Y-12891252D02*
X-36281524Y-12891252D01*
X-36281524Y-12891252D02*
X-36365333Y-12997919D01*
X-36365333Y-12997919D02*
X-36281524Y-12997919D01*
X-36106286Y-12853157D02*
X-36098667Y-12845538D01*
X-36098667Y-12845538D02*
X-36083429Y-12837919D01*
X-36083429Y-12837919D02*
X-36045333Y-12837919D01*
X-36045333Y-12837919D02*
X-36030095Y-12845538D01*
X-36030095Y-12845538D02*
X-36022476Y-12853157D01*
X-36022476Y-12853157D02*
X-36014857Y-12868395D01*
X-36014857Y-12868395D02*
X-36014857Y-12883633D01*
X-36014857Y-12883633D02*
X-36022476Y-12906490D01*
X-36022476Y-12906490D02*
X-36113905Y-12997919D01*
X-36113905Y-12997919D02*
X-36014857Y-12997919D01*
X-35915809Y-12837919D02*
X-35900571Y-12837919D01*
X-35900571Y-12837919D02*
X-35885333Y-12845538D01*
X-35885333Y-12845538D02*
X-35877714Y-12853157D01*
X-35877714Y-12853157D02*
X-35870095Y-12868395D01*
X-35870095Y-12868395D02*
X-35862476Y-12898871D01*
X-35862476Y-12898871D02*
X-35862476Y-12936967D01*
X-35862476Y-12936967D02*
X-35870095Y-12967443D01*
X-35870095Y-12967443D02*
X-35877714Y-12982681D01*
X-35877714Y-12982681D02*
X-35885333Y-12990300D01*
X-35885333Y-12990300D02*
X-35900571Y-12997919D01*
X-35900571Y-12997919D02*
X-35915809Y-12997919D01*
X-35915809Y-12997919D02*
X-35931048Y-12990300D01*
X-35931048Y-12990300D02*
X-35938667Y-12982681D01*
X-35938667Y-12982681D02*
X-35946286Y-12967443D01*
X-35946286Y-12967443D02*
X-35953905Y-12936967D01*
X-35953905Y-12936967D02*
X-35953905Y-12898871D01*
X-35953905Y-12898871D02*
X-35946286Y-12868395D01*
X-35946286Y-12868395D02*
X-35938667Y-12853157D01*
X-35938667Y-12853157D02*
X-35931048Y-12845538D01*
X-35931048Y-12845538D02*
X-35915809Y-12837919D01*
X-35801524Y-12853157D02*
X-35793905Y-12845538D01*
X-35793905Y-12845538D02*
X-35778667Y-12837919D01*
X-35778667Y-12837919D02*
X-35740571Y-12837919D01*
X-35740571Y-12837919D02*
X-35725333Y-12845538D01*
X-35725333Y-12845538D02*
X-35717714Y-12853157D01*
X-35717714Y-12853157D02*
X-35710095Y-12868395D01*
X-35710095Y-12868395D02*
X-35710095Y-12883633D01*
X-35710095Y-12883633D02*
X-35717714Y-12906490D01*
X-35717714Y-12906490D02*
X-35809143Y-12997919D01*
X-35809143Y-12997919D02*
X-35710095Y-12997919D01*
X-35656762Y-12837919D02*
X-35557714Y-12837919D01*
X-35557714Y-12837919D02*
X-35611047Y-12898871D01*
X-35611047Y-12898871D02*
X-35588190Y-12898871D01*
X-35588190Y-12898871D02*
X-35572952Y-12906490D01*
X-35572952Y-12906490D02*
X-35565333Y-12914109D01*
X-35565333Y-12914109D02*
X-35557714Y-12929348D01*
X-35557714Y-12929348D02*
X-35557714Y-12967443D01*
X-35557714Y-12967443D02*
X-35565333Y-12982681D01*
X-35565333Y-12982681D02*
X-35572952Y-12990300D01*
X-35572952Y-12990300D02*
X-35588190Y-12997919D01*
X-35588190Y-12997919D02*
X-35633905Y-12997919D01*
X-35633905Y-12997919D02*
X-35649143Y-12990300D01*
X-35649143Y-12990300D02*
X-35656762Y-12982681D01*
D11*
%TO.C,U2*%
X-34366190Y-11222262D02*
X-34366190Y-11303214D01*
X-34366190Y-11303214D02*
X-34361429Y-11312738D01*
X-34361429Y-11312738D02*
X-34356667Y-11317500D01*
X-34356667Y-11317500D02*
X-34347143Y-11322262D01*
X-34347143Y-11322262D02*
X-34328095Y-11322262D01*
X-34328095Y-11322262D02*
X-34318571Y-11317500D01*
X-34318571Y-11317500D02*
X-34313810Y-11312738D01*
X-34313810Y-11312738D02*
X-34309048Y-11303214D01*
X-34309048Y-11303214D02*
X-34309048Y-11222262D01*
X-34266190Y-11231786D02*
X-34261429Y-11227024D01*
X-34261429Y-11227024D02*
X-34251905Y-11222262D01*
X-34251905Y-11222262D02*
X-34228095Y-11222262D01*
X-34228095Y-11222262D02*
X-34218571Y-11227024D01*
X-34218571Y-11227024D02*
X-34213810Y-11231786D01*
X-34213810Y-11231786D02*
X-34209048Y-11241309D01*
X-34209048Y-11241309D02*
X-34209048Y-11250833D01*
X-34209048Y-11250833D02*
X-34213810Y-11265119D01*
X-34213810Y-11265119D02*
X-34270952Y-11322262D01*
X-34270952Y-11322262D02*
X-34209048Y-11322262D01*
X-34001905Y-12194938D02*
X-34001905Y-12294938D01*
X-34035238Y-12261605D02*
X-34073333Y-12261605D01*
X-34049524Y-12294938D02*
X-34049524Y-12209224D01*
X-34049524Y-12209224D02*
X-34054286Y-12199700D01*
X-34054286Y-12199700D02*
X-34063809Y-12194938D01*
X-34063809Y-12194938D02*
X-34073333Y-12194938D01*
X-34101905Y-12199700D02*
X-34111429Y-12194938D01*
X-34111429Y-12194938D02*
X-34130476Y-12194938D01*
X-34130476Y-12194938D02*
X-34140000Y-12199700D01*
X-34140000Y-12199700D02*
X-34144762Y-12209224D01*
X-34144762Y-12209224D02*
X-34144762Y-12213986D01*
X-34144762Y-12213986D02*
X-34140000Y-12223509D01*
X-34140000Y-12223509D02*
X-34130476Y-12228271D01*
X-34130476Y-12228271D02*
X-34116190Y-12228271D01*
X-34116190Y-12228271D02*
X-34106667Y-12233033D01*
X-34106667Y-12233033D02*
X-34101905Y-12242557D01*
X-34101905Y-12242557D02*
X-34101905Y-12247319D01*
X-34101905Y-12247319D02*
X-34106667Y-12256843D01*
X-34106667Y-12256843D02*
X-34116190Y-12261605D01*
X-34116190Y-12261605D02*
X-34130476Y-12261605D01*
X-34130476Y-12261605D02*
X-34140000Y-12256843D01*
X-34178095Y-12261605D02*
X-34201905Y-12194938D01*
X-34225714Y-12261605D02*
X-34201905Y-12194938D01*
X-34201905Y-12194938D02*
X-34192381Y-12171128D01*
X-34192381Y-12171128D02*
X-34187619Y-12166367D01*
X-34187619Y-12166367D02*
X-34178095Y-12161605D01*
X-34297143Y-12247319D02*
X-34311429Y-12242557D01*
X-34311429Y-12242557D02*
X-34316190Y-12237795D01*
X-34316190Y-12237795D02*
X-34320952Y-12228271D01*
X-34320952Y-12228271D02*
X-34320952Y-12213986D01*
X-34320952Y-12213986D02*
X-34316190Y-12204462D01*
X-34316190Y-12204462D02*
X-34311429Y-12199700D01*
X-34311429Y-12199700D02*
X-34301905Y-12194938D01*
X-34301905Y-12194938D02*
X-34263810Y-12194938D01*
X-34263810Y-12194938D02*
X-34263810Y-12294938D01*
X-34263810Y-12294938D02*
X-34297143Y-12294938D01*
X-34297143Y-12294938D02*
X-34306667Y-12290176D01*
X-34306667Y-12290176D02*
X-34311429Y-12285414D01*
X-34311429Y-12285414D02*
X-34316190Y-12275890D01*
X-34316190Y-12275890D02*
X-34316190Y-12266367D01*
X-34316190Y-12266367D02*
X-34311429Y-12256843D01*
X-34311429Y-12256843D02*
X-34306667Y-12252081D01*
X-34306667Y-12252081D02*
X-34297143Y-12247319D01*
X-34297143Y-12247319D02*
X-34263810Y-12247319D01*
X-34363810Y-12194938D02*
X-34363810Y-12261605D01*
X-34363810Y-12294938D02*
X-34359048Y-12290176D01*
X-34359048Y-12290176D02*
X-34363810Y-12285414D01*
X-34363810Y-12285414D02*
X-34368571Y-12290176D01*
X-34368571Y-12290176D02*
X-34363810Y-12294938D01*
X-34363810Y-12294938D02*
X-34363810Y-12285414D01*
X-34397143Y-12261605D02*
X-34435238Y-12261605D01*
X-34411429Y-12294938D02*
X-34411429Y-12209224D01*
X-34411429Y-12209224D02*
X-34416190Y-12199700D01*
X-34416190Y-12199700D02*
X-34425714Y-12194938D01*
X-34425714Y-12194938D02*
X-34435238Y-12194938D01*
X-34463810Y-12199700D02*
X-34473333Y-12194938D01*
X-34473333Y-12194938D02*
X-34492381Y-12194938D01*
X-34492381Y-12194938D02*
X-34501905Y-12199700D01*
X-34501905Y-12199700D02*
X-34506667Y-12209224D01*
X-34506667Y-12209224D02*
X-34506667Y-12213986D01*
X-34506667Y-12213986D02*
X-34501905Y-12223509D01*
X-34501905Y-12223509D02*
X-34492381Y-12228271D01*
X-34492381Y-12228271D02*
X-34478095Y-12228271D01*
X-34478095Y-12228271D02*
X-34468571Y-12233033D01*
X-34468571Y-12233033D02*
X-34463810Y-12242557D01*
X-34463810Y-12242557D02*
X-34463810Y-12247319D01*
X-34463810Y-12247319D02*
X-34468571Y-12256843D01*
X-34468571Y-12256843D02*
X-34478095Y-12261605D01*
X-34478095Y-12261605D02*
X-34492381Y-12261605D01*
X-34492381Y-12261605D02*
X-34501905Y-12256843D01*
X-34540000Y-12261605D02*
X-34563810Y-12194938D01*
X-34587619Y-12261605D02*
X-34563810Y-12194938D01*
X-34563810Y-12194938D02*
X-34554286Y-12171128D01*
X-34554286Y-12171128D02*
X-34549524Y-12166367D01*
X-34549524Y-12166367D02*
X-34540000Y-12161605D01*
X-33892381Y-11991738D02*
X-33892381Y-12091738D01*
X-33892381Y-12091738D02*
X-33949524Y-11991738D01*
X-33949524Y-11991738D02*
X-33949524Y-12091738D01*
X-34054286Y-11991738D02*
X-34020952Y-12039357D01*
X-33997143Y-11991738D02*
X-33997143Y-12091738D01*
X-33997143Y-12091738D02*
X-34035238Y-12091738D01*
X-34035238Y-12091738D02*
X-34044762Y-12086976D01*
X-34044762Y-12086976D02*
X-34049524Y-12082214D01*
X-34049524Y-12082214D02*
X-34054286Y-12072690D01*
X-34054286Y-12072690D02*
X-34054286Y-12058405D01*
X-34054286Y-12058405D02*
X-34049524Y-12048881D01*
X-34049524Y-12048881D02*
X-34044762Y-12044119D01*
X-34044762Y-12044119D02*
X-34035238Y-12039357D01*
X-34035238Y-12039357D02*
X-33997143Y-12039357D01*
X-34130476Y-12044119D02*
X-34097143Y-12044119D01*
X-34097143Y-11991738D02*
X-34097143Y-12091738D01*
X-34097143Y-12091738D02*
X-34144762Y-12091738D01*
X-34159048Y-11982214D02*
X-34235238Y-11982214D01*
X-34306667Y-12091738D02*
X-34259048Y-12091738D01*
X-34259048Y-12091738D02*
X-34254286Y-12044119D01*
X-34254286Y-12044119D02*
X-34259048Y-12048881D01*
X-34259048Y-12048881D02*
X-34268571Y-12053643D01*
X-34268571Y-12053643D02*
X-34292381Y-12053643D01*
X-34292381Y-12053643D02*
X-34301905Y-12048881D01*
X-34301905Y-12048881D02*
X-34306667Y-12044119D01*
X-34306667Y-12044119D02*
X-34311429Y-12034595D01*
X-34311429Y-12034595D02*
X-34311429Y-12010786D01*
X-34311429Y-12010786D02*
X-34306667Y-12001262D01*
X-34306667Y-12001262D02*
X-34301905Y-11996500D01*
X-34301905Y-11996500D02*
X-34292381Y-11991738D01*
X-34292381Y-11991738D02*
X-34268571Y-11991738D01*
X-34268571Y-11991738D02*
X-34259048Y-11996500D01*
X-34259048Y-11996500D02*
X-34254286Y-12001262D01*
X-34349524Y-12082214D02*
X-34354286Y-12086976D01*
X-34354286Y-12086976D02*
X-34363810Y-12091738D01*
X-34363810Y-12091738D02*
X-34387619Y-12091738D01*
X-34387619Y-12091738D02*
X-34397143Y-12086976D01*
X-34397143Y-12086976D02*
X-34401905Y-12082214D01*
X-34401905Y-12082214D02*
X-34406667Y-12072690D01*
X-34406667Y-12072690D02*
X-34406667Y-12063167D01*
X-34406667Y-12063167D02*
X-34401905Y-12048881D01*
X-34401905Y-12048881D02*
X-34344762Y-11991738D01*
X-34344762Y-11991738D02*
X-34406667Y-11991738D01*
X-34463810Y-12048881D02*
X-34454286Y-12053643D01*
X-34454286Y-12053643D02*
X-34449524Y-12058405D01*
X-34449524Y-12058405D02*
X-34444762Y-12067928D01*
X-34444762Y-12067928D02*
X-34444762Y-12072690D01*
X-34444762Y-12072690D02*
X-34449524Y-12082214D01*
X-34449524Y-12082214D02*
X-34454286Y-12086976D01*
X-34454286Y-12086976D02*
X-34463810Y-12091738D01*
X-34463810Y-12091738D02*
X-34482857Y-12091738D01*
X-34482857Y-12091738D02*
X-34492381Y-12086976D01*
X-34492381Y-12086976D02*
X-34497143Y-12082214D01*
X-34497143Y-12082214D02*
X-34501905Y-12072690D01*
X-34501905Y-12072690D02*
X-34501905Y-12067928D01*
X-34501905Y-12067928D02*
X-34497143Y-12058405D01*
X-34497143Y-12058405D02*
X-34492381Y-12053643D01*
X-34492381Y-12053643D02*
X-34482857Y-12048881D01*
X-34482857Y-12048881D02*
X-34463810Y-12048881D01*
X-34463810Y-12048881D02*
X-34454286Y-12044119D01*
X-34454286Y-12044119D02*
X-34449524Y-12039357D01*
X-34449524Y-12039357D02*
X-34444762Y-12029833D01*
X-34444762Y-12029833D02*
X-34444762Y-12010786D01*
X-34444762Y-12010786D02*
X-34449524Y-12001262D01*
X-34449524Y-12001262D02*
X-34454286Y-11996500D01*
X-34454286Y-11996500D02*
X-34463810Y-11991738D01*
X-34463810Y-11991738D02*
X-34482857Y-11991738D01*
X-34482857Y-11991738D02*
X-34492381Y-11996500D01*
X-34492381Y-11996500D02*
X-34497143Y-12001262D01*
X-34497143Y-12001262D02*
X-34501905Y-12010786D01*
X-34501905Y-12010786D02*
X-34501905Y-12029833D01*
X-34501905Y-12029833D02*
X-34497143Y-12039357D01*
X-34497143Y-12039357D02*
X-34492381Y-12044119D01*
X-34492381Y-12044119D02*
X-34482857Y-12048881D01*
X-34587619Y-12058405D02*
X-34587619Y-11991738D01*
X-34563810Y-12096500D02*
X-34540000Y-12025071D01*
X-34540000Y-12025071D02*
X-34601905Y-12025071D01*
X-34659048Y-12091738D02*
X-34668571Y-12091738D01*
X-34668571Y-12091738D02*
X-34678095Y-12086976D01*
X-34678095Y-12086976D02*
X-34682857Y-12082214D01*
X-34682857Y-12082214D02*
X-34687619Y-12072690D01*
X-34687619Y-12072690D02*
X-34692381Y-12053643D01*
X-34692381Y-12053643D02*
X-34692381Y-12029833D01*
X-34692381Y-12029833D02*
X-34687619Y-12010786D01*
X-34687619Y-12010786D02*
X-34682857Y-12001262D01*
X-34682857Y-12001262D02*
X-34678095Y-11996500D01*
X-34678095Y-11996500D02*
X-34668571Y-11991738D01*
X-34668571Y-11991738D02*
X-34659048Y-11991738D01*
X-34659048Y-11991738D02*
X-34649524Y-11996500D01*
X-34649524Y-11996500D02*
X-34644762Y-12001262D01*
X-34644762Y-12001262D02*
X-34640000Y-12010786D01*
X-34640000Y-12010786D02*
X-34635238Y-12029833D01*
X-34635238Y-12029833D02*
X-34635238Y-12053643D01*
X-34635238Y-12053643D02*
X-34640000Y-12072690D01*
X-34640000Y-12072690D02*
X-34644762Y-12082214D01*
X-34644762Y-12082214D02*
X-34649524Y-12086976D01*
X-34649524Y-12086976D02*
X-34659048Y-12091738D01*
X-34163810Y-12701338D02*
X-34163810Y-12620386D01*
X-34163810Y-12620386D02*
X-34168571Y-12610862D01*
X-34168571Y-12610862D02*
X-34173333Y-12606100D01*
X-34173333Y-12606100D02*
X-34182857Y-12601338D01*
X-34182857Y-12601338D02*
X-34201905Y-12601338D01*
X-34201905Y-12601338D02*
X-34211429Y-12606100D01*
X-34211429Y-12606100D02*
X-34216190Y-12610862D01*
X-34216190Y-12610862D02*
X-34220952Y-12620386D01*
X-34220952Y-12620386D02*
X-34220952Y-12701338D01*
X-34263810Y-12606100D02*
X-34278095Y-12601338D01*
X-34278095Y-12601338D02*
X-34301905Y-12601338D01*
X-34301905Y-12601338D02*
X-34311429Y-12606100D01*
X-34311429Y-12606100D02*
X-34316190Y-12610862D01*
X-34316190Y-12610862D02*
X-34320952Y-12620386D01*
X-34320952Y-12620386D02*
X-34320952Y-12629909D01*
X-34320952Y-12629909D02*
X-34316190Y-12639433D01*
X-34316190Y-12639433D02*
X-34311429Y-12644195D01*
X-34311429Y-12644195D02*
X-34301905Y-12648957D01*
X-34301905Y-12648957D02*
X-34282857Y-12653719D01*
X-34282857Y-12653719D02*
X-34273333Y-12658481D01*
X-34273333Y-12658481D02*
X-34268571Y-12663243D01*
X-34268571Y-12663243D02*
X-34263810Y-12672767D01*
X-34263810Y-12672767D02*
X-34263810Y-12682290D01*
X-34263810Y-12682290D02*
X-34268571Y-12691814D01*
X-34268571Y-12691814D02*
X-34273333Y-12696576D01*
X-34273333Y-12696576D02*
X-34282857Y-12701338D01*
X-34282857Y-12701338D02*
X-34306667Y-12701338D01*
X-34306667Y-12701338D02*
X-34320952Y-12696576D01*
X-34397143Y-12653719D02*
X-34411429Y-12648957D01*
X-34411429Y-12648957D02*
X-34416190Y-12644195D01*
X-34416190Y-12644195D02*
X-34420952Y-12634671D01*
X-34420952Y-12634671D02*
X-34420952Y-12620386D01*
X-34420952Y-12620386D02*
X-34416190Y-12610862D01*
X-34416190Y-12610862D02*
X-34411429Y-12606100D01*
X-34411429Y-12606100D02*
X-34401905Y-12601338D01*
X-34401905Y-12601338D02*
X-34363810Y-12601338D01*
X-34363810Y-12601338D02*
X-34363810Y-12701338D01*
X-34363810Y-12701338D02*
X-34397143Y-12701338D01*
X-34397143Y-12701338D02*
X-34406667Y-12696576D01*
X-34406667Y-12696576D02*
X-34411429Y-12691814D01*
X-34411429Y-12691814D02*
X-34416190Y-12682290D01*
X-34416190Y-12682290D02*
X-34416190Y-12672767D01*
X-34416190Y-12672767D02*
X-34411429Y-12663243D01*
X-34411429Y-12663243D02*
X-34406667Y-12658481D01*
X-34406667Y-12658481D02*
X-34397143Y-12653719D01*
X-34397143Y-12653719D02*
X-34363810Y-12653719D01*
%TO.C,R4*%
X-31957167Y-11493262D02*
X-31990500Y-11445643D01*
X-32014309Y-11493262D02*
X-32014309Y-11393262D01*
X-32014309Y-11393262D02*
X-31976214Y-11393262D01*
X-31976214Y-11393262D02*
X-31966690Y-11398024D01*
X-31966690Y-11398024D02*
X-31961928Y-11402786D01*
X-31961928Y-11402786D02*
X-31957167Y-11412309D01*
X-31957167Y-11412309D02*
X-31957167Y-11426595D01*
X-31957167Y-11426595D02*
X-31961928Y-11436119D01*
X-31961928Y-11436119D02*
X-31966690Y-11440881D01*
X-31966690Y-11440881D02*
X-31976214Y-11445643D01*
X-31976214Y-11445643D02*
X-32014309Y-11445643D01*
X-31871452Y-11426595D02*
X-31871452Y-11493262D01*
X-31895262Y-11388500D02*
X-31919071Y-11459928D01*
X-31919071Y-11459928D02*
X-31857167Y-11459928D01*
%TO.C,C5*%
X-30910262Y-9668667D02*
X-30905500Y-9673429D01*
X-30905500Y-9673429D02*
X-30900738Y-9687714D01*
X-30900738Y-9687714D02*
X-30900738Y-9697238D01*
X-30900738Y-9697238D02*
X-30905500Y-9711524D01*
X-30905500Y-9711524D02*
X-30915024Y-9721048D01*
X-30915024Y-9721048D02*
X-30924548Y-9725809D01*
X-30924548Y-9725809D02*
X-30943595Y-9730571D01*
X-30943595Y-9730571D02*
X-30957881Y-9730571D01*
X-30957881Y-9730571D02*
X-30976928Y-9725809D01*
X-30976928Y-9725809D02*
X-30986452Y-9721048D01*
X-30986452Y-9721048D02*
X-30995976Y-9711524D01*
X-30995976Y-9711524D02*
X-31000738Y-9697238D01*
X-31000738Y-9697238D02*
X-31000738Y-9687714D01*
X-31000738Y-9687714D02*
X-30995976Y-9673429D01*
X-30995976Y-9673429D02*
X-30991214Y-9668667D01*
X-31000738Y-9578190D02*
X-31000738Y-9625809D01*
X-31000738Y-9625809D02*
X-30953119Y-9630571D01*
X-30953119Y-9630571D02*
X-30957881Y-9625809D01*
X-30957881Y-9625809D02*
X-30962643Y-9616286D01*
X-30962643Y-9616286D02*
X-30962643Y-9592476D01*
X-30962643Y-9592476D02*
X-30957881Y-9582952D01*
X-30957881Y-9582952D02*
X-30953119Y-9578190D01*
X-30953119Y-9578190D02*
X-30943595Y-9573429D01*
X-30943595Y-9573429D02*
X-30919786Y-9573429D01*
X-30919786Y-9573429D02*
X-30910262Y-9578190D01*
X-30910262Y-9578190D02*
X-30905500Y-9582952D01*
X-30905500Y-9582952D02*
X-30900738Y-9592476D01*
X-30900738Y-9592476D02*
X-30900738Y-9616286D01*
X-30900738Y-9616286D02*
X-30905500Y-9625809D01*
X-30905500Y-9625809D02*
X-30910262Y-9630571D01*
%TO.C,R1*%
X-32655667Y-12983262D02*
X-32689000Y-12935643D01*
X-32712809Y-12983262D02*
X-32712809Y-12883262D01*
X-32712809Y-12883262D02*
X-32674714Y-12883262D01*
X-32674714Y-12883262D02*
X-32665190Y-12888024D01*
X-32665190Y-12888024D02*
X-32660428Y-12892786D01*
X-32660428Y-12892786D02*
X-32655667Y-12902309D01*
X-32655667Y-12902309D02*
X-32655667Y-12916595D01*
X-32655667Y-12916595D02*
X-32660428Y-12926119D01*
X-32660428Y-12926119D02*
X-32665190Y-12930881D01*
X-32665190Y-12930881D02*
X-32674714Y-12935643D01*
X-32674714Y-12935643D02*
X-32712809Y-12935643D01*
X-32560428Y-12983262D02*
X-32617571Y-12983262D01*
X-32589000Y-12983262D02*
X-32589000Y-12883262D01*
X-32589000Y-12883262D02*
X-32598524Y-12897548D01*
X-32598524Y-12897548D02*
X-32608047Y-12907071D01*
X-32608047Y-12907071D02*
X-32617571Y-12911833D01*
%TO.C,C4*%
X-36148167Y-11530238D02*
X-36152929Y-11535000D01*
X-36152929Y-11535000D02*
X-36167214Y-11539762D01*
X-36167214Y-11539762D02*
X-36176738Y-11539762D01*
X-36176738Y-11539762D02*
X-36191024Y-11535000D01*
X-36191024Y-11535000D02*
X-36200548Y-11525476D01*
X-36200548Y-11525476D02*
X-36205309Y-11515952D01*
X-36205309Y-11515952D02*
X-36210071Y-11496905D01*
X-36210071Y-11496905D02*
X-36210071Y-11482619D01*
X-36210071Y-11482619D02*
X-36205309Y-11463571D01*
X-36205309Y-11463571D02*
X-36200548Y-11454048D01*
X-36200548Y-11454048D02*
X-36191024Y-11444524D01*
X-36191024Y-11444524D02*
X-36176738Y-11439762D01*
X-36176738Y-11439762D02*
X-36167214Y-11439762D01*
X-36167214Y-11439762D02*
X-36152929Y-11444524D01*
X-36152929Y-11444524D02*
X-36148167Y-11449286D01*
X-36062452Y-11473095D02*
X-36062452Y-11539762D01*
X-36086262Y-11435000D02*
X-36110071Y-11506428D01*
X-36110071Y-11506428D02*
X-36048167Y-11506428D01*
%TO.C,C2*%
X-37999762Y-10180667D02*
X-37995000Y-10185429D01*
X-37995000Y-10185429D02*
X-37990238Y-10199714D01*
X-37990238Y-10199714D02*
X-37990238Y-10209238D01*
X-37990238Y-10209238D02*
X-37995000Y-10223524D01*
X-37995000Y-10223524D02*
X-38004524Y-10233048D01*
X-38004524Y-10233048D02*
X-38014048Y-10237809D01*
X-38014048Y-10237809D02*
X-38033095Y-10242571D01*
X-38033095Y-10242571D02*
X-38047381Y-10242571D01*
X-38047381Y-10242571D02*
X-38066429Y-10237809D01*
X-38066429Y-10237809D02*
X-38075952Y-10233048D01*
X-38075952Y-10233048D02*
X-38085476Y-10223524D01*
X-38085476Y-10223524D02*
X-38090238Y-10209238D01*
X-38090238Y-10209238D02*
X-38090238Y-10199714D01*
X-38090238Y-10199714D02*
X-38085476Y-10185429D01*
X-38085476Y-10185429D02*
X-38080714Y-10180667D01*
X-38080714Y-10142571D02*
X-38085476Y-10137809D01*
X-38085476Y-10137809D02*
X-38090238Y-10128286D01*
X-38090238Y-10128286D02*
X-38090238Y-10104476D01*
X-38090238Y-10104476D02*
X-38085476Y-10094952D01*
X-38085476Y-10094952D02*
X-38080714Y-10090190D01*
X-38080714Y-10090190D02*
X-38071190Y-10085429D01*
X-38071190Y-10085429D02*
X-38061667Y-10085429D01*
X-38061667Y-10085429D02*
X-38047381Y-10090190D01*
X-38047381Y-10090190D02*
X-37990238Y-10147333D01*
X-37990238Y-10147333D02*
X-37990238Y-10085429D01*
%TO.C,R2*%
X-32655667Y-10714262D02*
X-32689000Y-10666643D01*
X-32712809Y-10714262D02*
X-32712809Y-10614262D01*
X-32712809Y-10614262D02*
X-32674714Y-10614262D01*
X-32674714Y-10614262D02*
X-32665190Y-10619024D01*
X-32665190Y-10619024D02*
X-32660428Y-10623786D01*
X-32660428Y-10623786D02*
X-32655667Y-10633310D01*
X-32655667Y-10633310D02*
X-32655667Y-10647595D01*
X-32655667Y-10647595D02*
X-32660428Y-10657119D01*
X-32660428Y-10657119D02*
X-32665190Y-10661881D01*
X-32665190Y-10661881D02*
X-32674714Y-10666643D01*
X-32674714Y-10666643D02*
X-32712809Y-10666643D01*
X-32617571Y-10623786D02*
X-32612809Y-10619024D01*
X-32612809Y-10619024D02*
X-32603286Y-10614262D01*
X-32603286Y-10614262D02*
X-32579476Y-10614262D01*
X-32579476Y-10614262D02*
X-32569952Y-10619024D01*
X-32569952Y-10619024D02*
X-32565190Y-10623786D01*
X-32565190Y-10623786D02*
X-32560428Y-10633310D01*
X-32560428Y-10633310D02*
X-32560428Y-10642833D01*
X-32560428Y-10642833D02*
X-32565190Y-10657119D01*
X-32565190Y-10657119D02*
X-32622333Y-10714262D01*
X-32622333Y-10714262D02*
X-32560428Y-10714262D01*
%TO.C,U1*%
X-30885440Y-10384762D02*
X-30885440Y-10465714D01*
X-30885440Y-10465714D02*
X-30880678Y-10475238D01*
X-30880678Y-10475238D02*
X-30875917Y-10480000D01*
X-30875917Y-10480000D02*
X-30866393Y-10484762D01*
X-30866393Y-10484762D02*
X-30847345Y-10484762D01*
X-30847345Y-10484762D02*
X-30837821Y-10480000D01*
X-30837821Y-10480000D02*
X-30833059Y-10475238D01*
X-30833059Y-10475238D02*
X-30828298Y-10465714D01*
X-30828298Y-10465714D02*
X-30828298Y-10384762D01*
X-30728298Y-10484762D02*
X-30785440Y-10484762D01*
X-30756869Y-10484762D02*
X-30756869Y-10384762D01*
X-30756869Y-10384762D02*
X-30766393Y-10399048D01*
X-30766393Y-10399048D02*
X-30775917Y-10408571D01*
X-30775917Y-10408571D02*
X-30785440Y-10413333D01*
%TO.C,C1*%
X-30646917Y-12546238D02*
X-30651678Y-12551000D01*
X-30651678Y-12551000D02*
X-30665964Y-12555762D01*
X-30665964Y-12555762D02*
X-30675488Y-12555762D01*
X-30675488Y-12555762D02*
X-30689774Y-12551000D01*
X-30689774Y-12551000D02*
X-30699297Y-12541476D01*
X-30699297Y-12541476D02*
X-30704059Y-12531952D01*
X-30704059Y-12531952D02*
X-30708821Y-12512905D01*
X-30708821Y-12512905D02*
X-30708821Y-12498619D01*
X-30708821Y-12498619D02*
X-30704059Y-12479571D01*
X-30704059Y-12479571D02*
X-30699297Y-12470048D01*
X-30699297Y-12470048D02*
X-30689774Y-12460524D01*
X-30689774Y-12460524D02*
X-30675488Y-12455762D01*
X-30675488Y-12455762D02*
X-30665964Y-12455762D01*
X-30665964Y-12455762D02*
X-30651678Y-12460524D01*
X-30651678Y-12460524D02*
X-30646917Y-12465286D01*
X-30551678Y-12555762D02*
X-30608821Y-12555762D01*
X-30580250Y-12555762D02*
X-30580250Y-12455762D01*
X-30580250Y-12455762D02*
X-30589774Y-12470048D01*
X-30589774Y-12470048D02*
X-30599297Y-12479571D01*
X-30599297Y-12479571D02*
X-30608821Y-12484333D01*
%TO.C,Q2*%
X-31632524Y-11295286D02*
X-31642048Y-11290524D01*
X-31642048Y-11290524D02*
X-31651571Y-11281000D01*
X-31651571Y-11281000D02*
X-31665857Y-11266714D01*
X-31665857Y-11266714D02*
X-31675381Y-11261952D01*
X-31675381Y-11261952D02*
X-31684905Y-11261952D01*
X-31680143Y-11285762D02*
X-31689667Y-11281000D01*
X-31689667Y-11281000D02*
X-31699190Y-11271476D01*
X-31699190Y-11271476D02*
X-31703952Y-11252428D01*
X-31703952Y-11252428D02*
X-31703952Y-11219095D01*
X-31703952Y-11219095D02*
X-31699190Y-11200048D01*
X-31699190Y-11200048D02*
X-31689667Y-11190524D01*
X-31689667Y-11190524D02*
X-31680143Y-11185762D01*
X-31680143Y-11185762D02*
X-31661095Y-11185762D01*
X-31661095Y-11185762D02*
X-31651571Y-11190524D01*
X-31651571Y-11190524D02*
X-31642048Y-11200048D01*
X-31642048Y-11200048D02*
X-31637286Y-11219095D01*
X-31637286Y-11219095D02*
X-31637286Y-11252428D01*
X-31637286Y-11252428D02*
X-31642048Y-11271476D01*
X-31642048Y-11271476D02*
X-31651571Y-11281000D01*
X-31651571Y-11281000D02*
X-31661095Y-11285762D01*
X-31661095Y-11285762D02*
X-31680143Y-11285762D01*
X-31599190Y-11195286D02*
X-31594428Y-11190524D01*
X-31594428Y-11190524D02*
X-31584905Y-11185762D01*
X-31584905Y-11185762D02*
X-31561095Y-11185762D01*
X-31561095Y-11185762D02*
X-31551571Y-11190524D01*
X-31551571Y-11190524D02*
X-31546809Y-11195286D01*
X-31546809Y-11195286D02*
X-31542048Y-11204809D01*
X-31542048Y-11204809D02*
X-31542048Y-11214333D01*
X-31542048Y-11214333D02*
X-31546809Y-11228619D01*
X-31546809Y-11228619D02*
X-31603952Y-11285762D01*
X-31603952Y-11285762D02*
X-31542048Y-11285762D01*
%TO.C,C3*%
X-36602762Y-10180667D02*
X-36598000Y-10185429D01*
X-36598000Y-10185429D02*
X-36593238Y-10199714D01*
X-36593238Y-10199714D02*
X-36593238Y-10209238D01*
X-36593238Y-10209238D02*
X-36598000Y-10223524D01*
X-36598000Y-10223524D02*
X-36607524Y-10233048D01*
X-36607524Y-10233048D02*
X-36617048Y-10237809D01*
X-36617048Y-10237809D02*
X-36636095Y-10242571D01*
X-36636095Y-10242571D02*
X-36650381Y-10242571D01*
X-36650381Y-10242571D02*
X-36669429Y-10237809D01*
X-36669429Y-10237809D02*
X-36678952Y-10233048D01*
X-36678952Y-10233048D02*
X-36688476Y-10223524D01*
X-36688476Y-10223524D02*
X-36693238Y-10209238D01*
X-36693238Y-10209238D02*
X-36693238Y-10199714D01*
X-36693238Y-10199714D02*
X-36688476Y-10185429D01*
X-36688476Y-10185429D02*
X-36683714Y-10180667D01*
X-36693238Y-10147333D02*
X-36693238Y-10085429D01*
X-36693238Y-10085429D02*
X-36655143Y-10118762D01*
X-36655143Y-10118762D02*
X-36655143Y-10104476D01*
X-36655143Y-10104476D02*
X-36650381Y-10094952D01*
X-36650381Y-10094952D02*
X-36645619Y-10090190D01*
X-36645619Y-10090190D02*
X-36636095Y-10085429D01*
X-36636095Y-10085429D02*
X-36612286Y-10085429D01*
X-36612286Y-10085429D02*
X-36602762Y-10090190D01*
X-36602762Y-10090190D02*
X-36598000Y-10094952D01*
X-36598000Y-10094952D02*
X-36593238Y-10104476D01*
X-36593238Y-10104476D02*
X-36593238Y-10133048D01*
X-36593238Y-10133048D02*
X-36598000Y-10142571D01*
X-36598000Y-10142571D02*
X-36602762Y-10147333D01*
%TO.C,R6*%
X-37735667Y-9698262D02*
X-37769000Y-9650643D01*
X-37792809Y-9698262D02*
X-37792809Y-9598262D01*
X-37792809Y-9598262D02*
X-37754714Y-9598262D01*
X-37754714Y-9598262D02*
X-37745190Y-9603024D01*
X-37745190Y-9603024D02*
X-37740429Y-9607786D01*
X-37740429Y-9607786D02*
X-37735667Y-9617310D01*
X-37735667Y-9617310D02*
X-37735667Y-9631595D01*
X-37735667Y-9631595D02*
X-37740429Y-9641119D01*
X-37740429Y-9641119D02*
X-37745190Y-9645881D01*
X-37745190Y-9645881D02*
X-37754714Y-9650643D01*
X-37754714Y-9650643D02*
X-37792809Y-9650643D01*
X-37649952Y-9598262D02*
X-37669000Y-9598262D01*
X-37669000Y-9598262D02*
X-37678524Y-9603024D01*
X-37678524Y-9603024D02*
X-37683286Y-9607786D01*
X-37683286Y-9607786D02*
X-37692809Y-9622071D01*
X-37692809Y-9622071D02*
X-37697571Y-9641119D01*
X-37697571Y-9641119D02*
X-37697571Y-9679214D01*
X-37697571Y-9679214D02*
X-37692809Y-9688738D01*
X-37692809Y-9688738D02*
X-37688048Y-9693500D01*
X-37688048Y-9693500D02*
X-37678524Y-9698262D01*
X-37678524Y-9698262D02*
X-37659476Y-9698262D01*
X-37659476Y-9698262D02*
X-37649952Y-9693500D01*
X-37649952Y-9693500D02*
X-37645190Y-9688738D01*
X-37645190Y-9688738D02*
X-37640429Y-9679214D01*
X-37640429Y-9679214D02*
X-37640429Y-9655405D01*
X-37640429Y-9655405D02*
X-37645190Y-9645881D01*
X-37645190Y-9645881D02*
X-37649952Y-9641119D01*
X-37649952Y-9641119D02*
X-37659476Y-9636357D01*
X-37659476Y-9636357D02*
X-37678524Y-9636357D01*
X-37678524Y-9636357D02*
X-37688048Y-9641119D01*
X-37688048Y-9641119D02*
X-37692809Y-9645881D01*
X-37692809Y-9645881D02*
X-37697571Y-9655405D01*
%TO.C,U5*%
X-31254690Y-9217262D02*
X-31254690Y-9298214D01*
X-31254690Y-9298214D02*
X-31249928Y-9307738D01*
X-31249928Y-9307738D02*
X-31245167Y-9312500D01*
X-31245167Y-9312500D02*
X-31235643Y-9317262D01*
X-31235643Y-9317262D02*
X-31216595Y-9317262D01*
X-31216595Y-9317262D02*
X-31207071Y-9312500D01*
X-31207071Y-9312500D02*
X-31202309Y-9307738D01*
X-31202309Y-9307738D02*
X-31197548Y-9298214D01*
X-31197548Y-9298214D02*
X-31197548Y-9217262D01*
X-31102309Y-9217262D02*
X-31149928Y-9217262D01*
X-31149928Y-9217262D02*
X-31154690Y-9264881D01*
X-31154690Y-9264881D02*
X-31149928Y-9260119D01*
X-31149928Y-9260119D02*
X-31140405Y-9255357D01*
X-31140405Y-9255357D02*
X-31116595Y-9255357D01*
X-31116595Y-9255357D02*
X-31107071Y-9260119D01*
X-31107071Y-9260119D02*
X-31102309Y-9264881D01*
X-31102309Y-9264881D02*
X-31097548Y-9274405D01*
X-31097548Y-9274405D02*
X-31097548Y-9298214D01*
X-31097548Y-9298214D02*
X-31102309Y-9307738D01*
X-31102309Y-9307738D02*
X-31107071Y-9312500D01*
X-31107071Y-9312500D02*
X-31116595Y-9317262D01*
X-31116595Y-9317262D02*
X-31140405Y-9317262D01*
X-31140405Y-9317262D02*
X-31149928Y-9312500D01*
X-31149928Y-9312500D02*
X-31154690Y-9307738D01*
%TO.C,Q1*%
X-32204024Y-11295286D02*
X-32213548Y-11290524D01*
X-32213548Y-11290524D02*
X-32223071Y-11281000D01*
X-32223071Y-11281000D02*
X-32237357Y-11266714D01*
X-32237357Y-11266714D02*
X-32246881Y-11261952D01*
X-32246881Y-11261952D02*
X-32256405Y-11261952D01*
X-32251643Y-11285762D02*
X-32261167Y-11281000D01*
X-32261167Y-11281000D02*
X-32270690Y-11271476D01*
X-32270690Y-11271476D02*
X-32275452Y-11252428D01*
X-32275452Y-11252428D02*
X-32275452Y-11219095D01*
X-32275452Y-11219095D02*
X-32270690Y-11200048D01*
X-32270690Y-11200048D02*
X-32261167Y-11190524D01*
X-32261167Y-11190524D02*
X-32251643Y-11185762D01*
X-32251643Y-11185762D02*
X-32232595Y-11185762D01*
X-32232595Y-11185762D02*
X-32223071Y-11190524D01*
X-32223071Y-11190524D02*
X-32213548Y-11200048D01*
X-32213548Y-11200048D02*
X-32208786Y-11219095D01*
X-32208786Y-11219095D02*
X-32208786Y-11252428D01*
X-32208786Y-11252428D02*
X-32213548Y-11271476D01*
X-32213548Y-11271476D02*
X-32223071Y-11281000D01*
X-32223071Y-11281000D02*
X-32232595Y-11285762D01*
X-32232595Y-11285762D02*
X-32251643Y-11285762D01*
X-32113548Y-11285762D02*
X-32170690Y-11285762D01*
X-32142119Y-11285762D02*
X-32142119Y-11185762D01*
X-32142119Y-11185762D02*
X-32151643Y-11200048D01*
X-32151643Y-11200048D02*
X-32161167Y-11209571D01*
X-32161167Y-11209571D02*
X-32170690Y-11214333D01*
%TO.C,D2*%
X-31569809Y-12238262D02*
X-31569809Y-12138262D01*
X-31569809Y-12138262D02*
X-31546000Y-12138262D01*
X-31546000Y-12138262D02*
X-31531714Y-12143024D01*
X-31531714Y-12143024D02*
X-31522190Y-12152548D01*
X-31522190Y-12152548D02*
X-31517428Y-12162071D01*
X-31517428Y-12162071D02*
X-31512667Y-12181119D01*
X-31512667Y-12181119D02*
X-31512667Y-12195405D01*
X-31512667Y-12195405D02*
X-31517428Y-12214452D01*
X-31517428Y-12214452D02*
X-31522190Y-12223976D01*
X-31522190Y-12223976D02*
X-31531714Y-12233500D01*
X-31531714Y-12233500D02*
X-31546000Y-12238262D01*
X-31546000Y-12238262D02*
X-31569809Y-12238262D01*
X-31474571Y-12147786D02*
X-31469809Y-12143024D01*
X-31469809Y-12143024D02*
X-31460286Y-12138262D01*
X-31460286Y-12138262D02*
X-31436476Y-12138262D01*
X-31436476Y-12138262D02*
X-31426952Y-12143024D01*
X-31426952Y-12143024D02*
X-31422190Y-12147786D01*
X-31422190Y-12147786D02*
X-31417428Y-12157309D01*
X-31417428Y-12157309D02*
X-31417428Y-12166833D01*
X-31417428Y-12166833D02*
X-31422190Y-12181119D01*
X-31422190Y-12181119D02*
X-31479333Y-12238262D01*
X-31479333Y-12238262D02*
X-31417428Y-12238262D01*
%TO.C,R5*%
X-37735667Y-9317262D02*
X-37769000Y-9269643D01*
X-37792809Y-9317262D02*
X-37792809Y-9217262D01*
X-37792809Y-9217262D02*
X-37754714Y-9217262D01*
X-37754714Y-9217262D02*
X-37745190Y-9222024D01*
X-37745190Y-9222024D02*
X-37740429Y-9226786D01*
X-37740429Y-9226786D02*
X-37735667Y-9236310D01*
X-37735667Y-9236310D02*
X-37735667Y-9250595D01*
X-37735667Y-9250595D02*
X-37740429Y-9260119D01*
X-37740429Y-9260119D02*
X-37745190Y-9264881D01*
X-37745190Y-9264881D02*
X-37754714Y-9269643D01*
X-37754714Y-9269643D02*
X-37792809Y-9269643D01*
X-37645190Y-9217262D02*
X-37692809Y-9217262D01*
X-37692809Y-9217262D02*
X-37697571Y-9264881D01*
X-37697571Y-9264881D02*
X-37692809Y-9260119D01*
X-37692809Y-9260119D02*
X-37683286Y-9255357D01*
X-37683286Y-9255357D02*
X-37659476Y-9255357D01*
X-37659476Y-9255357D02*
X-37649952Y-9260119D01*
X-37649952Y-9260119D02*
X-37645190Y-9264881D01*
X-37645190Y-9264881D02*
X-37640429Y-9274405D01*
X-37640429Y-9274405D02*
X-37640429Y-9298214D01*
X-37640429Y-9298214D02*
X-37645190Y-9307738D01*
X-37645190Y-9307738D02*
X-37649952Y-9312500D01*
X-37649952Y-9312500D02*
X-37659476Y-9317262D01*
X-37659476Y-9317262D02*
X-37683286Y-9317262D01*
X-37683286Y-9317262D02*
X-37692809Y-9312500D01*
X-37692809Y-9312500D02*
X-37697571Y-9307738D01*
%TO.C,R3*%
X-32655667Y-12111262D02*
X-32689000Y-12063643D01*
X-32712809Y-12111262D02*
X-32712809Y-12011262D01*
X-32712809Y-12011262D02*
X-32674714Y-12011262D01*
X-32674714Y-12011262D02*
X-32665190Y-12016024D01*
X-32665190Y-12016024D02*
X-32660428Y-12020786D01*
X-32660428Y-12020786D02*
X-32655667Y-12030309D01*
X-32655667Y-12030309D02*
X-32655667Y-12044595D01*
X-32655667Y-12044595D02*
X-32660428Y-12054119D01*
X-32660428Y-12054119D02*
X-32665190Y-12058881D01*
X-32665190Y-12058881D02*
X-32674714Y-12063643D01*
X-32674714Y-12063643D02*
X-32712809Y-12063643D01*
X-32622333Y-12011262D02*
X-32560428Y-12011262D01*
X-32560428Y-12011262D02*
X-32593762Y-12049357D01*
X-32593762Y-12049357D02*
X-32579476Y-12049357D01*
X-32579476Y-12049357D02*
X-32569952Y-12054119D01*
X-32569952Y-12054119D02*
X-32565190Y-12058881D01*
X-32565190Y-12058881D02*
X-32560428Y-12068405D01*
X-32560428Y-12068405D02*
X-32560428Y-12092214D01*
X-32560428Y-12092214D02*
X-32565190Y-12101738D01*
X-32565190Y-12101738D02*
X-32569952Y-12106500D01*
X-32569952Y-12106500D02*
X-32579476Y-12111262D01*
X-32579476Y-12111262D02*
X-32608047Y-12111262D01*
X-32608047Y-12111262D02*
X-32617571Y-12106500D01*
X-32617571Y-12106500D02*
X-32622333Y-12101738D01*
%TO.C,U4*%
X-35509190Y-11058762D02*
X-35509190Y-11139714D01*
X-35509190Y-11139714D02*
X-35504429Y-11149238D01*
X-35504429Y-11149238D02*
X-35499667Y-11154000D01*
X-35499667Y-11154000D02*
X-35490143Y-11158762D01*
X-35490143Y-11158762D02*
X-35471095Y-11158762D01*
X-35471095Y-11158762D02*
X-35461571Y-11154000D01*
X-35461571Y-11154000D02*
X-35456810Y-11149238D01*
X-35456810Y-11149238D02*
X-35452048Y-11139714D01*
X-35452048Y-11139714D02*
X-35452048Y-11058762D01*
X-35361571Y-11092095D02*
X-35361571Y-11158762D01*
X-35385381Y-11054000D02*
X-35409190Y-11125429D01*
X-35409190Y-11125429D02*
X-35347286Y-11125429D01*
%TO.C,D1*%
X-32014309Y-12238262D02*
X-32014309Y-12138262D01*
X-32014309Y-12138262D02*
X-31990500Y-12138262D01*
X-31990500Y-12138262D02*
X-31976214Y-12143024D01*
X-31976214Y-12143024D02*
X-31966690Y-12152548D01*
X-31966690Y-12152548D02*
X-31961928Y-12162071D01*
X-31961928Y-12162071D02*
X-31957167Y-12181119D01*
X-31957167Y-12181119D02*
X-31957167Y-12195405D01*
X-31957167Y-12195405D02*
X-31961928Y-12214452D01*
X-31961928Y-12214452D02*
X-31966690Y-12223976D01*
X-31966690Y-12223976D02*
X-31976214Y-12233500D01*
X-31976214Y-12233500D02*
X-31990500Y-12238262D01*
X-31990500Y-12238262D02*
X-32014309Y-12238262D01*
X-31861928Y-12238262D02*
X-31919071Y-12238262D01*
X-31890500Y-12238262D02*
X-31890500Y-12138262D01*
X-31890500Y-12138262D02*
X-31900024Y-12152548D01*
X-31900024Y-12152548D02*
X-31909547Y-12162071D01*
X-31909547Y-12162071D02*
X-31919071Y-12166833D01*
%TO.C,U3*%
X-36334690Y-12519262D02*
X-36334690Y-12600214D01*
X-36334690Y-12600214D02*
X-36329929Y-12609738D01*
X-36329929Y-12609738D02*
X-36325167Y-12614500D01*
X-36325167Y-12614500D02*
X-36315643Y-12619262D01*
X-36315643Y-12619262D02*
X-36296595Y-12619262D01*
X-36296595Y-12619262D02*
X-36287071Y-12614500D01*
X-36287071Y-12614500D02*
X-36282310Y-12609738D01*
X-36282310Y-12609738D02*
X-36277548Y-12600214D01*
X-36277548Y-12600214D02*
X-36277548Y-12519262D01*
X-36239452Y-12519262D02*
X-36177548Y-12519262D01*
X-36177548Y-12519262D02*
X-36210881Y-12557357D01*
X-36210881Y-12557357D02*
X-36196595Y-12557357D01*
X-36196595Y-12557357D02*
X-36187071Y-12562119D01*
X-36187071Y-12562119D02*
X-36182310Y-12566881D01*
X-36182310Y-12566881D02*
X-36177548Y-12576405D01*
X-36177548Y-12576405D02*
X-36177548Y-12600214D01*
X-36177548Y-12600214D02*
X-36182310Y-12609738D01*
X-36182310Y-12609738D02*
X-36187071Y-12614500D01*
X-36187071Y-12614500D02*
X-36196595Y-12619262D01*
X-36196595Y-12619262D02*
X-36225167Y-12619262D01*
X-36225167Y-12619262D02*
X-36234690Y-12614500D01*
X-36234690Y-12614500D02*
X-36239452Y-12609738D01*
D12*
%TO.C,U2*%
X-33680400Y-12850800D02*
X-33680400Y-12596800D01*
X-33680400Y-12596800D02*
X-33375600Y-12596800D01*
X-33375600Y-12850800D02*
X-35204400Y-12850800D01*
X-35204400Y-12850800D02*
X-35204400Y-9244000D01*
X-35204400Y-9244000D02*
X-33375600Y-9244000D01*
X-33375600Y-9244000D02*
X-33375600Y-12850800D01*
X-33883600Y-11123600D02*
X-34696400Y-11123600D01*
X-34696400Y-11123600D02*
X-34696400Y-10006000D01*
X-34696400Y-10006000D02*
X-33883600Y-10006000D01*
X-33883600Y-10006000D02*
X-33883600Y-11123600D01*
X-33985200Y-12850800D02*
X-34594800Y-12850800D01*
X-34594800Y-12850800D02*
X-34594800Y-12393600D01*
X-34594800Y-12393600D02*
X-33985200Y-12393600D01*
X-33985200Y-12393600D02*
X-33985200Y-12850800D01*
%TO.C,R4*%
X-31536500Y-11684000D02*
X-31613500Y-11684000D01*
X-32344500Y-11684000D02*
X-32267500Y-11684000D01*
X-32267500Y-11547000D02*
X-32267500Y-11821000D01*
X-31613500Y-11821000D02*
X-31613500Y-11547000D01*
X-32267500Y-11821000D02*
X-31613500Y-11821000D01*
X-31613500Y-11547000D02*
X-32267500Y-11547000D01*
%TO.C,C5*%
X-31041500Y-9625875D02*
X-31041500Y-9678125D01*
X-31188500Y-9625875D02*
X-31188500Y-9678125D01*
%TO.C,R1*%
X-33043000Y-12700000D02*
X-32966000Y-12700000D01*
X-32235000Y-12700000D02*
X-32312000Y-12700000D01*
X-32312000Y-12837000D02*
X-32312000Y-12563000D01*
X-32966000Y-12563000D02*
X-32966000Y-12837000D01*
X-32312000Y-12563000D02*
X-32966000Y-12563000D01*
X-32966000Y-12837000D02*
X-32312000Y-12837000D01*
%TO.C,C4*%
X-36058000Y-11149875D02*
X-36058000Y-11202125D01*
X-36205000Y-11149875D02*
X-36205000Y-11202125D01*
%TO.C,C2*%
X-37772500Y-10137875D02*
X-37772500Y-10190125D01*
X-37919500Y-10137875D02*
X-37919500Y-10190125D01*
%TO.C,R2*%
X-32235000Y-10414000D02*
X-32312000Y-10414000D01*
X-33043000Y-10414000D02*
X-32966000Y-10414000D01*
X-32966000Y-10277000D02*
X-32966000Y-10551000D01*
X-32312000Y-10551000D02*
X-32312000Y-10277000D01*
X-32966000Y-10551000D02*
X-32312000Y-10551000D01*
X-32312000Y-10277000D02*
X-32966000Y-10277000D01*
%TO.C,U1*%
X-31134250Y-11507500D02*
X-31134250Y-11507500D01*
X-31134250Y-10657500D02*
X-30484250Y-10657500D01*
X-30484250Y-11947500D02*
X-31134250Y-11947500D01*
X-31404250Y-10998500D02*
X-31404250Y-11098500D01*
X-31134250Y-11947500D02*
X-31134250Y-11507500D01*
X-31134250Y-11097500D02*
X-31134250Y-10657500D01*
X-31265250Y-10527500D02*
X-30353250Y-10527500D01*
X-30353250Y-12077500D02*
X-31265250Y-12077500D01*
X-31265250Y-11097500D02*
X-31134250Y-11097500D01*
X-30484250Y-10657500D02*
X-30484250Y-11947500D01*
X-31304250Y-11048500D02*
X-31404250Y-10998500D01*
X-31265250Y-12077500D02*
X-31265250Y-10527500D01*
X-30353250Y-10527500D02*
X-30353250Y-12077500D01*
X-31404250Y-11098500D02*
X-31304250Y-11048500D01*
X-31134250Y-11507500D02*
X-31265250Y-11507500D01*
%TO.C,C1*%
X-30656375Y-12245500D02*
X-30604125Y-12245500D01*
X-30656375Y-12392500D02*
X-30604125Y-12392500D01*
%TO.C,Q2*%
X-31803000Y-11107000D02*
X-31443000Y-11107000D01*
X-31439152Y-11105848D02*
G75*
G03*
X-31623000Y-10662000I-183848J183848D01*
G01*
X-31623000Y-10662000D02*
G75*
G03*
X-31806848Y-11105848I0J-260000D01*
G01*
%TO.C,C3*%
X-36375500Y-10137875D02*
X-36375500Y-10190125D01*
X-36522500Y-10137875D02*
X-36522500Y-10190125D01*
%TO.C,R6*%
X-36553000Y-9652000D02*
X-36630000Y-9652000D01*
X-37361000Y-9652000D02*
X-37284000Y-9652000D01*
X-37284000Y-9515000D02*
X-37284000Y-9789000D01*
X-36630000Y-9789000D02*
X-36630000Y-9515000D01*
X-37284000Y-9789000D02*
X-36630000Y-9789000D01*
X-36630000Y-9515000D02*
X-37284000Y-9515000D01*
%TO.C,U5*%
X-33160000Y-9196000D02*
X-31356000Y-9196000D01*
X-31486000Y-9327000D02*
X-31486000Y-9977000D01*
X-32463000Y-9327000D02*
X-32463000Y-9196000D01*
X-32053000Y-9196000D02*
X-32053000Y-9327000D01*
X-31486000Y-9977000D02*
X-33030000Y-9977000D01*
X-31356000Y-10108000D02*
X-33160000Y-10108000D01*
X-31827000Y-9057000D02*
X-31927000Y-9057000D01*
X-31356000Y-9196000D02*
X-31356000Y-10108000D01*
X-33030000Y-9977000D02*
X-33030000Y-9327000D01*
X-33030000Y-9327000D02*
X-32463000Y-9327000D01*
X-32053000Y-9327000D02*
X-31486000Y-9327000D01*
X-31927000Y-9057000D02*
X-31877000Y-9157000D01*
X-32463000Y-9327000D02*
X-32463000Y-9327000D01*
X-33160000Y-10108000D02*
X-33160000Y-9196000D01*
X-31877000Y-9157000D02*
X-31827000Y-9057000D01*
%TO.C,Q1*%
X-32374500Y-11107000D02*
X-32014500Y-11107000D01*
X-32010652Y-11105848D02*
G75*
G03*
X-32194500Y-10662000I-183848J183848D01*
G01*
X-32194500Y-10662000D02*
G75*
G03*
X-32378348Y-11105848I0J-260000D01*
G01*
%TO.C,D2*%
X-31365600Y-12602000D02*
X-31350000Y-12602000D01*
X-31134000Y-12602000D02*
X-31118400Y-12602000D01*
X-31349984Y-12341887D02*
G75*
G03*
X-31350000Y-12550096I107984J-104113D01*
G01*
X-31118448Y-12602000D02*
G75*
G03*
X-31134139Y-12278767I-123552J156000D01*
G01*
X-31134000Y-12550096D02*
G75*
G03*
X-31134016Y-12341887I-108000J104096D01*
G01*
X-31349861Y-12278767D02*
G75*
G03*
X-31365551Y-12602000I107861J-167233D01*
G01*
%TO.C,R5*%
X-36553000Y-9271000D02*
X-36630000Y-9271000D01*
X-37361000Y-9271000D02*
X-37284000Y-9271000D01*
X-37284000Y-9134000D02*
X-37284000Y-9408000D01*
X-36630000Y-9408000D02*
X-36630000Y-9134000D01*
X-37284000Y-9408000D02*
X-36630000Y-9408000D01*
X-36630000Y-9134000D02*
X-37284000Y-9134000D01*
%TO.C,R3*%
X-33043000Y-12319000D02*
X-32966000Y-12319000D01*
X-32235000Y-12319000D02*
X-32312000Y-12319000D01*
X-32312000Y-12456000D02*
X-32312000Y-12182000D01*
X-32966000Y-12182000D02*
X-32966000Y-12456000D01*
X-32312000Y-12182000D02*
X-32966000Y-12182000D01*
X-32966000Y-12456000D02*
X-32312000Y-12456000D01*
%TO.C,U4*%
X-36218250Y-10935000D02*
X-36218250Y-9131000D01*
X-36087250Y-9261000D02*
X-35437250Y-9261000D01*
X-36087250Y-10238000D02*
X-36218250Y-10238000D01*
X-36218250Y-9828000D02*
X-36087250Y-9828000D01*
X-35437250Y-9261000D02*
X-35437250Y-10805000D01*
X-35306250Y-9131000D02*
X-35306250Y-10935000D01*
X-36357250Y-9602000D02*
X-36357250Y-9702000D01*
X-36218250Y-9131000D02*
X-35306250Y-9131000D01*
X-35437250Y-10805000D02*
X-36087250Y-10805000D01*
X-36087250Y-10805000D02*
X-36087250Y-10238000D01*
X-36087250Y-9828000D02*
X-36087250Y-9261000D01*
X-36357250Y-9702000D02*
X-36257250Y-9652000D01*
X-36087250Y-10238000D02*
X-36087250Y-10238000D01*
X-35306250Y-10935000D02*
X-36218250Y-10935000D01*
X-36257250Y-9652000D02*
X-36357250Y-9602000D01*
%TO.C,D1*%
X-31873600Y-12602000D02*
X-31858000Y-12602000D01*
X-31642000Y-12602000D02*
X-31626400Y-12602000D01*
X-31857984Y-12341887D02*
G75*
G03*
X-31858000Y-12550096I107984J-104113D01*
G01*
X-31626448Y-12602000D02*
G75*
G03*
X-31642139Y-12278767I-123552J156000D01*
G01*
X-31642000Y-12550096D02*
G75*
G03*
X-31642016Y-12341887I-108000J104096D01*
G01*
X-31857861Y-12278767D02*
G75*
G03*
X-31873551Y-12602000I107861J-167233D01*
G01*
D13*
%TO.C,U3*%
X-36664150Y-10925650D02*
X-37807150Y-10925650D01*
X-38061150Y-11179650D02*
X-38061150Y-12449650D01*
X-36410150Y-12449650D02*
X-36410150Y-11179650D01*
X-37819850Y-12703650D02*
X-36651450Y-12703650D01*
X-37807150Y-10925650D02*
G75*
G03*
X-38061150Y-11179650I0J-254000D01*
G01*
X-36410150Y-11179650D02*
G75*
G03*
X-36664150Y-10925650I-254000J0D01*
G01*
X-38061150Y-12449650D02*
G75*
G03*
X-37819850Y-12703650I247650J-6350D01*
G01*
X-36651450Y-12703650D02*
G75*
G03*
X-36410150Y-12449650I-6350J247650D01*
G01*
%TD*%
M02*
