%TF.GenerationSoftware,KiCad,Pcbnew,7.0.2*%
%TF.CreationDate,2023-05-16T00:00:26+02:00*%
%TF.ProjectId,PRO_MCU,50524f5f-4d43-4552-9e6b-696361645f70,rev?*%
%TF.SameCoordinates,Original*%
%TF.FileFunction,Copper,L2,Bot*%
%TF.FilePolarity,Positive*%
%FSLAX45Y45*%
G04 Gerber Fmt 4.5, Leading zero omitted, Abs format (unit mm)*
G04 Created by KiCad (PCBNEW 7.0.2) date 2023-05-16 00:00:26*
%MOMM*%
%LPD*%
G01*
G04 APERTURE LIST*
G04 Aperture macros list*
%AMRoundRect*
0 Rectangle with rounded corners*
0 $1 Rounding radius*
0 $2 $3 $4 $5 $6 $7 $8 $9 X,Y pos of 4 corners*
0 Add a 4 corners polygon primitive as box body*
4,1,4,$2,$3,$4,$5,$6,$7,$8,$9,$2,$3,0*
0 Add four circle primitives for the rounded corners*
1,1,$1+$1,$2,$3*
1,1,$1+$1,$4,$5*
1,1,$1+$1,$6,$7*
1,1,$1+$1,$8,$9*
0 Add four rect primitives between the rounded corners*
20,1,$1+$1,$2,$3,$4,$5,0*
20,1,$1+$1,$4,$5,$6,$7,0*
20,1,$1+$1,$6,$7,$8,$9,0*
20,1,$1+$1,$8,$9,$2,$3,0*%
G04 Aperture macros list end*
%TA.AperFunction,ComponentPad*%
%ADD10C,2.200000*%
%TD*%
%TA.AperFunction,ComponentPad*%
%ADD11R,1.700000X1.700000*%
%TD*%
%TA.AperFunction,ComponentPad*%
%ADD12O,1.700000X1.700000*%
%TD*%
%TA.AperFunction,ComponentPad*%
%ADD13C,1.600000*%
%TD*%
%TA.AperFunction,ComponentPad*%
%ADD14O,1.600000X1.600000*%
%TD*%
%TA.AperFunction,ComponentPad*%
%ADD15RoundRect,0.250000X-0.600000X-0.600000X0.600000X-0.600000X0.600000X0.600000X-0.600000X0.600000X0*%
%TD*%
%TA.AperFunction,ComponentPad*%
%ADD16C,1.700000*%
%TD*%
%TA.AperFunction,ComponentPad*%
%ADD17R,1.300000X1.300000*%
%TD*%
%TA.AperFunction,ComponentPad*%
%ADD18C,1.300000*%
%TD*%
%TA.AperFunction,ComponentPad*%
%ADD19RoundRect,0.250000X-0.600000X0.600000X-0.600000X-0.600000X0.600000X-0.600000X0.600000X0.600000X0*%
%TD*%
%TA.AperFunction,ComponentPad*%
%ADD20R,1.800000X1.800000*%
%TD*%
%TA.AperFunction,ComponentPad*%
%ADD21C,1.800000*%
%TD*%
%TA.AperFunction,ComponentPad*%
%ADD22C,4.000000*%
%TD*%
%TA.AperFunction,ComponentPad*%
%ADD23R,1.750000X1.750000*%
%TD*%
%TA.AperFunction,ComponentPad*%
%ADD24C,1.750000*%
%TD*%
%TA.AperFunction,Conductor*%
%ADD25C,1.600000*%
%TD*%
%TA.AperFunction,Conductor*%
%ADD26C,0.400000*%
%TD*%
G04 APERTURE END LIST*
D10*
%TO.P,Logo,*%
%TO.N,*%
X-37890000Y-12949000D03*
X-30790000Y-12949000D03*
%TD*%
D11*
%TO.P,U2,1,~{RESET}*%
%TO.N,unconnected-(U2-~{RESET}-Pad1)*%
X-33528000Y-12698400D03*
D12*
%TO.P,U2,2,3V3*%
%TO.N,+3.3V*%
X-33528000Y-12444400D03*
%TO.P,U2,3,EN*%
%TO.N,unconnected-(U2-EN-Pad3)*%
X-33528000Y-12190400D03*
%TO.P,U2,4,VHI*%
%TO.N,VDD*%
X-33528000Y-11936400D03*
%TO.P,U2,5,A0*%
%TO.N,/Valve_Ctrl*%
X-33528000Y-11682400D03*
%TO.P,U2,6,A1*%
%TO.N,/Pump_Ctrl*%
X-33528000Y-11428400D03*
%TO.P,U2,7,A2*%
%TO.N,/DC*%
X-33528000Y-11174400D03*
%TO.P,U2,8,A3*%
%TO.N,/BL*%
X-33528000Y-10920400D03*
%TO.P,U2,9,A4*%
%TO.N,/Display_RESET*%
X-33528000Y-10666400D03*
%TO.P,U2,10,A5*%
%TO.N,/CS*%
X-33528000Y-10412400D03*
%TO.P,U2,11,SCK*%
%TO.N,/SCK*%
X-33528000Y-10158400D03*
%TO.P,U2,12,MOSI*%
%TO.N,/MOSI*%
X-33528000Y-9904400D03*
%TO.P,U2,13,MISO*%
%TO.N,unconnected-(U2-MISO-Pad13)*%
X-33528000Y-9650400D03*
%TO.P,U2,14,D2*%
%TO.N,unconnected-(U2-D2-Pad14)*%
X-33528000Y-9396400D03*
%TO.P,U2,15,TX_D1*%
%TO.N,unconnected-(U2-TX_D1-Pad15)*%
X-35052000Y-9396400D03*
%TO.P,U2,16,RX_D0*%
%TO.N,unconnected-(U2-RX_D0-Pad16)*%
X-35052000Y-9650400D03*
%TO.P,U2,17,SDA*%
%TO.N,Net-(U2-SDA)*%
X-35052000Y-9904400D03*
%TO.P,U2,18,SCL*%
%TO.N,Net-(U2-SCL)*%
X-35052000Y-10158400D03*
%TO.P,U2,19,D5_5V*%
%TO.N,/Led_Red*%
X-35052000Y-10412400D03*
%TO.P,U2,20,D7*%
%TO.N,/Button_Green*%
X-35052000Y-10666400D03*
%TO.P,U2,21,D9*%
%TO.N,/Button_Red*%
X-35052000Y-10920400D03*
%TO.P,U2,22,D10*%
%TO.N,/Led_Green*%
X-35052000Y-11174400D03*
%TO.P,U2,23,D11*%
%TO.N,unconnected-(U2-D11-Pad23)*%
X-35052000Y-11428400D03*
%TO.P,U2,24,D12*%
%TO.N,/EOC*%
X-35052000Y-11682400D03*
%TO.P,U2,25,D13*%
%TO.N,/Sensor_RESET*%
X-35052000Y-11936400D03*
%TO.P,U2,26,VBUS*%
%TO.N,unconnected-(U2-VBUS-Pad26)*%
X-35052000Y-12190400D03*
%TO.P,U2,27,GND*%
%TO.N,GND*%
X-35052000Y-12444400D03*
%TO.P,U2,28,VBAT*%
%TO.N,+BATT*%
X-35052000Y-12698400D03*
%TD*%
D13*
%TO.P,R4,1*%
%TO.N,/Pump_Ctrl*%
X-32448500Y-11684000D03*
D14*
%TO.P,R4,2*%
%TO.N,Net-(Q2-G)*%
X-31432500Y-11684000D03*
%TD*%
D13*
%TO.P,R1,1*%
%TO.N,Net-(D1-A)*%
X-32131000Y-12700000D03*
D14*
%TO.P,R1,2*%
%TO.N,/Valve_Ctrl*%
X-33147000Y-12700000D03*
%TD*%
D13*
%TO.P,R2,1*%
%TO.N,/Valve_Ctrl*%
X-33147000Y-10414000D03*
D14*
%TO.P,R2,2*%
%TO.N,Net-(Q1-G)*%
X-32131000Y-10414000D03*
%TD*%
D15*
%TO.P,U1,1,P+*%
%TO.N,VDD*%
X-30936250Y-11048500D03*
D16*
%TO.P,U1,2,P-*%
%TO.N,/Pump-*%
X-30682250Y-11048500D03*
%TO.P,U1,3,V+*%
%TO.N,VDD*%
X-30936250Y-11302500D03*
%TO.P,U1,4,V-*%
%TO.N,/Valve-*%
X-30682250Y-11302500D03*
%TO.P,U1,5,BAT+*%
%TO.N,+BATT*%
X-30936250Y-11556500D03*
%TO.P,U1,6,BAT-*%
%TO.N,GND*%
X-30682250Y-11556500D03*
%TD*%
D17*
%TO.P,Q2,1,S*%
%TO.N,GND*%
X-31750000Y-10922000D03*
D18*
%TO.P,Q2,2,G*%
%TO.N,Net-(Q2-G)*%
X-31623000Y-10795000D03*
%TO.P,Q2,3,D*%
%TO.N,/Pump-*%
X-31496000Y-10922000D03*
%TD*%
D13*
%TO.P,R6,1*%
%TO.N,/Button_Red*%
X-37465000Y-9652000D03*
D14*
%TO.P,R6,2*%
%TO.N,Net-(R6-Pad2)*%
X-36449000Y-9652000D03*
%TD*%
D19*
%TO.P,U5,1,VCC*%
%TO.N,+3.3V*%
X-31877000Y-9525000D03*
D16*
%TO.P,U5,2,GND*%
%TO.N,GND*%
X-31877000Y-9779000D03*
%TO.P,U5,3,DIN*%
%TO.N,/MOSI*%
X-32131000Y-9525000D03*
%TO.P,U5,4,CLK*%
%TO.N,/SCK*%
X-32131000Y-9779000D03*
%TO.P,U5,5,CS*%
%TO.N,/CS*%
X-32385000Y-9525000D03*
%TO.P,U5,6,DC*%
%TO.N,/DC*%
X-32385000Y-9779000D03*
%TO.P,U5,7,RST*%
%TO.N,/Display_RESET*%
X-32639000Y-9525000D03*
%TO.P,U5,8,BL*%
%TO.N,/BL*%
X-32639000Y-9779000D03*
%TD*%
D17*
%TO.P,Q1,1,S*%
%TO.N,GND*%
X-32321500Y-10922000D03*
D18*
%TO.P,Q1,2,G*%
%TO.N,Net-(Q1-G)*%
X-32194500Y-10795000D03*
%TO.P,Q1,3,D*%
%TO.N,/Valve-*%
X-32067500Y-10922000D03*
%TD*%
D20*
%TO.P,D2,1,K*%
%TO.N,GND*%
X-31242000Y-12573000D03*
D21*
%TO.P,D2,2,A*%
%TO.N,Net-(D2-A)*%
X-31242000Y-12319000D03*
%TD*%
D13*
%TO.P,R5,1*%
%TO.N,/Button_Green*%
X-37465000Y-9271000D03*
D14*
%TO.P,R5,2*%
%TO.N,Net-(R5-Pad2)*%
X-36449000Y-9271000D03*
%TD*%
D13*
%TO.P,R3,1*%
%TO.N,Net-(D2-A)*%
X-32131000Y-12319000D03*
D14*
%TO.P,R3,2*%
%TO.N,/Pump_Ctrl*%
X-33147000Y-12319000D03*
%TD*%
D15*
%TO.P,U4,1,1*%
%TO.N,Net-(R5-Pad2)*%
X-35889250Y-9652000D03*
D16*
%TO.P,U4,2,2*%
%TO.N,GND*%
X-35635250Y-9652000D03*
%TO.P,U4,3,K*%
X-35889250Y-9906000D03*
%TO.P,U4,4,A*%
%TO.N,/Led_Green*%
X-35635250Y-9906000D03*
%TO.P,U4,5,1*%
%TO.N,Net-(R6-Pad2)*%
X-35889250Y-10160000D03*
%TO.P,U4,6,2*%
%TO.N,GND*%
X-35635250Y-10160000D03*
%TO.P,U4,7,K*%
X-35889250Y-10414000D03*
%TO.P,U4,8,A*%
%TO.N,/Led_Red*%
X-35635250Y-10414000D03*
%TD*%
D20*
%TO.P,D1,1,K*%
%TO.N,GND*%
X-31750000Y-12573000D03*
D21*
%TO.P,D1,2,A*%
%TO.N,Net-(D1-A)*%
X-31750000Y-12319000D03*
%TD*%
D22*
%TO.P,U3,*%
%TO.N,*%
X-37807150Y-11179650D03*
X-37807150Y-12449650D03*
D23*
%TO.P,U3,1,VIN*%
%TO.N,+3.3V*%
X-36664150Y-11052650D03*
D24*
%TO.P,U3,2,3Vo*%
%TO.N,unconnected-(U3-3Vo-Pad2)*%
X-36664150Y-11306650D03*
%TO.P,U3,3,GND*%
%TO.N,GND*%
X-36664150Y-11560650D03*
%TO.P,U3,4,SCL*%
%TO.N,Net-(U2-SCL)*%
X-36664150Y-11814650D03*
%TO.P,U3,5,SDA*%
%TO.N,Net-(U2-SDA)*%
X-36664150Y-12068650D03*
%TO.P,U3,6,EOC*%
%TO.N,/EOC*%
X-36664150Y-12322650D03*
%TO.P,U3,7,RST*%
%TO.N,/Sensor_RESET*%
X-36664150Y-12576650D03*
%TD*%
D25*
%TO.N,+3.3V*%
X-34544000Y-12954000D02*
X-34034400Y-12444400D01*
X-35560000Y-12954000D02*
X-34544000Y-12954000D01*
X-35814000Y-12700000D02*
X-35560000Y-12954000D01*
X-35814000Y-11303000D02*
X-35814000Y-12700000D01*
X-36064350Y-11052650D02*
X-35814000Y-11303000D01*
X-36664150Y-11052650D02*
X-36064350Y-11052650D01*
D26*
%TO.N,/CS*%
X-33083500Y-9967900D02*
X-33528000Y-10412400D01*
X-33083500Y-9588500D02*
X-33083500Y-9967900D01*
X-32893000Y-9398000D02*
X-33083500Y-9588500D01*
X-32512000Y-9398000D02*
X-32893000Y-9398000D01*
X-32385000Y-9525000D02*
X-32512000Y-9398000D01*
%TO.N,/Display_RESET*%
X-32829500Y-9525000D02*
X-32639000Y-9525000D01*
X-32956500Y-9652000D02*
X-32829500Y-9525000D01*
X-33337500Y-10414000D02*
X-32956500Y-10033000D01*
X-33337500Y-10604500D02*
X-33337500Y-10414000D01*
X-33399400Y-10666400D02*
X-33337500Y-10604500D01*
X-33528000Y-10666400D02*
X-33399400Y-10666400D01*
X-32956500Y-10033000D02*
X-32956500Y-9652000D01*
%TO.N,/BL*%
X-33335900Y-10920400D02*
X-32639000Y-10223500D01*
X-33528000Y-10920400D02*
X-33335900Y-10920400D01*
X-32639000Y-10223500D02*
X-32639000Y-9779000D01*
%TO.N,/DC*%
X-32385000Y-10160000D02*
X-32385000Y-9779000D01*
X-33399400Y-11174400D02*
X-32385000Y-10160000D01*
X-33528000Y-11174400D02*
X-33399400Y-11174400D01*
%TO.N,/Pump_Ctrl*%
X-32639000Y-11874500D02*
X-33147000Y-11874500D01*
X-33147000Y-11874500D02*
X-33147000Y-11938000D01*
X-33147000Y-11684000D02*
X-33147000Y-11874500D01*
X-32448500Y-11684000D02*
X-32639000Y-11874500D01*
%TO.N,Net-(Q2-G)*%
X-31623000Y-11493500D02*
X-31432500Y-11684000D01*
X-31623000Y-10795000D02*
X-31623000Y-11493500D01*
%TO.N,/Led_Green*%
X-35509850Y-10031400D02*
X-35635250Y-9906000D01*
X-34798000Y-10160000D02*
X-34926600Y-10031400D01*
X-34798000Y-10920400D02*
X-34798000Y-10160000D01*
X-35052000Y-11174400D02*
X-34798000Y-10920400D01*
X-34926600Y-10031400D02*
X-35509850Y-10031400D01*
%TO.N,/Led_Red*%
X-35635250Y-10414000D02*
X-35053600Y-10414000D01*
X-35053600Y-10414000D02*
X-35052000Y-10412400D01*
%TO.N,/Button_Red*%
X-37084000Y-9652000D02*
X-37465000Y-9652000D01*
X-36576000Y-10160000D02*
X-37084000Y-9652000D01*
X-36576000Y-10414000D02*
X-36576000Y-10160000D01*
X-36069600Y-10920400D02*
X-36576000Y-10414000D01*
X-35052000Y-10920400D02*
X-36069600Y-10920400D01*
%TO.N,/Button_Green*%
X-36322000Y-10414000D02*
X-36322000Y-10160000D01*
X-36069600Y-10666400D02*
X-36322000Y-10414000D01*
X-35052000Y-10666400D02*
X-36069600Y-10666400D01*
X-37211000Y-9271000D02*
X-36322000Y-10160000D01*
X-37465000Y-9271000D02*
X-37211000Y-9271000D01*
%TO.N,/Pump_Ctrl*%
X-33147000Y-11938000D02*
X-33147000Y-12319000D01*
X-33402600Y-11428400D02*
X-33147000Y-11684000D01*
X-33528000Y-11428400D02*
X-33402600Y-11428400D01*
%TO.N,/Valve_Ctrl*%
X-33361681Y-11682400D02*
X-33528000Y-11682400D01*
X-33274000Y-11770081D02*
X-33361681Y-11682400D01*
X-33274000Y-12573000D02*
X-33274000Y-11770081D01*
X-33147000Y-12700000D02*
X-33274000Y-12573000D01*
D25*
%TO.N,+3.3V*%
X-34034400Y-9523400D02*
X-33720400Y-9209400D01*
X-31938600Y-9209400D02*
X-31877000Y-9271000D01*
X-33720400Y-9209400D02*
X-31938600Y-9209400D01*
X-34034400Y-12444400D02*
X-34034400Y-9523400D01*
X-34034400Y-12444400D02*
X-33528000Y-12444400D01*
X-31877000Y-9271000D02*
X-31877000Y-9525000D01*
%TD*%
%TA.AperFunction,Conductor*%
%TO.N,GND*%
G36*
X-35681199Y-10180984D02*
G01*
X-35673426Y-10193080D01*
X-35662560Y-10202495D01*
X-35649482Y-10208468D01*
X-35648503Y-10208609D01*
X-35711387Y-10271493D01*
X-35703008Y-10277360D01*
X-35681599Y-10287343D01*
X-35677692Y-10288390D01*
X-35671726Y-10292027D01*
X-35668673Y-10298311D01*
X-35669502Y-10305249D01*
X-35673950Y-10310637D01*
X-35676421Y-10311930D01*
X-35681392Y-10313856D01*
X-35684514Y-10315065D01*
X-35701854Y-10325802D01*
X-35716926Y-10339542D01*
X-35729218Y-10355818D01*
X-35737932Y-10373319D01*
X-35742682Y-10378443D01*
X-35749448Y-10380185D01*
X-35756082Y-10377992D01*
X-35760478Y-10372561D01*
X-35761009Y-10371001D01*
X-35761907Y-10367651D01*
X-35771890Y-10346242D01*
X-35777757Y-10337863D01*
X-35840942Y-10401048D01*
X-35843301Y-10393016D01*
X-35851074Y-10380920D01*
X-35861940Y-10371505D01*
X-35875019Y-10365532D01*
X-35875997Y-10365391D01*
X-35813113Y-10302507D01*
X-35813113Y-10302507D01*
X-35821492Y-10296640D01*
X-35842901Y-10286657D01*
X-35846809Y-10285610D01*
X-35852775Y-10281973D01*
X-35855827Y-10275688D01*
X-35854998Y-10268751D01*
X-35850549Y-10263363D01*
X-35848079Y-10262070D01*
X-35839986Y-10258935D01*
X-35838035Y-10257727D01*
X-35822646Y-10248198D01*
X-35807574Y-10234458D01*
X-35795283Y-10218182D01*
X-35786568Y-10200681D01*
X-35781818Y-10195557D01*
X-35775052Y-10193815D01*
X-35768418Y-10196008D01*
X-35764022Y-10201439D01*
X-35763491Y-10202999D01*
X-35762593Y-10206349D01*
X-35752610Y-10227758D01*
X-35746743Y-10236137D01*
X-35683558Y-10172952D01*
X-35681199Y-10180984D01*
G37*
%TD.AperFunction*%
%TA.AperFunction,Conductor*%
G36*
X-35777757Y-9982137D02*
G01*
X-35777757Y-9982137D01*
X-35771890Y-9973758D01*
X-35761907Y-9952349D01*
X-35761009Y-9948999D01*
X-35757373Y-9943033D01*
X-35751088Y-9939980D01*
X-35744150Y-9940810D01*
X-35738763Y-9945258D01*
X-35737932Y-9946681D01*
X-35734849Y-9952872D01*
X-35729217Y-9964182D01*
X-35718135Y-9978858D01*
X-35716926Y-9980458D01*
X-35712632Y-9984373D01*
X-35701854Y-9994198D01*
X-35684514Y-10004935D01*
X-35676421Y-10008070D01*
X-35670881Y-10012327D01*
X-35668522Y-10018903D01*
X-35670093Y-10025712D01*
X-35675096Y-10030590D01*
X-35677691Y-10031610D01*
X-35681599Y-10032657D01*
X-35703008Y-10042640D01*
X-35711387Y-10048507D01*
X-35711387Y-10048507D01*
X-35648503Y-10111391D01*
X-35649482Y-10111532D01*
X-35662560Y-10117505D01*
X-35673426Y-10126920D01*
X-35681199Y-10139016D01*
X-35683558Y-10147048D01*
X-35746743Y-10083863D01*
X-35746743Y-10083863D01*
X-35752610Y-10092242D01*
X-35762593Y-10113651D01*
X-35763491Y-10117001D01*
X-35767127Y-10122967D01*
X-35773412Y-10126020D01*
X-35780349Y-10125191D01*
X-35785737Y-10120742D01*
X-35786568Y-10119319D01*
X-35795283Y-10101818D01*
X-35807574Y-10085542D01*
X-35822646Y-10071802D01*
X-35839986Y-10061065D01*
X-35848079Y-10057930D01*
X-35853619Y-10053673D01*
X-35855978Y-10047096D01*
X-35854407Y-10040288D01*
X-35849404Y-10035410D01*
X-35846808Y-10034390D01*
X-35842901Y-10033343D01*
X-35821492Y-10023360D01*
X-35813113Y-10017493D01*
X-35875997Y-9954609D01*
X-35875019Y-9954468D01*
X-35861940Y-9948495D01*
X-35851074Y-9939080D01*
X-35843301Y-9926984D01*
X-35840942Y-9918952D01*
X-35777757Y-9982137D01*
G37*
%TD.AperFunction*%
%TA.AperFunction,Conductor*%
G36*
X-35681199Y-9672984D02*
G01*
X-35673426Y-9685080D01*
X-35662560Y-9694495D01*
X-35649482Y-9700468D01*
X-35648503Y-9700609D01*
X-35711387Y-9763493D01*
X-35703008Y-9769360D01*
X-35681599Y-9779343D01*
X-35677692Y-9780390D01*
X-35671726Y-9784027D01*
X-35668673Y-9790311D01*
X-35669502Y-9797249D01*
X-35673950Y-9802637D01*
X-35676421Y-9803930D01*
X-35682588Y-9806319D01*
X-35684514Y-9807065D01*
X-35701854Y-9817802D01*
X-35716926Y-9831542D01*
X-35729218Y-9847818D01*
X-35737932Y-9865319D01*
X-35742682Y-9870443D01*
X-35749448Y-9872185D01*
X-35756082Y-9869992D01*
X-35760478Y-9864561D01*
X-35761009Y-9863001D01*
X-35761907Y-9859651D01*
X-35771890Y-9838242D01*
X-35777757Y-9829863D01*
X-35840942Y-9893048D01*
X-35843301Y-9885016D01*
X-35851074Y-9872920D01*
X-35861940Y-9863505D01*
X-35875019Y-9857532D01*
X-35875997Y-9857391D01*
X-35813113Y-9794507D01*
X-35813113Y-9794507D01*
X-35821492Y-9788640D01*
X-35828050Y-9785582D01*
X-35833294Y-9780965D01*
X-35835209Y-9774245D01*
X-35833188Y-9767557D01*
X-35827871Y-9763024D01*
X-35824135Y-9762015D01*
X-35818502Y-9761409D01*
X-35805017Y-9756380D01*
X-35793495Y-9747755D01*
X-35784870Y-9736233D01*
X-35784784Y-9736001D01*
X-35779841Y-9722748D01*
X-35779235Y-9717115D01*
X-35776561Y-9710660D01*
X-35770822Y-9706675D01*
X-35763840Y-9706425D01*
X-35757831Y-9709991D01*
X-35755668Y-9713200D01*
X-35752610Y-9719758D01*
X-35746743Y-9728137D01*
X-35683558Y-9664952D01*
X-35681199Y-9672984D01*
G37*
%TD.AperFunction*%
%TA.AperFunction,Conductor*%
G36*
X-30689697Y-9071065D02*
G01*
X-30653562Y-9072840D01*
X-30652352Y-9072959D01*
X-30616868Y-9078223D01*
X-30615675Y-9078460D01*
X-30580875Y-9087177D01*
X-30579715Y-9087529D01*
X-30545938Y-9099615D01*
X-30544816Y-9100079D01*
X-30512385Y-9115418D01*
X-30511314Y-9115991D01*
X-30480544Y-9134434D01*
X-30479535Y-9135108D01*
X-30450719Y-9156479D01*
X-30449780Y-9157249D01*
X-30423199Y-9181342D01*
X-30422342Y-9182199D01*
X-30398249Y-9208780D01*
X-30397479Y-9209719D01*
X-30376108Y-9238535D01*
X-30375433Y-9239544D01*
X-30356991Y-9270314D01*
X-30356418Y-9271385D01*
X-30341079Y-9303816D01*
X-30340615Y-9304938D01*
X-30328529Y-9338715D01*
X-30328177Y-9339875D01*
X-30322790Y-9361382D01*
X-30319460Y-9374675D01*
X-30319223Y-9375868D01*
X-30319121Y-9376558D01*
X-30313959Y-9411352D01*
X-30313840Y-9412562D01*
X-30312649Y-9436802D01*
X-30312065Y-9448697D01*
X-30312050Y-9449305D01*
X-30312050Y-12748695D01*
X-30312065Y-12749303D01*
X-30313222Y-12772858D01*
X-30313840Y-12785437D01*
X-30313959Y-12786648D01*
X-30319223Y-12822132D01*
X-30319460Y-12823325D01*
X-30321532Y-12831596D01*
X-30328177Y-12858124D01*
X-30328529Y-12859286D01*
X-30337110Y-12883267D01*
X-30340614Y-12893061D01*
X-30341080Y-12894185D01*
X-30356418Y-12926614D01*
X-30356991Y-12927687D01*
X-30375433Y-12958455D01*
X-30376109Y-12959466D01*
X-30397478Y-12988280D01*
X-30398250Y-12989220D01*
X-30422341Y-13015800D01*
X-30423200Y-13016659D01*
X-30432516Y-13025103D01*
X-30449779Y-13040750D01*
X-30450720Y-13041522D01*
X-30479533Y-13062891D01*
X-30480545Y-13063567D01*
X-30511313Y-13082008D01*
X-30512386Y-13082582D01*
X-30544815Y-13097920D01*
X-30545939Y-13098386D01*
X-30562826Y-13104428D01*
X-30579713Y-13110470D01*
X-30580877Y-13110823D01*
X-30615675Y-13119540D01*
X-30616868Y-13119777D01*
X-30652352Y-13125040D01*
X-30653563Y-13125160D01*
X-30687607Y-13126832D01*
X-30689697Y-13126935D01*
X-30690305Y-13126950D01*
X-37889695Y-13126950D01*
X-37890303Y-13126935D01*
X-37892276Y-13126838D01*
X-37926437Y-13125160D01*
X-37927648Y-13125040D01*
X-37963132Y-13119777D01*
X-37964325Y-13119540D01*
X-37999123Y-13110823D01*
X-38000287Y-13110470D01*
X-38034061Y-13098386D01*
X-38035185Y-13097920D01*
X-38067614Y-13082582D01*
X-38068687Y-13082008D01*
X-38099455Y-13063567D01*
X-38100467Y-13062891D01*
X-38129280Y-13041522D01*
X-38130221Y-13040750D01*
X-38156800Y-13016660D01*
X-38157660Y-13015799D01*
X-38181750Y-12989220D01*
X-38182522Y-12988280D01*
X-38203891Y-12959466D01*
X-38204567Y-12958455D01*
X-38210234Y-12949000D01*
X-38025566Y-12949000D01*
X-38023506Y-12972541D01*
X-38017390Y-12995366D01*
X-38007404Y-13016783D01*
X-37993850Y-13036140D01*
X-37977140Y-13052849D01*
X-37957783Y-13066403D01*
X-37936366Y-13076390D01*
X-37913541Y-13082506D01*
X-37890000Y-13084566D01*
X-37866459Y-13082506D01*
X-37864601Y-13082008D01*
X-37843634Y-13076390D01*
X-37822217Y-13066403D01*
X-37802860Y-13052849D01*
X-37786151Y-13036140D01*
X-37772597Y-13016783D01*
X-37762610Y-12995366D01*
X-37760574Y-12987770D01*
X-37756494Y-12972541D01*
X-37754434Y-12949000D01*
X-37756494Y-12925459D01*
X-37762610Y-12902634D01*
X-37772597Y-12881217D01*
X-37786151Y-12861860D01*
X-37802860Y-12845151D01*
X-37802860Y-12845150D01*
X-37822217Y-12831596D01*
X-37843634Y-12821610D01*
X-37866459Y-12815494D01*
X-37890000Y-12813434D01*
X-37913541Y-12815494D01*
X-37936366Y-12821610D01*
X-37936366Y-12821610D01*
X-37957783Y-12831596D01*
X-37977140Y-12845150D01*
X-37993850Y-12861860D01*
X-38007404Y-12881217D01*
X-38017390Y-12902634D01*
X-38023506Y-12925459D01*
X-38025566Y-12949000D01*
X-38210234Y-12949000D01*
X-38223009Y-12927687D01*
X-38223582Y-12926614D01*
X-38238920Y-12894185D01*
X-38239386Y-12893061D01*
X-38251470Y-12859287D01*
X-38251823Y-12858123D01*
X-38260540Y-12823325D01*
X-38260777Y-12822132D01*
X-38266041Y-12786648D01*
X-38266160Y-12785437D01*
X-38267935Y-12749303D01*
X-38267950Y-12748695D01*
X-38267950Y-12449650D01*
X-38032683Y-12449650D01*
X-38030753Y-12479088D01*
X-38024998Y-12508022D01*
X-38015515Y-12535958D01*
X-38002467Y-12562416D01*
X-37986077Y-12586946D01*
X-37966626Y-12609126D01*
X-37944446Y-12628577D01*
X-37919917Y-12644967D01*
X-37893458Y-12658015D01*
X-37865522Y-12667498D01*
X-37836588Y-12673253D01*
X-37807150Y-12675183D01*
X-37777712Y-12673253D01*
X-37748778Y-12667498D01*
X-37748394Y-12667368D01*
X-37748393Y-12667368D01*
X-37740403Y-12664655D01*
X-37720842Y-12658015D01*
X-37717743Y-12656487D01*
X-37694747Y-12645147D01*
X-37694747Y-12645146D01*
X-37694384Y-12644967D01*
X-37669854Y-12628577D01*
X-37647674Y-12609126D01*
X-37628223Y-12586946D01*
X-37627997Y-12586607D01*
X-37621343Y-12576650D01*
X-36777182Y-12576650D01*
X-36775658Y-12593101D01*
X-36775258Y-12597420D01*
X-36769549Y-12617482D01*
X-36760252Y-12636153D01*
X-36760252Y-12636154D01*
X-36760252Y-12636154D01*
X-36747682Y-12652799D01*
X-36732267Y-12666852D01*
X-36714533Y-12677832D01*
X-36695083Y-12685367D01*
X-36674579Y-12689200D01*
X-36674579Y-12689200D01*
X-36653721Y-12689200D01*
X-36653721Y-12689200D01*
X-36633217Y-12685367D01*
X-36613767Y-12677832D01*
X-36596033Y-12666852D01*
X-36596033Y-12666851D01*
X-36596033Y-12666851D01*
X-36580618Y-12652799D01*
X-36568048Y-12636153D01*
X-36558751Y-12617482D01*
X-36553042Y-12597420D01*
X-36551118Y-12576650D01*
X-36553042Y-12555880D01*
X-36558751Y-12535818D01*
X-36568048Y-12517146D01*
X-36580618Y-12500500D01*
X-36596033Y-12486448D01*
X-36613767Y-12475468D01*
X-36633217Y-12467933D01*
X-36646850Y-12465384D01*
X-36653721Y-12464100D01*
X-36674579Y-12464100D01*
X-36688248Y-12466655D01*
X-36695083Y-12467933D01*
X-36714533Y-12475468D01*
X-36732267Y-12486448D01*
X-36747682Y-12500500D01*
X-36760252Y-12517146D01*
X-36769549Y-12535818D01*
X-36775258Y-12555880D01*
X-36775451Y-12557971D01*
X-36777182Y-12576650D01*
X-37621343Y-12576650D01*
X-37612058Y-12562754D01*
X-37612058Y-12562753D01*
X-37611833Y-12562416D01*
X-37611654Y-12562054D01*
X-37611653Y-12562052D01*
X-37598964Y-12536322D01*
X-37598964Y-12536321D01*
X-37598785Y-12535958D01*
X-37598595Y-12535399D01*
X-37589432Y-12508407D01*
X-37589432Y-12508405D01*
X-37589302Y-12508022D01*
X-37589223Y-12507624D01*
X-37589223Y-12507624D01*
X-37583626Y-12479486D01*
X-37583626Y-12479486D01*
X-37583547Y-12479088D01*
X-37583468Y-12477887D01*
X-37581644Y-12450056D01*
X-37581617Y-12449650D01*
X-37582640Y-12434050D01*
X-37583520Y-12420617D01*
X-37583520Y-12420617D01*
X-37583547Y-12420212D01*
X-37583820Y-12418835D01*
X-37589223Y-12391676D01*
X-37589223Y-12391675D01*
X-37589302Y-12391278D01*
X-37589432Y-12390895D01*
X-37589432Y-12390893D01*
X-37598654Y-12363727D01*
X-37598654Y-12363726D01*
X-37598785Y-12363342D01*
X-37598964Y-12362979D01*
X-37598964Y-12362978D01*
X-37611653Y-12337248D01*
X-37611654Y-12337246D01*
X-37611833Y-12336884D01*
X-37612058Y-12336547D01*
X-37612058Y-12336546D01*
X-37621343Y-12322650D01*
X-36777182Y-12322650D01*
X-36775553Y-12340231D01*
X-36775258Y-12343420D01*
X-36769549Y-12363482D01*
X-36760252Y-12382153D01*
X-36760252Y-12382154D01*
X-36760252Y-12382154D01*
X-36747682Y-12398799D01*
X-36732267Y-12412852D01*
X-36714533Y-12423832D01*
X-36695083Y-12431367D01*
X-36674579Y-12435200D01*
X-36674579Y-12435200D01*
X-36653721Y-12435200D01*
X-36653721Y-12435200D01*
X-36633217Y-12431367D01*
X-36613767Y-12423832D01*
X-36596033Y-12412852D01*
X-36596033Y-12412851D01*
X-36596033Y-12412851D01*
X-36580618Y-12398799D01*
X-36568048Y-12382153D01*
X-36558751Y-12363482D01*
X-36553042Y-12343420D01*
X-36551118Y-12322650D01*
X-36553042Y-12301880D01*
X-36558751Y-12281818D01*
X-36568048Y-12263146D01*
X-36580618Y-12246500D01*
X-36596033Y-12232448D01*
X-36613767Y-12221468D01*
X-36633217Y-12213933D01*
X-36643469Y-12212016D01*
X-36653721Y-12210100D01*
X-36674579Y-12210100D01*
X-36688248Y-12212655D01*
X-36695083Y-12213933D01*
X-36714533Y-12221468D01*
X-36732267Y-12232448D01*
X-36747682Y-12246500D01*
X-36760252Y-12263146D01*
X-36769549Y-12281818D01*
X-36775258Y-12301880D01*
X-36775258Y-12301880D01*
X-36777182Y-12322650D01*
X-37621343Y-12322650D01*
X-37627997Y-12312692D01*
X-37627997Y-12312691D01*
X-37628223Y-12312354D01*
X-37628490Y-12312049D01*
X-37628491Y-12312048D01*
X-37647407Y-12290479D01*
X-37647408Y-12290478D01*
X-37647674Y-12290174D01*
X-37647978Y-12289907D01*
X-37647979Y-12289907D01*
X-37669549Y-12270991D01*
X-37669549Y-12270990D01*
X-37669854Y-12270723D01*
X-37670192Y-12270497D01*
X-37670192Y-12270497D01*
X-37694046Y-12254558D01*
X-37694047Y-12254557D01*
X-37694384Y-12254333D01*
X-37694746Y-12254154D01*
X-37694747Y-12254153D01*
X-37720478Y-12241464D01*
X-37720479Y-12241464D01*
X-37720842Y-12241285D01*
X-37721226Y-12241154D01*
X-37721227Y-12241154D01*
X-37748393Y-12231932D01*
X-37748395Y-12231932D01*
X-37748778Y-12231802D01*
X-37749175Y-12231723D01*
X-37749176Y-12231723D01*
X-37777314Y-12226126D01*
X-37777314Y-12226126D01*
X-37777712Y-12226047D01*
X-37778117Y-12226020D01*
X-37778117Y-12226020D01*
X-37806744Y-12224144D01*
X-37807150Y-12224117D01*
X-37807556Y-12224144D01*
X-37836183Y-12226020D01*
X-37836183Y-12226020D01*
X-37836588Y-12226047D01*
X-37836986Y-12226126D01*
X-37836986Y-12226126D01*
X-37865124Y-12231723D01*
X-37865125Y-12231723D01*
X-37865522Y-12231802D01*
X-37865905Y-12231932D01*
X-37865907Y-12231932D01*
X-37893073Y-12241154D01*
X-37893458Y-12241285D01*
X-37893822Y-12241464D01*
X-37893822Y-12241464D01*
X-37919552Y-12254153D01*
X-37919553Y-12254153D01*
X-37919916Y-12254333D01*
X-37920253Y-12254558D01*
X-37920254Y-12254558D01*
X-37944108Y-12270497D01*
X-37944446Y-12270723D01*
X-37966626Y-12290174D01*
X-37986077Y-12312354D01*
X-37989219Y-12317057D01*
X-37999272Y-12332101D01*
X-38002467Y-12336884D01*
X-38015515Y-12363342D01*
X-38021110Y-12379825D01*
X-38023281Y-12386218D01*
X-38024998Y-12391278D01*
X-38030753Y-12420212D01*
X-38032683Y-12449650D01*
X-38267950Y-12449650D01*
X-38267950Y-11811000D01*
X-37703551Y-11811000D01*
X-37701547Y-11853067D01*
X-37695554Y-11894753D01*
X-37685625Y-11935681D01*
X-37671850Y-11975480D01*
X-37654355Y-12013789D01*
X-37633298Y-12050261D01*
X-37608869Y-12084567D01*
X-37581289Y-12116395D01*
X-37550810Y-12145458D01*
X-37517705Y-12171492D01*
X-37482276Y-12194261D01*
X-37444843Y-12213559D01*
X-37405744Y-12229211D01*
X-37365335Y-12241076D01*
X-37323982Y-12249047D01*
X-37282057Y-12253050D01*
X-37281762Y-12253050D01*
X-37240238Y-12253050D01*
X-37239943Y-12253050D01*
X-37198018Y-12249047D01*
X-37156665Y-12241076D01*
X-37116256Y-12229211D01*
X-37077158Y-12213559D01*
X-37039724Y-12194261D01*
X-37004295Y-12171492D01*
X-37002515Y-12170092D01*
X-36971423Y-12145641D01*
X-36971423Y-12145641D01*
X-36971191Y-12145458D01*
X-36953042Y-12128153D01*
X-36940923Y-12116598D01*
X-36940922Y-12116597D01*
X-36940711Y-12116395D01*
X-36919108Y-12091465D01*
X-36913324Y-12084790D01*
X-36913323Y-12084789D01*
X-36913131Y-12084567D01*
X-36912797Y-12084098D01*
X-36901797Y-12068650D01*
X-36777182Y-12068650D01*
X-36775687Y-12084790D01*
X-36775258Y-12089420D01*
X-36769549Y-12109482D01*
X-36760252Y-12128153D01*
X-36747682Y-12144799D01*
X-36746959Y-12145458D01*
X-36732267Y-12158852D01*
X-36714533Y-12169832D01*
X-36695083Y-12177367D01*
X-36674579Y-12181200D01*
X-36674579Y-12181200D01*
X-36653721Y-12181200D01*
X-36653721Y-12181200D01*
X-36633217Y-12177367D01*
X-36613767Y-12169832D01*
X-36596033Y-12158852D01*
X-36596033Y-12158851D01*
X-36596033Y-12158851D01*
X-36580618Y-12144799D01*
X-36568048Y-12128153D01*
X-36558751Y-12109482D01*
X-36553042Y-12089420D01*
X-36551118Y-12068650D01*
X-36553042Y-12047880D01*
X-36558751Y-12027818D01*
X-36568048Y-12009146D01*
X-36580618Y-11992500D01*
X-36596033Y-11978448D01*
X-36613767Y-11967468D01*
X-36633217Y-11959933D01*
X-36643469Y-11958016D01*
X-36653721Y-11956100D01*
X-36674579Y-11956100D01*
X-36688248Y-11958655D01*
X-36695083Y-11959933D01*
X-36714533Y-11967468D01*
X-36732267Y-11978448D01*
X-36747682Y-11992500D01*
X-36760252Y-12009146D01*
X-36769549Y-12027818D01*
X-36775258Y-12047880D01*
X-36775258Y-12047880D01*
X-36777182Y-12068650D01*
X-36901797Y-12068650D01*
X-36888874Y-12050502D01*
X-36888702Y-12050261D01*
X-36884338Y-12042702D01*
X-36867793Y-12014045D01*
X-36867645Y-12013789D01*
X-36866306Y-12010858D01*
X-36850536Y-11976325D01*
X-36850150Y-11975480D01*
X-36836375Y-11935681D01*
X-36836306Y-11935397D01*
X-36836306Y-11935396D01*
X-36826516Y-11895040D01*
X-36826516Y-11895039D01*
X-36826446Y-11894753D01*
X-36825878Y-11890799D01*
X-36820494Y-11853358D01*
X-36820494Y-11853357D01*
X-36820453Y-11853067D01*
X-36818449Y-11811000D01*
X-36819853Y-11781523D01*
X-36820439Y-11769226D01*
X-36820439Y-11769226D01*
X-36820453Y-11768933D01*
X-36820494Y-11768643D01*
X-36820494Y-11768641D01*
X-36826404Y-11727539D01*
X-36826404Y-11727538D01*
X-36826446Y-11727247D01*
X-36826516Y-11726961D01*
X-36826516Y-11726959D01*
X-36836306Y-11686604D01*
X-36836306Y-11686602D01*
X-36836375Y-11686319D01*
X-36836542Y-11685838D01*
X-36850053Y-11646799D01*
X-36850053Y-11646799D01*
X-36850150Y-11646520D01*
X-36850982Y-11644698D01*
X-36867521Y-11608481D01*
X-36867522Y-11608480D01*
X-36867645Y-11608211D01*
X-36869239Y-11605449D01*
X-36888554Y-11571995D01*
X-36888555Y-11571994D01*
X-36888702Y-11571739D01*
X-36896598Y-11560650D01*
X-36896599Y-11560650D01*
X-36802121Y-11560650D01*
X-36800240Y-11583359D01*
X-36794645Y-11605449D01*
X-36785492Y-11626317D01*
X-36777462Y-11638607D01*
X-36712458Y-11573602D01*
X-36710099Y-11581634D01*
X-36702326Y-11593730D01*
X-36691460Y-11603145D01*
X-36678382Y-11609118D01*
X-36677403Y-11609259D01*
X-36742248Y-11674104D01*
X-36742248Y-11674104D01*
X-36739613Y-11676155D01*
X-36719573Y-11687000D01*
X-36712794Y-11689327D01*
X-36707092Y-11693366D01*
X-36704479Y-11699846D01*
X-36705784Y-11706710D01*
X-36710593Y-11711779D01*
X-36712340Y-11712618D01*
X-36714533Y-11713467D01*
X-36732267Y-11724448D01*
X-36747682Y-11738500D01*
X-36760252Y-11755146D01*
X-36769549Y-11773818D01*
X-36775258Y-11793880D01*
X-36775258Y-11793880D01*
X-36777182Y-11814650D01*
X-36775537Y-11832408D01*
X-36775258Y-11835420D01*
X-36769549Y-11855482D01*
X-36760252Y-11874153D01*
X-36760252Y-11874154D01*
X-36760252Y-11874154D01*
X-36747682Y-11890799D01*
X-36732267Y-11904852D01*
X-36714533Y-11915832D01*
X-36695083Y-11923367D01*
X-36674579Y-11927200D01*
X-36674579Y-11927200D01*
X-36653721Y-11927200D01*
X-36653721Y-11927200D01*
X-36633217Y-11923367D01*
X-36613767Y-11915832D01*
X-36596033Y-11904852D01*
X-36596033Y-11904851D01*
X-36596033Y-11904851D01*
X-36580618Y-11890799D01*
X-36568048Y-11874153D01*
X-36558751Y-11855482D01*
X-36553042Y-11835420D01*
X-36551118Y-11814650D01*
X-36553042Y-11793880D01*
X-36558751Y-11773818D01*
X-36568048Y-11755146D01*
X-36580618Y-11738500D01*
X-36596033Y-11724448D01*
X-36613767Y-11713468D01*
X-36615960Y-11712618D01*
X-36621500Y-11708361D01*
X-36623859Y-11701784D01*
X-36622288Y-11694976D01*
X-36617285Y-11690098D01*
X-36615506Y-11689327D01*
X-36608728Y-11687000D01*
X-36588687Y-11676155D01*
X-36586052Y-11674104D01*
X-36586052Y-11674104D01*
X-36650897Y-11609259D01*
X-36649919Y-11609118D01*
X-36636840Y-11603145D01*
X-36625974Y-11593730D01*
X-36618201Y-11581634D01*
X-36615842Y-11573602D01*
X-36550837Y-11638607D01*
X-36542808Y-11626317D01*
X-36533655Y-11605449D01*
X-36528060Y-11583359D01*
X-36526179Y-11560650D01*
X-36528060Y-11537941D01*
X-36533655Y-11515850D01*
X-36542808Y-11494983D01*
X-36550837Y-11482693D01*
X-36615842Y-11547698D01*
X-36618201Y-11539666D01*
X-36625974Y-11527570D01*
X-36636840Y-11518155D01*
X-36649919Y-11512182D01*
X-36650897Y-11512041D01*
X-36586052Y-11447196D01*
X-36586052Y-11447196D01*
X-36588687Y-11445145D01*
X-36608728Y-11434300D01*
X-36615507Y-11431972D01*
X-36621208Y-11427934D01*
X-36623821Y-11421454D01*
X-36622516Y-11414590D01*
X-36617707Y-11409521D01*
X-36615960Y-11408682D01*
X-36613767Y-11407832D01*
X-36609488Y-11405183D01*
X-36596033Y-11396852D01*
X-36596033Y-11396851D01*
X-36596033Y-11396851D01*
X-36580618Y-11382799D01*
X-36568048Y-11366153D01*
X-36558751Y-11347482D01*
X-36553042Y-11327420D01*
X-36551118Y-11306650D01*
X-36553042Y-11285880D01*
X-36558751Y-11265818D01*
X-36568048Y-11247146D01*
X-36580618Y-11230500D01*
X-36596033Y-11216448D01*
X-36613767Y-11205468D01*
X-36633217Y-11197933D01*
X-36643469Y-11196016D01*
X-36653721Y-11194100D01*
X-36674579Y-11194100D01*
X-36685801Y-11196198D01*
X-36695083Y-11197933D01*
X-36714533Y-11205468D01*
X-36732267Y-11216448D01*
X-36747682Y-11230500D01*
X-36760252Y-11247146D01*
X-36769549Y-11265818D01*
X-36775258Y-11285880D01*
X-36775258Y-11285880D01*
X-36777182Y-11306650D01*
X-36775685Y-11322808D01*
X-36775258Y-11327420D01*
X-36769549Y-11347482D01*
X-36760252Y-11366153D01*
X-36760252Y-11366154D01*
X-36760252Y-11366154D01*
X-36747682Y-11382799D01*
X-36732267Y-11396852D01*
X-36714533Y-11407832D01*
X-36712340Y-11408682D01*
X-36706800Y-11412939D01*
X-36704441Y-11419515D01*
X-36706012Y-11426323D01*
X-36711014Y-11431201D01*
X-36712793Y-11431972D01*
X-36719572Y-11434300D01*
X-36739613Y-11445145D01*
X-36742248Y-11447196D01*
X-36742248Y-11447196D01*
X-36677403Y-11512041D01*
X-36678382Y-11512182D01*
X-36691460Y-11518155D01*
X-36702326Y-11527570D01*
X-36710099Y-11539666D01*
X-36712458Y-11547697D01*
X-36777463Y-11482693D01*
X-36785492Y-11494983D01*
X-36794645Y-11515850D01*
X-36800240Y-11537941D01*
X-36802121Y-11560650D01*
X-36896599Y-11560650D01*
X-36912960Y-11537673D01*
X-36912961Y-11537672D01*
X-36913131Y-11537433D01*
X-36913322Y-11537212D01*
X-36913324Y-11537210D01*
X-36940518Y-11505826D01*
X-36940518Y-11505826D01*
X-36940711Y-11505605D01*
X-36940921Y-11505404D01*
X-36940923Y-11505402D01*
X-36970976Y-11476746D01*
X-36970977Y-11476746D01*
X-36971191Y-11476542D01*
X-36971422Y-11476360D01*
X-36971423Y-11476359D01*
X-37004064Y-11450690D01*
X-37004065Y-11450689D01*
X-37004295Y-11450508D01*
X-37004541Y-11450350D01*
X-37004543Y-11450349D01*
X-37039476Y-11427899D01*
X-37039477Y-11427898D01*
X-37039724Y-11427739D01*
X-37039986Y-11427604D01*
X-37039987Y-11427604D01*
X-37076895Y-11408576D01*
X-37076895Y-11408576D01*
X-37077158Y-11408441D01*
X-37077431Y-11408332D01*
X-37077432Y-11408331D01*
X-37115983Y-11392898D01*
X-37115983Y-11392898D01*
X-37116256Y-11392789D01*
X-37116538Y-11392706D01*
X-37116538Y-11392706D01*
X-37156381Y-11381007D01*
X-37156383Y-11381006D01*
X-37156665Y-11380923D01*
X-37156954Y-11380868D01*
X-37156955Y-11380867D01*
X-37197728Y-11373009D01*
X-37197729Y-11373009D01*
X-37198018Y-11372953D01*
X-37198310Y-11372925D01*
X-37198312Y-11372925D01*
X-37239649Y-11368978D01*
X-37239650Y-11368978D01*
X-37239943Y-11368950D01*
X-37282057Y-11368950D01*
X-37282350Y-11368978D01*
X-37282351Y-11368978D01*
X-37323688Y-11372925D01*
X-37323690Y-11372925D01*
X-37323982Y-11372953D01*
X-37324271Y-11373009D01*
X-37324272Y-11373009D01*
X-37365045Y-11380867D01*
X-37365046Y-11380868D01*
X-37365335Y-11380923D01*
X-37365618Y-11381006D01*
X-37365619Y-11381007D01*
X-37398625Y-11390698D01*
X-37405744Y-11392789D01*
X-37444843Y-11408441D01*
X-37482276Y-11427739D01*
X-37482524Y-11427899D01*
X-37482524Y-11427899D01*
X-37517457Y-11450349D01*
X-37517458Y-11450349D01*
X-37517705Y-11450508D01*
X-37517936Y-11450690D01*
X-37517936Y-11450690D01*
X-37550577Y-11476359D01*
X-37550577Y-11476359D01*
X-37550810Y-11476542D01*
X-37559382Y-11484716D01*
X-37581077Y-11505402D01*
X-37581078Y-11505403D01*
X-37581289Y-11505605D01*
X-37593510Y-11519708D01*
X-37608676Y-11537210D01*
X-37608677Y-11537211D01*
X-37608869Y-11537433D01*
X-37633298Y-11571739D01*
X-37654355Y-11608211D01*
X-37671850Y-11646520D01*
X-37685625Y-11686319D01*
X-37695554Y-11727247D01*
X-37701547Y-11768933D01*
X-37703551Y-11811000D01*
X-38267950Y-11811000D01*
X-38267950Y-11179650D01*
X-38032683Y-11179650D01*
X-38030753Y-11209088D01*
X-38024998Y-11238022D01*
X-38015515Y-11265958D01*
X-38002467Y-11292416D01*
X-37986077Y-11316946D01*
X-37966626Y-11339126D01*
X-37944446Y-11358577D01*
X-37919917Y-11374967D01*
X-37893458Y-11388015D01*
X-37865522Y-11397498D01*
X-37836588Y-11403253D01*
X-37807150Y-11405183D01*
X-37777712Y-11403253D01*
X-37748778Y-11397498D01*
X-37748394Y-11397368D01*
X-37748393Y-11397368D01*
X-37734660Y-11392706D01*
X-37720842Y-11388015D01*
X-37711558Y-11383437D01*
X-37694747Y-11375147D01*
X-37694747Y-11375146D01*
X-37694384Y-11374967D01*
X-37669854Y-11358577D01*
X-37647674Y-11339126D01*
X-37628223Y-11316946D01*
X-37627940Y-11316522D01*
X-37612058Y-11292754D01*
X-37612058Y-11292753D01*
X-37611833Y-11292416D01*
X-37611654Y-11292054D01*
X-37611653Y-11292052D01*
X-37598964Y-11266322D01*
X-37598964Y-11266321D01*
X-37598785Y-11265958D01*
X-37598654Y-11265573D01*
X-37589432Y-11238407D01*
X-37589432Y-11238405D01*
X-37589302Y-11238022D01*
X-37589223Y-11237624D01*
X-37589223Y-11237624D01*
X-37583626Y-11209486D01*
X-37583626Y-11209486D01*
X-37583547Y-11209088D01*
X-37583108Y-11202396D01*
X-37581644Y-11180056D01*
X-37581617Y-11179650D01*
X-37582660Y-11163747D01*
X-37583520Y-11150617D01*
X-37583520Y-11150617D01*
X-37583547Y-11150212D01*
X-37585057Y-11142617D01*
X-37589223Y-11121676D01*
X-37589223Y-11121675D01*
X-37589302Y-11121278D01*
X-37589432Y-11120895D01*
X-37589432Y-11120893D01*
X-37598654Y-11093727D01*
X-37598654Y-11093726D01*
X-37598785Y-11093342D01*
X-37598964Y-11092979D01*
X-37598964Y-11092978D01*
X-37611653Y-11067248D01*
X-37611654Y-11067246D01*
X-37611833Y-11066884D01*
X-37612058Y-11066547D01*
X-37612058Y-11066546D01*
X-37627997Y-11042692D01*
X-37627997Y-11042691D01*
X-37628223Y-11042354D01*
X-37628490Y-11042049D01*
X-37628491Y-11042049D01*
X-37647407Y-11020479D01*
X-37647408Y-11020478D01*
X-37647674Y-11020174D01*
X-37647978Y-11019908D01*
X-37647979Y-11019907D01*
X-37669549Y-11000991D01*
X-37669549Y-11000990D01*
X-37669854Y-11000723D01*
X-37670192Y-11000497D01*
X-37670192Y-11000497D01*
X-37694046Y-10984558D01*
X-37694047Y-10984557D01*
X-37694384Y-10984333D01*
X-37694746Y-10984154D01*
X-37694747Y-10984153D01*
X-37720478Y-10971464D01*
X-37720479Y-10971464D01*
X-37720842Y-10971285D01*
X-37721226Y-10971154D01*
X-37721227Y-10971154D01*
X-37748393Y-10961932D01*
X-37748395Y-10961932D01*
X-37748778Y-10961802D01*
X-37749175Y-10961723D01*
X-37749176Y-10961723D01*
X-37777314Y-10956126D01*
X-37777314Y-10956126D01*
X-37777712Y-10956047D01*
X-37778117Y-10956020D01*
X-37778117Y-10956020D01*
X-37806744Y-10954144D01*
X-37807150Y-10954117D01*
X-37807556Y-10954144D01*
X-37836183Y-10956020D01*
X-37836183Y-10956020D01*
X-37836588Y-10956047D01*
X-37836986Y-10956126D01*
X-37836986Y-10956126D01*
X-37865124Y-10961723D01*
X-37865125Y-10961723D01*
X-37865522Y-10961802D01*
X-37865905Y-10961932D01*
X-37865907Y-10961932D01*
X-37893073Y-10971154D01*
X-37893458Y-10971285D01*
X-37893822Y-10971464D01*
X-37893822Y-10971464D01*
X-37919552Y-10984153D01*
X-37919553Y-10984154D01*
X-37919916Y-10984333D01*
X-37920253Y-10984558D01*
X-37920254Y-10984558D01*
X-37944108Y-11000497D01*
X-37944446Y-11000723D01*
X-37966626Y-11020174D01*
X-37986077Y-11042354D01*
X-37986303Y-11042692D01*
X-38001764Y-11065832D01*
X-38002467Y-11066884D01*
X-38015515Y-11093342D01*
X-38017756Y-11099942D01*
X-38023281Y-11116218D01*
X-38024998Y-11121278D01*
X-38030753Y-11150212D01*
X-38032683Y-11179650D01*
X-38267950Y-11179650D01*
X-38267950Y-10249000D01*
X-37562547Y-10249000D01*
X-37560560Y-10281852D01*
X-37554628Y-10314225D01*
X-37544836Y-10345647D01*
X-37531329Y-10375659D01*
X-37514302Y-10403825D01*
X-37494005Y-10429732D01*
X-37470732Y-10453005D01*
X-37444825Y-10473302D01*
X-37416659Y-10490329D01*
X-37386647Y-10503836D01*
X-37355225Y-10513628D01*
X-37322852Y-10519560D01*
X-37290000Y-10521547D01*
X-37257148Y-10519560D01*
X-37224775Y-10513628D01*
X-37193353Y-10503836D01*
X-37163341Y-10490329D01*
X-37160549Y-10488641D01*
X-37135496Y-10473496D01*
X-37135496Y-10473496D01*
X-37135176Y-10473302D01*
X-37111043Y-10454396D01*
X-37109563Y-10453236D01*
X-37109563Y-10453236D01*
X-37109268Y-10453005D01*
X-37085996Y-10429732D01*
X-37085040Y-10428513D01*
X-37067878Y-10406607D01*
X-37065698Y-10403825D01*
X-37065505Y-10403505D01*
X-37065504Y-10403504D01*
X-37048865Y-10375980D01*
X-37048865Y-10375979D01*
X-37048671Y-10375659D01*
X-37035164Y-10345647D01*
X-37029114Y-10326231D01*
X-37025484Y-10314583D01*
X-37025484Y-10314583D01*
X-37025373Y-10314225D01*
X-37025305Y-10313857D01*
X-37025305Y-10313856D01*
X-37019508Y-10282221D01*
X-37019507Y-10282219D01*
X-37019440Y-10281852D01*
X-37019417Y-10281479D01*
X-37019417Y-10281478D01*
X-37017475Y-10249374D01*
X-37017453Y-10249000D01*
X-37018109Y-10238156D01*
X-37019417Y-10216522D01*
X-37019417Y-10216521D01*
X-37019440Y-10216148D01*
X-37019507Y-10215781D01*
X-37019508Y-10215779D01*
X-37025305Y-10184144D01*
X-37025305Y-10184143D01*
X-37025373Y-10183775D01*
X-37026442Y-10180342D01*
X-37035052Y-10152711D01*
X-37035053Y-10152711D01*
X-37035164Y-10152353D01*
X-37038114Y-10145798D01*
X-37048518Y-10122682D01*
X-37048518Y-10122682D01*
X-37048671Y-10122341D01*
X-37048864Y-10122022D01*
X-37048865Y-10122020D01*
X-37065504Y-10094496D01*
X-37065505Y-10094495D01*
X-37065698Y-10094176D01*
X-37065929Y-10093881D01*
X-37065929Y-10093881D01*
X-37085764Y-10068563D01*
X-37085765Y-10068562D01*
X-37085996Y-10068268D01*
X-37086260Y-10068003D01*
X-37086261Y-10068002D01*
X-37109002Y-10045261D01*
X-37109003Y-10045260D01*
X-37109268Y-10044996D01*
X-37109562Y-10044765D01*
X-37109563Y-10044764D01*
X-37134881Y-10024929D01*
X-37134881Y-10024929D01*
X-37135176Y-10024698D01*
X-37135495Y-10024505D01*
X-37135496Y-10024504D01*
X-37163020Y-10007865D01*
X-37163022Y-10007864D01*
X-37163341Y-10007671D01*
X-37163682Y-10007518D01*
X-37163682Y-10007518D01*
X-37193012Y-9994317D01*
X-37193013Y-9994317D01*
X-37193353Y-9994164D01*
X-37193711Y-9994053D01*
X-37193711Y-9994052D01*
X-37224417Y-9984484D01*
X-37224417Y-9984484D01*
X-37224775Y-9984373D01*
X-37225143Y-9984305D01*
X-37225144Y-9984305D01*
X-37256779Y-9978508D01*
X-37256781Y-9978507D01*
X-37257148Y-9978440D01*
X-37257521Y-9978417D01*
X-37257522Y-9978417D01*
X-37289626Y-9976475D01*
X-37290000Y-9976453D01*
X-37290374Y-9976475D01*
X-37322478Y-9978417D01*
X-37322479Y-9978417D01*
X-37322852Y-9978440D01*
X-37323219Y-9978507D01*
X-37323221Y-9978508D01*
X-37354856Y-9984305D01*
X-37354857Y-9984305D01*
X-37355225Y-9984373D01*
X-37355583Y-9984484D01*
X-37355583Y-9984484D01*
X-37386289Y-9994052D01*
X-37386647Y-9994164D01*
X-37416659Y-10007671D01*
X-37416979Y-10007865D01*
X-37416980Y-10007865D01*
X-37444504Y-10024504D01*
X-37444505Y-10024505D01*
X-37444825Y-10024698D01*
X-37448910Y-10027899D01*
X-37467726Y-10042640D01*
X-37470732Y-10044996D01*
X-37494005Y-10068268D01*
X-37514302Y-10094176D01*
X-37531329Y-10122341D01*
X-37544836Y-10152353D01*
X-37554628Y-10183775D01*
X-37560560Y-10216148D01*
X-37562547Y-10249000D01*
X-38267950Y-10249000D01*
X-38267950Y-9652000D01*
X-37570558Y-9652000D01*
X-37568530Y-9672593D01*
X-37562523Y-9692395D01*
X-37552769Y-9710645D01*
X-37539641Y-9726641D01*
X-37523645Y-9739769D01*
X-37505395Y-9749523D01*
X-37485593Y-9755530D01*
X-37465000Y-9757558D01*
X-37444407Y-9755530D01*
X-37424605Y-9749523D01*
X-37406355Y-9739769D01*
X-37395100Y-9730532D01*
X-37390359Y-9726641D01*
X-37377231Y-9710645D01*
X-37373468Y-9703605D01*
X-37368572Y-9698620D01*
X-37362533Y-9697050D01*
X-37107797Y-9697050D01*
X-37101093Y-9699019D01*
X-37099029Y-9700682D01*
X-36624682Y-10175028D01*
X-36621333Y-10181161D01*
X-36621050Y-10183797D01*
X-36621050Y-10410774D01*
X-36621128Y-10412162D01*
X-36621246Y-10413211D01*
X-36621527Y-10415704D01*
X-36620570Y-10420764D01*
X-36620464Y-10421321D01*
X-36620387Y-10421773D01*
X-36619535Y-10427429D01*
X-36619535Y-10427429D01*
X-36619445Y-10428027D01*
X-36619285Y-10428513D01*
X-36619002Y-10429047D01*
X-36619002Y-10429047D01*
X-36616329Y-10434105D01*
X-36616123Y-10434514D01*
X-36613643Y-10439664D01*
X-36613642Y-10439664D01*
X-36613381Y-10440208D01*
X-36613083Y-10440627D01*
X-36612657Y-10441053D01*
X-36612657Y-10441054D01*
X-36608610Y-10445100D01*
X-36608296Y-10445426D01*
X-36604406Y-10449619D01*
X-36604405Y-10449620D01*
X-36603995Y-10450061D01*
X-36602507Y-10451203D01*
X-36246070Y-10807640D01*
X-36127279Y-10926432D01*
X-36123930Y-10932564D01*
X-36124428Y-10939533D01*
X-36128616Y-10945127D01*
X-36135162Y-10947568D01*
X-36136047Y-10947600D01*
X-36554065Y-10947600D01*
X-36560769Y-10945632D01*
X-36560954Y-10945510D01*
X-36566876Y-10941553D01*
X-36574183Y-10940100D01*
X-36574183Y-10940100D01*
X-36754117Y-10940100D01*
X-36754118Y-10940100D01*
X-36761424Y-10941553D01*
X-36761424Y-10941553D01*
X-36761424Y-10941553D01*
X-36769710Y-10947090D01*
X-36775247Y-10955376D01*
X-36775247Y-10955376D01*
X-36776509Y-10961723D01*
X-36776700Y-10962683D01*
X-36776700Y-11142617D01*
X-36775247Y-11149924D01*
X-36769710Y-11158210D01*
X-36761424Y-11163747D01*
X-36756553Y-11164716D01*
X-36754118Y-11165200D01*
X-36754117Y-11165200D01*
X-36574183Y-11165200D01*
X-36572729Y-11164911D01*
X-36566876Y-11163747D01*
X-36563262Y-11161332D01*
X-36560954Y-11159790D01*
X-36554286Y-11157702D01*
X-36554065Y-11157700D01*
X-36112999Y-11157700D01*
X-36106295Y-11159669D01*
X-36104231Y-11161332D01*
X-35922682Y-11342881D01*
X-35919333Y-11349013D01*
X-35919050Y-11351649D01*
X-35919050Y-12694230D01*
X-35919110Y-12695445D01*
X-35919558Y-12700000D01*
X-35917530Y-12720593D01*
X-35911523Y-12740395D01*
X-35903031Y-12756283D01*
X-35901769Y-12758645D01*
X-35888641Y-12774641D01*
X-35885103Y-12777545D01*
X-35884202Y-12778361D01*
X-35638361Y-13024202D01*
X-35637545Y-13025102D01*
X-35634641Y-13028641D01*
X-35630633Y-13031930D01*
X-35630632Y-13031931D01*
X-35618645Y-13041768D01*
X-35608890Y-13046982D01*
X-35600395Y-13051523D01*
X-35580593Y-13057530D01*
X-35565161Y-13059050D01*
X-35565161Y-13059050D01*
X-35560000Y-13059558D01*
X-35555904Y-13059155D01*
X-35555446Y-13059110D01*
X-35554230Y-13059050D01*
X-34549770Y-13059050D01*
X-34548555Y-13059110D01*
X-34544000Y-13059558D01*
X-34523407Y-13057530D01*
X-34503605Y-13051523D01*
X-34485355Y-13041768D01*
X-34484613Y-13041159D01*
X-34469359Y-13028641D01*
X-34466455Y-13025103D01*
X-34465638Y-13024201D01*
X-34390437Y-12949000D01*
X-30925566Y-12949000D01*
X-30923506Y-12972541D01*
X-30917390Y-12995366D01*
X-30907403Y-13016783D01*
X-30893849Y-13036140D01*
X-30877140Y-13052849D01*
X-30857783Y-13066403D01*
X-30836366Y-13076390D01*
X-30813541Y-13082506D01*
X-30790000Y-13084566D01*
X-30790000Y-13084566D01*
X-30790000Y-13084566D01*
X-30766459Y-13082506D01*
X-30764601Y-13082008D01*
X-30743634Y-13076390D01*
X-30722217Y-13066403D01*
X-30702860Y-13052849D01*
X-30686150Y-13036140D01*
X-30672596Y-13016783D01*
X-30662610Y-12995366D01*
X-30660574Y-12987770D01*
X-30656494Y-12972541D01*
X-30654434Y-12949000D01*
X-30656494Y-12925459D01*
X-30662610Y-12902634D01*
X-30672596Y-12881217D01*
X-30686150Y-12861860D01*
X-30702859Y-12845151D01*
X-30702860Y-12845150D01*
X-30722217Y-12831596D01*
X-30743634Y-12821610D01*
X-30766459Y-12815494D01*
X-30790000Y-12813434D01*
X-30813541Y-12815494D01*
X-30836366Y-12821610D01*
X-30836366Y-12821610D01*
X-30857783Y-12831596D01*
X-30877140Y-12845150D01*
X-30893849Y-12861860D01*
X-30907403Y-12881217D01*
X-30917390Y-12902634D01*
X-30923506Y-12925459D01*
X-30925566Y-12949000D01*
X-34390437Y-12949000D01*
X-34227304Y-12785867D01*
X-33638050Y-12785867D01*
X-33636597Y-12793174D01*
X-33631060Y-12801460D01*
X-33622774Y-12806997D01*
X-33617903Y-12807965D01*
X-33615468Y-12808450D01*
X-33615467Y-12808450D01*
X-33440532Y-12808450D01*
X-33436879Y-12807723D01*
X-33433226Y-12806997D01*
X-33424940Y-12801460D01*
X-33419403Y-12793174D01*
X-33419403Y-12793174D01*
X-33419403Y-12793174D01*
X-33417950Y-12785867D01*
X-33417950Y-12610932D01*
X-33419403Y-12603626D01*
X-33424940Y-12595340D01*
X-33433226Y-12589803D01*
X-33440532Y-12588350D01*
X-33440533Y-12588350D01*
X-33615467Y-12588350D01*
X-33615468Y-12588350D01*
X-33622774Y-12589803D01*
X-33622774Y-12589803D01*
X-33622774Y-12589803D01*
X-33631060Y-12595340D01*
X-33636597Y-12603626D01*
X-33636597Y-12603626D01*
X-33637630Y-12608821D01*
X-33638050Y-12610933D01*
X-33638050Y-12785867D01*
X-34227304Y-12785867D01*
X-33994519Y-12553082D01*
X-33988386Y-12549733D01*
X-33985751Y-12549450D01*
X-33563796Y-12549450D01*
X-33559317Y-12550287D01*
X-33558246Y-12550702D01*
X-33538198Y-12554450D01*
X-33538197Y-12554450D01*
X-33517803Y-12554450D01*
X-33517802Y-12554450D01*
X-33497754Y-12550702D01*
X-33478736Y-12543335D01*
X-33472769Y-12539640D01*
X-33461396Y-12532598D01*
X-33446324Y-12518858D01*
X-33434032Y-12502582D01*
X-33424942Y-12484325D01*
X-33419360Y-12464708D01*
X-33417478Y-12444400D01*
X-33419360Y-12424092D01*
X-33424942Y-12404475D01*
X-33434032Y-12386218D01*
X-33446324Y-12369942D01*
X-33461396Y-12356202D01*
X-33478736Y-12345465D01*
X-33497754Y-12338098D01*
X-33507778Y-12336224D01*
X-33517802Y-12334350D01*
X-33538198Y-12334350D01*
X-33558246Y-12338098D01*
X-33559317Y-12338513D01*
X-33563796Y-12339350D01*
X-33916950Y-12339350D01*
X-33923654Y-12337381D01*
X-33928229Y-12332101D01*
X-33929350Y-12326950D01*
X-33929350Y-12190400D01*
X-33638522Y-12190400D01*
X-33636640Y-12210708D01*
X-33631058Y-12230325D01*
X-33628005Y-12236456D01*
X-33621968Y-12248582D01*
X-33621967Y-12248582D01*
X-33621967Y-12248582D01*
X-33609676Y-12264858D01*
X-33594604Y-12278598D01*
X-33577264Y-12289335D01*
X-33558246Y-12296702D01*
X-33538198Y-12300450D01*
X-33538197Y-12300450D01*
X-33517803Y-12300450D01*
X-33517802Y-12300450D01*
X-33497754Y-12296702D01*
X-33478736Y-12289335D01*
X-33478736Y-12289335D01*
X-33461396Y-12278598D01*
X-33446324Y-12264858D01*
X-33434032Y-12248582D01*
X-33424942Y-12230325D01*
X-33419360Y-12210708D01*
X-33417478Y-12190400D01*
X-33419360Y-12170092D01*
X-33424942Y-12150475D01*
X-33434032Y-12132218D01*
X-33446324Y-12115942D01*
X-33461396Y-12102202D01*
X-33478736Y-12091465D01*
X-33497754Y-12084098D01*
X-33507778Y-12082224D01*
X-33517802Y-12080350D01*
X-33538198Y-12080350D01*
X-33551563Y-12082848D01*
X-33558246Y-12084098D01*
X-33577264Y-12091465D01*
X-33594604Y-12102202D01*
X-33609676Y-12115942D01*
X-33621968Y-12132218D01*
X-33628651Y-12145641D01*
X-33631058Y-12150475D01*
X-33636640Y-12170092D01*
X-33638522Y-12190400D01*
X-33929350Y-12190400D01*
X-33929350Y-11936400D01*
X-33638522Y-11936400D01*
X-33636640Y-11956708D01*
X-33631058Y-11976325D01*
X-33630001Y-11978448D01*
X-33621968Y-11994582D01*
X-33621967Y-11994582D01*
X-33621967Y-11994582D01*
X-33609676Y-12010858D01*
X-33594604Y-12024598D01*
X-33577264Y-12035335D01*
X-33558246Y-12042702D01*
X-33538198Y-12046450D01*
X-33538197Y-12046450D01*
X-33517803Y-12046450D01*
X-33517802Y-12046450D01*
X-33497754Y-12042702D01*
X-33478736Y-12035335D01*
X-33478736Y-12035335D01*
X-33461396Y-12024598D01*
X-33446324Y-12010858D01*
X-33434032Y-11994582D01*
X-33424942Y-11976325D01*
X-33419360Y-11956708D01*
X-33417478Y-11936400D01*
X-33419360Y-11916092D01*
X-33424942Y-11896475D01*
X-33434032Y-11878218D01*
X-33446324Y-11861942D01*
X-33461396Y-11848202D01*
X-33478736Y-11837465D01*
X-33497754Y-11830098D01*
X-33507778Y-11828224D01*
X-33517802Y-11826350D01*
X-33538198Y-11826350D01*
X-33551563Y-11828848D01*
X-33558246Y-11830098D01*
X-33577264Y-11837465D01*
X-33594604Y-11848202D01*
X-33609676Y-11861942D01*
X-33621968Y-11878218D01*
X-33628232Y-11890799D01*
X-33631058Y-11896475D01*
X-33633442Y-11904851D01*
X-33636250Y-11914722D01*
X-33636640Y-11916092D01*
X-33638522Y-11936400D01*
X-33929350Y-11936400D01*
X-33929350Y-11682400D01*
X-33638522Y-11682400D01*
X-33636640Y-11702708D01*
X-33631058Y-11722325D01*
X-33627635Y-11729199D01*
X-33621968Y-11740582D01*
X-33621967Y-11740582D01*
X-33621967Y-11740582D01*
X-33610416Y-11755878D01*
X-33609676Y-11756858D01*
X-33596109Y-11769226D01*
X-33594604Y-11770598D01*
X-33577264Y-11781335D01*
X-33558246Y-11788702D01*
X-33538198Y-11792450D01*
X-33538197Y-11792450D01*
X-33517803Y-11792450D01*
X-33517802Y-11792450D01*
X-33497754Y-11788702D01*
X-33478736Y-11781335D01*
X-33478736Y-11781335D01*
X-33461396Y-11770598D01*
X-33446324Y-11756858D01*
X-33434033Y-11740582D01*
X-33430985Y-11734462D01*
X-33430916Y-11734323D01*
X-33426166Y-11729199D01*
X-33419816Y-11727450D01*
X-33385478Y-11727450D01*
X-33378774Y-11729418D01*
X-33376710Y-11731082D01*
X-33322682Y-11785110D01*
X-33319333Y-11791242D01*
X-33319050Y-11793878D01*
X-33319050Y-12569774D01*
X-33319128Y-12571162D01*
X-33319527Y-12574703D01*
X-33318464Y-12580321D01*
X-33318387Y-12580773D01*
X-33317535Y-12586429D01*
X-33317535Y-12586429D01*
X-33317445Y-12587027D01*
X-33317285Y-12587513D01*
X-33317002Y-12588047D01*
X-33317002Y-12588047D01*
X-33314329Y-12593104D01*
X-33314123Y-12593514D01*
X-33311642Y-12598664D01*
X-33311642Y-12598664D01*
X-33311381Y-12599208D01*
X-33311083Y-12599627D01*
X-33310657Y-12600053D01*
X-33310657Y-12600054D01*
X-33306610Y-12604100D01*
X-33306296Y-12604426D01*
X-33302405Y-12608619D01*
X-33302405Y-12608619D01*
X-33301995Y-12609061D01*
X-33300507Y-12610203D01*
X-33251310Y-12659400D01*
X-33247962Y-12665532D01*
X-33248212Y-12671767D01*
X-33250530Y-12679407D01*
X-33252558Y-12700000D01*
X-33250530Y-12720593D01*
X-33244523Y-12740395D01*
X-33234768Y-12758645D01*
X-33221641Y-12774641D01*
X-33205645Y-12787768D01*
X-33187395Y-12797523D01*
X-33167593Y-12803530D01*
X-33147000Y-12805558D01*
X-33126407Y-12803530D01*
X-33106605Y-12797523D01*
X-33088355Y-12787768D01*
X-33080357Y-12781205D01*
X-33072359Y-12774641D01*
X-33064361Y-12764895D01*
X-33059231Y-12758645D01*
X-33049477Y-12740395D01*
X-33043470Y-12720593D01*
X-33043470Y-12720593D01*
X-33041442Y-12700000D01*
X-32236558Y-12700000D01*
X-32234530Y-12720593D01*
X-32228523Y-12740395D01*
X-32218768Y-12758645D01*
X-32205641Y-12774641D01*
X-32189645Y-12787768D01*
X-32171395Y-12797523D01*
X-32151593Y-12803530D01*
X-32131000Y-12805558D01*
X-32110407Y-12803530D01*
X-32090605Y-12797523D01*
X-32072355Y-12787768D01*
X-32064357Y-12781205D01*
X-32056359Y-12774641D01*
X-32048361Y-12764895D01*
X-32043231Y-12758645D01*
X-32033477Y-12740395D01*
X-32027470Y-12720593D01*
X-32027470Y-12720593D01*
X-32025442Y-12700000D01*
X-32027470Y-12679407D01*
X-32031096Y-12667452D01*
X-31890000Y-12667452D01*
X-31889964Y-12668113D01*
X-31889360Y-12673737D01*
X-31884335Y-12687209D01*
X-31875719Y-12698719D01*
X-31864209Y-12707335D01*
X-31850737Y-12712360D01*
X-31845113Y-12712964D01*
X-31844452Y-12713000D01*
X-31775000Y-12713000D01*
X-31775000Y-12610419D01*
X-31769745Y-12614002D01*
X-31756783Y-12618000D01*
X-31746628Y-12618000D01*
X-31736586Y-12616486D01*
X-31725000Y-12610907D01*
X-31725000Y-12713000D01*
X-31655548Y-12713000D01*
X-31654887Y-12712964D01*
X-31649263Y-12712360D01*
X-31635791Y-12707335D01*
X-31624281Y-12698719D01*
X-31615665Y-12687209D01*
X-31610640Y-12673737D01*
X-31610035Y-12668113D01*
X-31610000Y-12667452D01*
X-31382000Y-12667452D01*
X-31381964Y-12668113D01*
X-31381360Y-12673737D01*
X-31376335Y-12687209D01*
X-31367719Y-12698719D01*
X-31356209Y-12707335D01*
X-31342737Y-12712360D01*
X-31337113Y-12712964D01*
X-31336452Y-12713000D01*
X-31267000Y-12713000D01*
X-31267000Y-12610419D01*
X-31261745Y-12614002D01*
X-31248783Y-12618000D01*
X-31238628Y-12618000D01*
X-31228586Y-12616486D01*
X-31217000Y-12610907D01*
X-31217000Y-12713000D01*
X-31147548Y-12713000D01*
X-31146887Y-12712964D01*
X-31141263Y-12712360D01*
X-31127791Y-12707335D01*
X-31116281Y-12698719D01*
X-31107665Y-12687209D01*
X-31102640Y-12673737D01*
X-31102035Y-12668113D01*
X-31102000Y-12667452D01*
X-31102000Y-12598000D01*
X-31204472Y-12598000D01*
X-31199637Y-12589626D01*
X-31196619Y-12576401D01*
X-31197633Y-12562873D01*
X-31202589Y-12550246D01*
X-31204380Y-12548000D01*
X-31102000Y-12548000D01*
X-31102000Y-12478548D01*
X-31102035Y-12477887D01*
X-31102640Y-12472263D01*
X-31107665Y-12458791D01*
X-31116281Y-12447281D01*
X-31127791Y-12438665D01*
X-31141263Y-12433640D01*
X-31146887Y-12433035D01*
X-31147548Y-12433000D01*
X-31164269Y-12433000D01*
X-31170973Y-12431031D01*
X-31175549Y-12425751D01*
X-31176543Y-12418835D01*
X-31173641Y-12412480D01*
X-31172623Y-12411436D01*
X-31156613Y-12396841D01*
X-31143763Y-12379825D01*
X-31134259Y-12360739D01*
X-31128424Y-12340231D01*
X-31126457Y-12319000D01*
X-31128424Y-12297769D01*
X-31134259Y-12277261D01*
X-31143763Y-12258175D01*
X-31156613Y-12241159D01*
X-31172370Y-12226795D01*
X-31190498Y-12215570D01*
X-31210380Y-12207868D01*
X-31217366Y-12206562D01*
X-31231339Y-12203950D01*
X-31252661Y-12203950D01*
X-31273620Y-12207868D01*
X-31293502Y-12215570D01*
X-31311630Y-12226795D01*
X-31327387Y-12241159D01*
X-31340237Y-12258175D01*
X-31343565Y-12264858D01*
X-31349740Y-12277261D01*
X-31351037Y-12281818D01*
X-31355576Y-12297769D01*
X-31355758Y-12299736D01*
X-31357543Y-12319000D01*
X-31355576Y-12340231D01*
X-31349740Y-12360739D01*
X-31345158Y-12369942D01*
X-31340237Y-12379825D01*
X-31340237Y-12379825D01*
X-31340237Y-12379825D01*
X-31329803Y-12393641D01*
X-31327387Y-12396841D01*
X-31311377Y-12411436D01*
X-31307748Y-12417407D01*
X-31307925Y-12424392D01*
X-31311849Y-12430173D01*
X-31318276Y-12432914D01*
X-31319730Y-12433000D01*
X-31336452Y-12433000D01*
X-31337113Y-12433035D01*
X-31342737Y-12433640D01*
X-31356209Y-12438665D01*
X-31367719Y-12447281D01*
X-31376335Y-12458791D01*
X-31381360Y-12472263D01*
X-31381964Y-12477887D01*
X-31382000Y-12478548D01*
X-31382000Y-12548000D01*
X-31279528Y-12548000D01*
X-31284362Y-12556374D01*
X-31287381Y-12569599D01*
X-31286367Y-12583126D01*
X-31281411Y-12595754D01*
X-31279620Y-12598000D01*
X-31382000Y-12598000D01*
X-31382000Y-12667452D01*
X-31610000Y-12667452D01*
X-31610000Y-12598000D01*
X-31712472Y-12598000D01*
X-31707637Y-12589626D01*
X-31704619Y-12576401D01*
X-31705633Y-12562873D01*
X-31710589Y-12550246D01*
X-31712380Y-12548000D01*
X-31610000Y-12548000D01*
X-31610000Y-12478548D01*
X-31610035Y-12477887D01*
X-31610640Y-12472263D01*
X-31615665Y-12458791D01*
X-31624281Y-12447281D01*
X-31635791Y-12438665D01*
X-31649263Y-12433640D01*
X-31654887Y-12433035D01*
X-31655548Y-12433000D01*
X-31672269Y-12433000D01*
X-31678973Y-12431031D01*
X-31683549Y-12425751D01*
X-31684543Y-12418835D01*
X-31681641Y-12412480D01*
X-31680623Y-12411436D01*
X-31664613Y-12396841D01*
X-31651763Y-12379825D01*
X-31642259Y-12360739D01*
X-31636424Y-12340231D01*
X-31634457Y-12319000D01*
X-31636424Y-12297769D01*
X-31642259Y-12277261D01*
X-31651763Y-12258175D01*
X-31664613Y-12241159D01*
X-31680370Y-12226795D01*
X-31698498Y-12215570D01*
X-31718380Y-12207868D01*
X-31725366Y-12206562D01*
X-31739339Y-12203950D01*
X-31760661Y-12203950D01*
X-31781620Y-12207868D01*
X-31781620Y-12207868D01*
X-31801502Y-12215570D01*
X-31819630Y-12226795D01*
X-31835387Y-12241159D01*
X-31848237Y-12258175D01*
X-31851565Y-12264858D01*
X-31857740Y-12277261D01*
X-31859037Y-12281818D01*
X-31863576Y-12297769D01*
X-31863758Y-12299736D01*
X-31865543Y-12319000D01*
X-31863576Y-12340231D01*
X-31857740Y-12360739D01*
X-31853158Y-12369942D01*
X-31848237Y-12379825D01*
X-31848237Y-12379825D01*
X-31848237Y-12379825D01*
X-31837803Y-12393641D01*
X-31835387Y-12396841D01*
X-31819377Y-12411436D01*
X-31815748Y-12417407D01*
X-31815925Y-12424392D01*
X-31819849Y-12430173D01*
X-31826276Y-12432914D01*
X-31827730Y-12433000D01*
X-31844452Y-12433000D01*
X-31845113Y-12433035D01*
X-31850737Y-12433640D01*
X-31864209Y-12438665D01*
X-31875719Y-12447281D01*
X-31884335Y-12458791D01*
X-31889360Y-12472263D01*
X-31889964Y-12477887D01*
X-31890000Y-12478548D01*
X-31890000Y-12548000D01*
X-31787528Y-12548000D01*
X-31792362Y-12556374D01*
X-31795381Y-12569599D01*
X-31794367Y-12583126D01*
X-31789411Y-12595754D01*
X-31787620Y-12598000D01*
X-31890000Y-12598000D01*
X-31890000Y-12667452D01*
X-32031096Y-12667452D01*
X-32033477Y-12659604D01*
X-32043231Y-12641355D01*
X-32056359Y-12625359D01*
X-32072355Y-12612231D01*
X-32090604Y-12602477D01*
X-32110407Y-12596470D01*
X-32131000Y-12594442D01*
X-32151593Y-12596470D01*
X-32158827Y-12598664D01*
X-32171395Y-12602477D01*
X-32189645Y-12612231D01*
X-32195895Y-12617361D01*
X-32205641Y-12625359D01*
X-32208062Y-12628309D01*
X-32218768Y-12641355D01*
X-32228523Y-12659605D01*
X-32234530Y-12679407D01*
X-32236558Y-12700000D01*
X-33041442Y-12700000D01*
X-33043470Y-12679407D01*
X-33049477Y-12659604D01*
X-33059231Y-12641355D01*
X-33072359Y-12625359D01*
X-33088355Y-12612231D01*
X-33106604Y-12602477D01*
X-33126407Y-12596470D01*
X-33147000Y-12594442D01*
X-33167593Y-12596470D01*
X-33170724Y-12597420D01*
X-33175233Y-12598787D01*
X-33182219Y-12598850D01*
X-33187600Y-12595689D01*
X-33225318Y-12557971D01*
X-33228667Y-12551839D01*
X-33228950Y-12549203D01*
X-33228950Y-12413860D01*
X-33226981Y-12407156D01*
X-33221701Y-12402581D01*
X-33214785Y-12401586D01*
X-33208684Y-12404275D01*
X-33205645Y-12406768D01*
X-33187395Y-12416523D01*
X-33167593Y-12422530D01*
X-33147000Y-12424558D01*
X-33126407Y-12422530D01*
X-33106605Y-12416523D01*
X-33088355Y-12406768D01*
X-33080357Y-12400205D01*
X-33072359Y-12393641D01*
X-33061021Y-12379825D01*
X-33059231Y-12377645D01*
X-33049477Y-12359395D01*
X-33044631Y-12343420D01*
X-33043470Y-12339593D01*
X-33041442Y-12319000D01*
X-32236558Y-12319000D01*
X-32234530Y-12339593D01*
X-32228523Y-12359395D01*
X-32218768Y-12377645D01*
X-32205641Y-12393641D01*
X-32189645Y-12406768D01*
X-32171395Y-12416523D01*
X-32151593Y-12422530D01*
X-32131000Y-12424558D01*
X-32110407Y-12422530D01*
X-32090605Y-12416523D01*
X-32072355Y-12406768D01*
X-32064357Y-12400205D01*
X-32056359Y-12393641D01*
X-32045021Y-12379825D01*
X-32043231Y-12377645D01*
X-32033477Y-12359395D01*
X-32028631Y-12343420D01*
X-32027470Y-12339593D01*
X-32025442Y-12319000D01*
X-32027470Y-12298407D01*
X-32033477Y-12278604D01*
X-32043231Y-12260355D01*
X-32056359Y-12244359D01*
X-32072355Y-12231231D01*
X-32090604Y-12221477D01*
X-32090635Y-12221468D01*
X-32092869Y-12220790D01*
X-32110407Y-12215470D01*
X-32131000Y-12213442D01*
X-32151593Y-12215470D01*
X-32161494Y-12218473D01*
X-32171395Y-12221477D01*
X-32189645Y-12231231D01*
X-32195895Y-12236361D01*
X-32205641Y-12244359D01*
X-32212205Y-12252357D01*
X-32218768Y-12260355D01*
X-32228523Y-12278605D01*
X-32234530Y-12298407D01*
X-32236558Y-12319000D01*
X-33041442Y-12319000D01*
X-33041442Y-12319000D01*
X-33043470Y-12298407D01*
X-33049477Y-12278604D01*
X-33059231Y-12260355D01*
X-33072359Y-12244359D01*
X-33088355Y-12231231D01*
X-33095395Y-12227468D01*
X-33100380Y-12222572D01*
X-33101950Y-12216532D01*
X-33101950Y-11931950D01*
X-33099981Y-11925246D01*
X-33094701Y-11920671D01*
X-33089550Y-11919550D01*
X-32642226Y-11919550D01*
X-32640838Y-11919628D01*
X-32637297Y-11920027D01*
X-32637296Y-11920027D01*
X-32637296Y-11920027D01*
X-32631676Y-11918963D01*
X-32631224Y-11918887D01*
X-32625571Y-11918035D01*
X-32625571Y-11918035D01*
X-32624975Y-11917945D01*
X-32624486Y-11917784D01*
X-32623953Y-11917502D01*
X-32623953Y-11917502D01*
X-32618893Y-11914828D01*
X-32618486Y-11914623D01*
X-32613336Y-11912142D01*
X-32612794Y-11911881D01*
X-32612371Y-11911582D01*
X-32607905Y-11907115D01*
X-32607571Y-11906793D01*
X-32605478Y-11904851D01*
X-32603381Y-11902905D01*
X-32603380Y-11902905D01*
X-32602939Y-11902496D01*
X-32601797Y-11901007D01*
X-32489100Y-11788311D01*
X-32482968Y-11784962D01*
X-32476732Y-11785213D01*
X-32469093Y-11787530D01*
X-32448500Y-11789558D01*
X-32427907Y-11787530D01*
X-32408105Y-11781523D01*
X-32389855Y-11771768D01*
X-32378881Y-11762762D01*
X-32373859Y-11758641D01*
X-32365861Y-11748895D01*
X-32360731Y-11742645D01*
X-32350977Y-11724395D01*
X-32345612Y-11706710D01*
X-32344970Y-11704593D01*
X-32342942Y-11684000D01*
X-32344970Y-11663407D01*
X-32350977Y-11643604D01*
X-32360731Y-11625355D01*
X-32373859Y-11609359D01*
X-32389855Y-11596231D01*
X-32408104Y-11586477D01*
X-32427907Y-11580470D01*
X-32448500Y-11578442D01*
X-32469093Y-11580470D01*
X-32472932Y-11581634D01*
X-32488895Y-11586477D01*
X-32488895Y-11586477D01*
X-32488896Y-11586477D01*
X-32496389Y-11590482D01*
X-32507145Y-11596231D01*
X-32509226Y-11597939D01*
X-32523141Y-11609359D01*
X-32529705Y-11617357D01*
X-32536268Y-11625355D01*
X-32546023Y-11643605D01*
X-32552030Y-11663407D01*
X-32554058Y-11684000D01*
X-32552030Y-11704593D01*
X-32549850Y-11711779D01*
X-32549713Y-11712232D01*
X-32549650Y-11719219D01*
X-32552811Y-11724600D01*
X-32654028Y-11825818D01*
X-32660161Y-11829167D01*
X-32662796Y-11829450D01*
X-33089550Y-11829450D01*
X-33096254Y-11827481D01*
X-33100829Y-11822201D01*
X-33101950Y-11817050D01*
X-33101950Y-11687226D01*
X-33101872Y-11685838D01*
X-33101473Y-11682296D01*
X-33102536Y-11676678D01*
X-33102613Y-11676222D01*
X-33103555Y-11669976D01*
X-33103717Y-11669483D01*
X-33106670Y-11663896D01*
X-33106879Y-11663482D01*
X-33109618Y-11657795D01*
X-33109919Y-11657371D01*
X-33114385Y-11652905D01*
X-33114706Y-11652571D01*
X-33119004Y-11647939D01*
X-33120493Y-11646797D01*
X-33368463Y-11398826D01*
X-33369389Y-11397790D01*
X-33371612Y-11395003D01*
X-33376336Y-11391782D01*
X-33376713Y-11391514D01*
X-33381796Y-11387763D01*
X-33382258Y-11387530D01*
X-33388297Y-11385667D01*
X-33388737Y-11385522D01*
X-33394697Y-11383437D01*
X-33395209Y-11383350D01*
X-33395810Y-11383350D01*
X-33401526Y-11383350D01*
X-33401990Y-11383341D01*
X-33408303Y-11383105D01*
X-33410163Y-11383350D01*
X-33419816Y-11383350D01*
X-33426520Y-11381381D01*
X-33430916Y-11376477D01*
X-33432671Y-11372953D01*
X-33434033Y-11370218D01*
X-33446324Y-11353942D01*
X-33451745Y-11349000D01*
X-33162547Y-11349000D01*
X-33160560Y-11381852D01*
X-33154627Y-11414225D01*
X-33144836Y-11445647D01*
X-33131329Y-11475659D01*
X-33114302Y-11503824D01*
X-33094004Y-11529732D01*
X-33070732Y-11553004D01*
X-33044824Y-11573302D01*
X-33016659Y-11590329D01*
X-32986647Y-11603836D01*
X-32955225Y-11613627D01*
X-32922852Y-11619560D01*
X-32890000Y-11621547D01*
X-32857148Y-11619560D01*
X-32824775Y-11613627D01*
X-32793353Y-11603836D01*
X-32763341Y-11590329D01*
X-32735175Y-11573302D01*
X-32709268Y-11553004D01*
X-32685995Y-11529732D01*
X-32684117Y-11527335D01*
X-32665929Y-11504119D01*
X-32665698Y-11503824D01*
X-32665505Y-11503504D01*
X-32665504Y-11503504D01*
X-32648865Y-11475979D01*
X-32648865Y-11475979D01*
X-32648671Y-11475659D01*
X-32635164Y-11445647D01*
X-32630663Y-11431201D01*
X-32625484Y-11414583D01*
X-32625484Y-11414583D01*
X-32625372Y-11414225D01*
X-32625305Y-11413857D01*
X-32625305Y-11413856D01*
X-32619507Y-11382221D01*
X-32619507Y-11382219D01*
X-32619440Y-11381852D01*
X-32619417Y-11381479D01*
X-32619417Y-11381478D01*
X-32617475Y-11349374D01*
X-32617453Y-11349000D01*
X-32618068Y-11338821D01*
X-32619417Y-11316522D01*
X-32619417Y-11316521D01*
X-32619440Y-11316148D01*
X-32619507Y-11315781D01*
X-32619507Y-11315779D01*
X-32625305Y-11284144D01*
X-32625305Y-11284143D01*
X-32625372Y-11283775D01*
X-32625799Y-11282407D01*
X-32635052Y-11252711D01*
X-32635053Y-11252710D01*
X-32635164Y-11252353D01*
X-32635317Y-11252012D01*
X-32648518Y-11222682D01*
X-32648518Y-11222682D01*
X-32648671Y-11222341D01*
X-32648864Y-11222022D01*
X-32648865Y-11222020D01*
X-32665504Y-11194496D01*
X-32665505Y-11194495D01*
X-32665698Y-11194175D01*
X-32665928Y-11193881D01*
X-32665929Y-11193881D01*
X-32685764Y-11168563D01*
X-32685765Y-11168562D01*
X-32685995Y-11168268D01*
X-32686260Y-11168003D01*
X-32686261Y-11168002D01*
X-32709002Y-11145261D01*
X-32709003Y-11145260D01*
X-32709268Y-11144996D01*
X-32709562Y-11144765D01*
X-32709563Y-11144764D01*
X-32734881Y-11124929D01*
X-32734881Y-11124929D01*
X-32735175Y-11124698D01*
X-32735495Y-11124505D01*
X-32735496Y-11124504D01*
X-32763020Y-11107865D01*
X-32763022Y-11107864D01*
X-32763341Y-11107671D01*
X-32763682Y-11107518D01*
X-32763682Y-11107518D01*
X-32793012Y-11094317D01*
X-32793012Y-11094317D01*
X-32793353Y-11094164D01*
X-32793710Y-11094053D01*
X-32793711Y-11094052D01*
X-32824417Y-11084484D01*
X-32824417Y-11084484D01*
X-32824775Y-11084373D01*
X-32825143Y-11084305D01*
X-32825144Y-11084305D01*
X-32856779Y-11078508D01*
X-32856781Y-11078507D01*
X-32857148Y-11078440D01*
X-32857521Y-11078417D01*
X-32857522Y-11078417D01*
X-32889626Y-11076475D01*
X-32890000Y-11076453D01*
X-32890374Y-11076475D01*
X-32922478Y-11078417D01*
X-32922479Y-11078417D01*
X-32922852Y-11078440D01*
X-32923219Y-11078507D01*
X-32923221Y-11078508D01*
X-32954856Y-11084305D01*
X-32954857Y-11084305D01*
X-32955225Y-11084373D01*
X-32955583Y-11084484D01*
X-32955583Y-11084484D01*
X-32961096Y-11086202D01*
X-32986647Y-11094164D01*
X-33016659Y-11107671D01*
X-33016979Y-11107865D01*
X-33016979Y-11107865D01*
X-33044504Y-11124504D01*
X-33044504Y-11124505D01*
X-33044824Y-11124698D01*
X-33050082Y-11128817D01*
X-33066823Y-11141933D01*
X-33070732Y-11144996D01*
X-33094004Y-11168268D01*
X-33114302Y-11194175D01*
X-33114495Y-11194496D01*
X-33114496Y-11194496D01*
X-33129180Y-11218786D01*
X-33131329Y-11222341D01*
X-33144836Y-11252353D01*
X-33154627Y-11283775D01*
X-33160560Y-11316148D01*
X-33162547Y-11349000D01*
X-33451745Y-11349000D01*
X-33461396Y-11340202D01*
X-33478736Y-11329465D01*
X-33497754Y-11322098D01*
X-33507778Y-11320224D01*
X-33517802Y-11318350D01*
X-33538198Y-11318350D01*
X-33551563Y-11320848D01*
X-33558246Y-11322098D01*
X-33577264Y-11329465D01*
X-33594604Y-11340202D01*
X-33609676Y-11353942D01*
X-33621968Y-11370218D01*
X-33630882Y-11388121D01*
X-33631058Y-11388475D01*
X-33633709Y-11397790D01*
X-33636640Y-11408092D01*
X-33636706Y-11408802D01*
X-33638522Y-11428400D01*
X-33636640Y-11448708D01*
X-33631058Y-11468325D01*
X-33627814Y-11474840D01*
X-33621968Y-11486582D01*
X-33621967Y-11486582D01*
X-33621967Y-11486582D01*
X-33609676Y-11502858D01*
X-33594604Y-11516598D01*
X-33577264Y-11527335D01*
X-33558246Y-11534702D01*
X-33538198Y-11538450D01*
X-33538197Y-11538450D01*
X-33517803Y-11538450D01*
X-33517802Y-11538450D01*
X-33497754Y-11534702D01*
X-33478736Y-11527335D01*
X-33478736Y-11527335D01*
X-33461396Y-11516598D01*
X-33446324Y-11502858D01*
X-33434033Y-11486582D01*
X-33433103Y-11484716D01*
X-33428353Y-11479592D01*
X-33421587Y-11477850D01*
X-33414953Y-11480043D01*
X-33413236Y-11481474D01*
X-33305130Y-11589580D01*
X-33195682Y-11699028D01*
X-33192333Y-11705161D01*
X-33192050Y-11707796D01*
X-33192050Y-11868027D01*
X-33192361Y-11870786D01*
X-33192431Y-11871095D01*
X-33192085Y-11875723D01*
X-33192050Y-11876650D01*
X-33192050Y-12216532D01*
X-33194018Y-12223236D01*
X-33198604Y-12227468D01*
X-33205645Y-12231231D01*
X-33208684Y-12233725D01*
X-33215115Y-12236456D01*
X-33222001Y-12235277D01*
X-33227157Y-12230562D01*
X-33228950Y-12224140D01*
X-33228950Y-11773307D01*
X-33228872Y-11771919D01*
X-33228473Y-11768377D01*
X-33229535Y-11762762D01*
X-33229613Y-11762305D01*
X-33230555Y-11756057D01*
X-33230716Y-11755566D01*
X-33233669Y-11749980D01*
X-33233878Y-11749566D01*
X-33236619Y-11743875D01*
X-33236918Y-11743452D01*
X-33241384Y-11738987D01*
X-33241705Y-11738653D01*
X-33246004Y-11734020D01*
X-33247493Y-11732878D01*
X-33327544Y-11652826D01*
X-33328471Y-11651790D01*
X-33330693Y-11649003D01*
X-33335417Y-11645782D01*
X-33335794Y-11645514D01*
X-33340877Y-11641763D01*
X-33341339Y-11641530D01*
X-33347378Y-11639667D01*
X-33347818Y-11639522D01*
X-33353778Y-11637437D01*
X-33354290Y-11637350D01*
X-33354891Y-11637350D01*
X-33360607Y-11637350D01*
X-33361071Y-11637341D01*
X-33367384Y-11637105D01*
X-33369245Y-11637350D01*
X-33419816Y-11637350D01*
X-33426520Y-11635381D01*
X-33430916Y-11630477D01*
X-33432051Y-11628198D01*
X-33434033Y-11624218D01*
X-33446324Y-11607942D01*
X-33461396Y-11594202D01*
X-33478736Y-11583465D01*
X-33497754Y-11576098D01*
X-33507778Y-11574224D01*
X-33517802Y-11572350D01*
X-33538198Y-11572350D01*
X-33551563Y-11574848D01*
X-33558246Y-11576098D01*
X-33577264Y-11583465D01*
X-33594604Y-11594202D01*
X-33609676Y-11607942D01*
X-33621968Y-11624218D01*
X-33629626Y-11639599D01*
X-33631058Y-11642475D01*
X-33632288Y-11646799D01*
X-33636640Y-11662092D01*
X-33636706Y-11662802D01*
X-33638522Y-11682400D01*
X-33929350Y-11682400D01*
X-33929350Y-11174400D01*
X-33638522Y-11174400D01*
X-33636640Y-11194708D01*
X-33631058Y-11214325D01*
X-33627635Y-11221199D01*
X-33621968Y-11232582D01*
X-33621967Y-11232582D01*
X-33621967Y-11232582D01*
X-33609676Y-11248858D01*
X-33594604Y-11262598D01*
X-33577264Y-11273335D01*
X-33558246Y-11280702D01*
X-33538198Y-11284450D01*
X-33538197Y-11284450D01*
X-33517803Y-11284450D01*
X-33517802Y-11284450D01*
X-33497754Y-11280702D01*
X-33478736Y-11273335D01*
X-33478736Y-11273335D01*
X-33461396Y-11262598D01*
X-33446324Y-11248858D01*
X-33434033Y-11232582D01*
X-33432577Y-11229658D01*
X-33430916Y-11226323D01*
X-33426166Y-11221199D01*
X-33419816Y-11219450D01*
X-33402626Y-11219450D01*
X-33401238Y-11219528D01*
X-33397697Y-11219927D01*
X-33397696Y-11219927D01*
X-33397696Y-11219927D01*
X-33392076Y-11218863D01*
X-33391624Y-11218787D01*
X-33385971Y-11217935D01*
X-33385971Y-11217935D01*
X-33385375Y-11217845D01*
X-33384886Y-11217684D01*
X-33384353Y-11217402D01*
X-33384353Y-11217402D01*
X-33379293Y-11214728D01*
X-33378886Y-11214523D01*
X-33373736Y-11212042D01*
X-33373194Y-11211781D01*
X-33372771Y-11211482D01*
X-33368305Y-11207015D01*
X-33367971Y-11206693D01*
X-33364599Y-11203565D01*
X-33363781Y-11202805D01*
X-33363780Y-11202805D01*
X-33363339Y-11202396D01*
X-33362197Y-11200907D01*
X-33152741Y-10991452D01*
X-32436500Y-10991452D01*
X-32436464Y-10992113D01*
X-32435860Y-10997737D01*
X-32430835Y-11011209D01*
X-32422219Y-11022719D01*
X-32410709Y-11031335D01*
X-32397237Y-11036360D01*
X-32391613Y-11036965D01*
X-32390952Y-11037000D01*
X-32346500Y-11037000D01*
X-32346500Y-10950062D01*
X-32339595Y-10955436D01*
X-32327758Y-10959500D01*
X-32318393Y-10959500D01*
X-32309155Y-10957959D01*
X-32298149Y-10952002D01*
X-32296500Y-10950211D01*
X-32296500Y-11037000D01*
X-32252048Y-11037000D01*
X-32251387Y-11036965D01*
X-32245763Y-11036360D01*
X-32232291Y-11031335D01*
X-32220781Y-11022719D01*
X-32212165Y-11011209D01*
X-32207140Y-10997737D01*
X-32206535Y-10992113D01*
X-32206500Y-10991452D01*
X-32206500Y-10947000D01*
X-32293544Y-10947000D01*
X-32289672Y-10942794D01*
X-32284645Y-10931333D01*
X-32283611Y-10918861D01*
X-32286684Y-10906728D01*
X-32293039Y-10897000D01*
X-32206500Y-10897000D01*
X-32206313Y-10896813D01*
X-32204531Y-10890746D01*
X-32199251Y-10886171D01*
X-32194100Y-10885050D01*
X-32185035Y-10885050D01*
X-32168600Y-10881557D01*
X-32161634Y-10882088D01*
X-32156060Y-10886302D01*
X-32153650Y-10892860D01*
X-32154229Y-10897517D01*
X-32156067Y-10903174D01*
X-32158046Y-10922000D01*
X-32156067Y-10940826D01*
X-32150218Y-10958828D01*
X-32140753Y-10975222D01*
X-32133404Y-10983383D01*
X-32128087Y-10989289D01*
X-32113129Y-11000156D01*
X-32112773Y-11000415D01*
X-32095480Y-11008114D01*
X-32089308Y-11009426D01*
X-32076965Y-11012050D01*
X-32076965Y-11012050D01*
X-32058035Y-11012050D01*
X-32039520Y-11008114D01*
X-32022227Y-11000415D01*
X-32009890Y-10991452D01*
X-31865000Y-10991452D01*
X-31864964Y-10992113D01*
X-31864360Y-10997737D01*
X-31859335Y-11011209D01*
X-31850719Y-11022719D01*
X-31839209Y-11031335D01*
X-31825737Y-11036360D01*
X-31820113Y-11036965D01*
X-31819452Y-11037000D01*
X-31775000Y-11037000D01*
X-31775000Y-10950062D01*
X-31768095Y-10955436D01*
X-31756258Y-10959500D01*
X-31746893Y-10959500D01*
X-31737655Y-10957959D01*
X-31726649Y-10952002D01*
X-31725000Y-10950211D01*
X-31725000Y-11037000D01*
X-31680450Y-11037000D01*
X-31673746Y-11038969D01*
X-31669171Y-11044249D01*
X-31668050Y-11049400D01*
X-31668050Y-11490274D01*
X-31668128Y-11491662D01*
X-31668502Y-11494983D01*
X-31668527Y-11495203D01*
X-31667938Y-11498318D01*
X-31667464Y-11500821D01*
X-31667387Y-11501273D01*
X-31666535Y-11506929D01*
X-31666535Y-11506929D01*
X-31666445Y-11507527D01*
X-31666285Y-11508013D01*
X-31666002Y-11508547D01*
X-31666002Y-11508547D01*
X-31663329Y-11513604D01*
X-31663123Y-11514014D01*
X-31660642Y-11519164D01*
X-31660642Y-11519164D01*
X-31660381Y-11519708D01*
X-31660083Y-11520127D01*
X-31659657Y-11520553D01*
X-31659657Y-11520554D01*
X-31655610Y-11524600D01*
X-31655296Y-11524926D01*
X-31651405Y-11529119D01*
X-31651405Y-11529119D01*
X-31650995Y-11529561D01*
X-31649507Y-11530703D01*
X-31536810Y-11643400D01*
X-31533462Y-11649532D01*
X-31533712Y-11655767D01*
X-31536030Y-11663407D01*
X-31538058Y-11684000D01*
X-31536030Y-11704593D01*
X-31530023Y-11724395D01*
X-31520268Y-11742645D01*
X-31507141Y-11758641D01*
X-31491145Y-11771768D01*
X-31472895Y-11781523D01*
X-31453093Y-11787530D01*
X-31432500Y-11789558D01*
X-31411907Y-11787530D01*
X-31392105Y-11781523D01*
X-31373855Y-11771768D01*
X-31362881Y-11762762D01*
X-31357859Y-11758641D01*
X-31349861Y-11748895D01*
X-31344731Y-11742645D01*
X-31334977Y-11724395D01*
X-31329612Y-11706710D01*
X-31328970Y-11704593D01*
X-31326942Y-11684000D01*
X-31328970Y-11663407D01*
X-31334977Y-11643604D01*
X-31344731Y-11625355D01*
X-31357859Y-11609359D01*
X-31373855Y-11596231D01*
X-31392104Y-11586477D01*
X-31411907Y-11580470D01*
X-31432500Y-11578442D01*
X-31432500Y-11578442D01*
X-31439364Y-11579118D01*
X-31453094Y-11580470D01*
X-31460733Y-11582787D01*
X-31467719Y-11582849D01*
X-31473100Y-11579689D01*
X-31496289Y-11556500D01*
X-31046771Y-11556500D01*
X-31044890Y-11576808D01*
X-31039308Y-11596425D01*
X-31035694Y-11603682D01*
X-31030217Y-11614682D01*
X-31030217Y-11614682D01*
X-31030217Y-11614682D01*
X-31017926Y-11630958D01*
X-31002854Y-11644698D01*
X-30985514Y-11655435D01*
X-30966496Y-11662802D01*
X-30946448Y-11666550D01*
X-30946447Y-11666550D01*
X-30926053Y-11666550D01*
X-30926052Y-11666550D01*
X-30906004Y-11662802D01*
X-30886986Y-11655435D01*
X-30886986Y-11655435D01*
X-30869646Y-11644698D01*
X-30854574Y-11630958D01*
X-30842283Y-11614682D01*
X-30833568Y-11597181D01*
X-30828818Y-11592057D01*
X-30822052Y-11590315D01*
X-30815418Y-11592508D01*
X-30811022Y-11597939D01*
X-30810491Y-11599499D01*
X-30809593Y-11602849D01*
X-30799610Y-11624258D01*
X-30793742Y-11632637D01*
X-30730558Y-11569452D01*
X-30728199Y-11577484D01*
X-30720426Y-11589580D01*
X-30709560Y-11598995D01*
X-30696481Y-11604968D01*
X-30695503Y-11605109D01*
X-30758387Y-11667992D01*
X-30750008Y-11673860D01*
X-30728599Y-11683843D01*
X-30705782Y-11689957D01*
X-30682250Y-11692016D01*
X-30658718Y-11689957D01*
X-30635901Y-11683843D01*
X-30614492Y-11673860D01*
X-30606112Y-11667992D01*
X-30668997Y-11605109D01*
X-30668018Y-11604968D01*
X-30654940Y-11598995D01*
X-30644074Y-11589580D01*
X-30636301Y-11577484D01*
X-30633942Y-11569452D01*
X-30570757Y-11632637D01*
X-30570757Y-11632637D01*
X-30564890Y-11624258D01*
X-30554907Y-11602849D01*
X-30548793Y-11580032D01*
X-30546734Y-11556500D01*
X-30548793Y-11532968D01*
X-30554907Y-11510151D01*
X-30564890Y-11488742D01*
X-30570757Y-11480362D01*
X-30570757Y-11480362D01*
X-30633942Y-11543547D01*
X-30636301Y-11535516D01*
X-30644074Y-11523420D01*
X-30654940Y-11514005D01*
X-30668018Y-11508032D01*
X-30668997Y-11507891D01*
X-30606112Y-11445007D01*
X-30606113Y-11445007D01*
X-30614492Y-11439140D01*
X-30635901Y-11429157D01*
X-30639809Y-11428110D01*
X-30645775Y-11424473D01*
X-30648827Y-11418188D01*
X-30647998Y-11411251D01*
X-30643549Y-11405863D01*
X-30641079Y-11404570D01*
X-30632986Y-11401435D01*
X-30632986Y-11401435D01*
X-30615646Y-11390698D01*
X-30600574Y-11376958D01*
X-30588282Y-11360682D01*
X-30579192Y-11342425D01*
X-30573610Y-11322808D01*
X-30571728Y-11302500D01*
X-30573610Y-11282192D01*
X-30579192Y-11262575D01*
X-30588282Y-11244318D01*
X-30600574Y-11228042D01*
X-30615646Y-11214302D01*
X-30632986Y-11203565D01*
X-30652004Y-11196198D01*
X-30662028Y-11194324D01*
X-30672052Y-11192450D01*
X-30692448Y-11192450D01*
X-30704528Y-11194708D01*
X-30712496Y-11196198D01*
X-30731514Y-11203565D01*
X-30748854Y-11214302D01*
X-30763926Y-11228042D01*
X-30776217Y-11244318D01*
X-30780218Y-11252353D01*
X-30785308Y-11262575D01*
X-30790890Y-11282192D01*
X-30792771Y-11302500D01*
X-30790890Y-11322808D01*
X-30785308Y-11342425D01*
X-30782028Y-11349013D01*
X-30776217Y-11360682D01*
X-30776217Y-11360682D01*
X-30776217Y-11360682D01*
X-30763926Y-11376958D01*
X-30748854Y-11390698D01*
X-30731514Y-11401435D01*
X-30723421Y-11404570D01*
X-30717881Y-11408827D01*
X-30715522Y-11415403D01*
X-30717093Y-11422211D01*
X-30722096Y-11427089D01*
X-30724691Y-11428110D01*
X-30728599Y-11429157D01*
X-30750008Y-11439140D01*
X-30758387Y-11445007D01*
X-30758387Y-11445007D01*
X-30695503Y-11507891D01*
X-30696481Y-11508032D01*
X-30709560Y-11514005D01*
X-30720426Y-11523420D01*
X-30728199Y-11535516D01*
X-30730558Y-11543547D01*
X-30793742Y-11480362D01*
X-30793743Y-11480363D01*
X-30799610Y-11488742D01*
X-30809593Y-11510151D01*
X-30810491Y-11513501D01*
X-30814127Y-11519467D01*
X-30820412Y-11522520D01*
X-30827349Y-11521690D01*
X-30832737Y-11517242D01*
X-30833568Y-11515819D01*
X-30842283Y-11498318D01*
X-30854574Y-11482042D01*
X-30869646Y-11468302D01*
X-30886986Y-11457565D01*
X-30906004Y-11450198D01*
X-30916028Y-11448324D01*
X-30926052Y-11446450D01*
X-30946448Y-11446450D01*
X-30958528Y-11448708D01*
X-30966496Y-11450198D01*
X-30985514Y-11457565D01*
X-31002854Y-11468302D01*
X-31017926Y-11482042D01*
X-31030217Y-11498318D01*
X-31037121Y-11512182D01*
X-31039308Y-11516575D01*
X-31041590Y-11524595D01*
X-31044697Y-11535516D01*
X-31044890Y-11536192D01*
X-31046771Y-11556500D01*
X-31496289Y-11556500D01*
X-31574318Y-11478471D01*
X-31577667Y-11472339D01*
X-31577950Y-11469703D01*
X-31577950Y-11302500D01*
X-31046771Y-11302500D01*
X-31044890Y-11322808D01*
X-31039308Y-11342425D01*
X-31036028Y-11349013D01*
X-31030217Y-11360682D01*
X-31030217Y-11360682D01*
X-31030217Y-11360682D01*
X-31017926Y-11376958D01*
X-31002854Y-11390698D01*
X-30985514Y-11401435D01*
X-30966496Y-11408802D01*
X-30946448Y-11412550D01*
X-30946447Y-11412550D01*
X-30926053Y-11412550D01*
X-30926052Y-11412550D01*
X-30906004Y-11408802D01*
X-30886986Y-11401435D01*
X-30886986Y-11401435D01*
X-30869646Y-11390698D01*
X-30854574Y-11376958D01*
X-30842282Y-11360682D01*
X-30833192Y-11342425D01*
X-30827610Y-11322808D01*
X-30825728Y-11302500D01*
X-30827610Y-11282192D01*
X-30833192Y-11262575D01*
X-30842282Y-11244318D01*
X-30854574Y-11228042D01*
X-30869646Y-11214302D01*
X-30886986Y-11203565D01*
X-30906004Y-11196198D01*
X-30916028Y-11194324D01*
X-30926052Y-11192450D01*
X-30946448Y-11192450D01*
X-30958528Y-11194708D01*
X-30966496Y-11196198D01*
X-30985514Y-11203565D01*
X-31002854Y-11214302D01*
X-31017926Y-11228042D01*
X-31030217Y-11244318D01*
X-31034218Y-11252353D01*
X-31039308Y-11262575D01*
X-31044890Y-11282192D01*
X-31046771Y-11302500D01*
X-31577950Y-11302500D01*
X-31577950Y-10997866D01*
X-31575981Y-10991162D01*
X-31570701Y-10986587D01*
X-31563785Y-10985592D01*
X-31557430Y-10988495D01*
X-31556715Y-10989196D01*
X-31541629Y-11000156D01*
X-31541273Y-11000415D01*
X-31523980Y-11008114D01*
X-31517808Y-11009426D01*
X-31505465Y-11012050D01*
X-31505465Y-11012050D01*
X-31486535Y-11012050D01*
X-31468020Y-11008114D01*
X-31450727Y-11000415D01*
X-31435413Y-10989289D01*
X-31430392Y-10983713D01*
X-31046300Y-10983713D01*
X-31046300Y-11113287D01*
X-31045659Y-11119248D01*
X-31040630Y-11132733D01*
X-31032005Y-11144255D01*
X-31020483Y-11152880D01*
X-31006998Y-11157909D01*
X-31001037Y-11158550D01*
X-30871463Y-11158550D01*
X-30865502Y-11157909D01*
X-30852017Y-11152880D01*
X-30840495Y-11144255D01*
X-30831870Y-11132733D01*
X-30826841Y-11119248D01*
X-30826200Y-11113287D01*
X-30826200Y-11049400D01*
X-30826200Y-11048500D01*
X-30792771Y-11048500D01*
X-30790890Y-11068808D01*
X-30785308Y-11088425D01*
X-30780781Y-11097516D01*
X-30776217Y-11106682D01*
X-30776217Y-11106682D01*
X-30776217Y-11106682D01*
X-30763926Y-11122958D01*
X-30763926Y-11122958D01*
X-30756915Y-11129350D01*
X-30748854Y-11136698D01*
X-30731514Y-11147435D01*
X-30712496Y-11154802D01*
X-30692448Y-11158550D01*
X-30692447Y-11158550D01*
X-30672053Y-11158550D01*
X-30672052Y-11158550D01*
X-30652004Y-11154802D01*
X-30632986Y-11147435D01*
X-30632986Y-11147435D01*
X-30615646Y-11136698D01*
X-30600574Y-11122958D01*
X-30588282Y-11106682D01*
X-30579192Y-11088425D01*
X-30573610Y-11068808D01*
X-30571728Y-11048500D01*
X-30573610Y-11028192D01*
X-30579192Y-11008575D01*
X-30588282Y-10990318D01*
X-30600574Y-10974042D01*
X-30615646Y-10960302D01*
X-30632986Y-10949565D01*
X-30652004Y-10942198D01*
X-30662866Y-10940167D01*
X-30672052Y-10938450D01*
X-30692448Y-10938450D01*
X-30704528Y-10940708D01*
X-30712496Y-10942198D01*
X-30731514Y-10949565D01*
X-30748854Y-10960302D01*
X-30763926Y-10974042D01*
X-30776217Y-10990318D01*
X-30785271Y-11008500D01*
X-30785308Y-11008575D01*
X-30790890Y-11028192D01*
X-30792771Y-11048500D01*
X-30826200Y-11048500D01*
X-30826200Y-10984044D01*
X-30826200Y-10984042D01*
X-30826200Y-10983713D01*
X-30826752Y-10978582D01*
X-30826841Y-10977752D01*
X-30831870Y-10964267D01*
X-30840495Y-10952745D01*
X-30852017Y-10944120D01*
X-30865502Y-10939091D01*
X-30871133Y-10938485D01*
X-30871133Y-10938485D01*
X-30871463Y-10938450D01*
X-30871795Y-10938450D01*
X-30871795Y-10938450D01*
X-31000706Y-10938450D01*
X-31000708Y-10938450D01*
X-31001037Y-10938450D01*
X-31001365Y-10938485D01*
X-31001366Y-10938485D01*
X-31006998Y-10939091D01*
X-31011789Y-10940878D01*
X-31020483Y-10944120D01*
X-31032005Y-10952745D01*
X-31040630Y-10964267D01*
X-31045659Y-10977752D01*
X-31046300Y-10983713D01*
X-31430392Y-10983713D01*
X-31422747Y-10975222D01*
X-31413282Y-10958828D01*
X-31407433Y-10940826D01*
X-31405454Y-10922000D01*
X-31407433Y-10903174D01*
X-31413282Y-10885172D01*
X-31422747Y-10868778D01*
X-31435413Y-10854711D01*
X-31450727Y-10843585D01*
X-31468020Y-10835886D01*
X-31486535Y-10831950D01*
X-31486535Y-10831950D01*
X-31505465Y-10831950D01*
X-31505465Y-10831950D01*
X-31521899Y-10835443D01*
X-31528866Y-10834912D01*
X-31534439Y-10830698D01*
X-31536850Y-10824140D01*
X-31536271Y-10819483D01*
X-31534433Y-10813826D01*
X-31532454Y-10795000D01*
X-31534433Y-10776174D01*
X-31540282Y-10758172D01*
X-31549747Y-10741778D01*
X-31562413Y-10727711D01*
X-31577727Y-10716585D01*
X-31595020Y-10708886D01*
X-31613535Y-10704950D01*
X-31613535Y-10704950D01*
X-31632465Y-10704950D01*
X-31632465Y-10704950D01*
X-31650980Y-10708886D01*
X-31668273Y-10716585D01*
X-31683587Y-10727711D01*
X-31696253Y-10741778D01*
X-31705718Y-10758172D01*
X-31708045Y-10765335D01*
X-31711567Y-10776174D01*
X-31713450Y-10794087D01*
X-31713640Y-10795896D01*
X-31716299Y-10802358D01*
X-31722028Y-10806356D01*
X-31724810Y-10806810D01*
X-31725000Y-10807000D01*
X-31725000Y-10893938D01*
X-31731905Y-10888564D01*
X-31743742Y-10884500D01*
X-31753107Y-10884500D01*
X-31762345Y-10886041D01*
X-31773351Y-10891998D01*
X-31775000Y-10893789D01*
X-31775000Y-10807000D01*
X-31819452Y-10807000D01*
X-31820113Y-10807035D01*
X-31825737Y-10807640D01*
X-31839209Y-10812665D01*
X-31850719Y-10821281D01*
X-31859335Y-10832791D01*
X-31864360Y-10846263D01*
X-31864964Y-10851887D01*
X-31865000Y-10852548D01*
X-31865000Y-10897000D01*
X-31777956Y-10897000D01*
X-31781828Y-10901206D01*
X-31786855Y-10912667D01*
X-31787889Y-10925140D01*
X-31784816Y-10937272D01*
X-31778461Y-10947000D01*
X-31865000Y-10947000D01*
X-31865000Y-10991452D01*
X-32009890Y-10991452D01*
X-32006913Y-10989289D01*
X-31994247Y-10975222D01*
X-31984782Y-10958828D01*
X-31978933Y-10940826D01*
X-31976954Y-10922000D01*
X-31978933Y-10903174D01*
X-31984782Y-10885172D01*
X-31994247Y-10868778D01*
X-32006913Y-10854711D01*
X-32022227Y-10843585D01*
X-32039520Y-10835886D01*
X-32058035Y-10831950D01*
X-32058035Y-10831950D01*
X-32076965Y-10831950D01*
X-32076965Y-10831950D01*
X-32093399Y-10835443D01*
X-32100366Y-10834912D01*
X-32105939Y-10830698D01*
X-32108350Y-10824140D01*
X-32107771Y-10819483D01*
X-32105933Y-10813826D01*
X-32103954Y-10795000D01*
X-32105933Y-10776174D01*
X-32111782Y-10758172D01*
X-32121247Y-10741778D01*
X-32133913Y-10727711D01*
X-32149227Y-10716585D01*
X-32166520Y-10708886D01*
X-32185035Y-10704950D01*
X-32185035Y-10704950D01*
X-32203965Y-10704950D01*
X-32203965Y-10704950D01*
X-32222480Y-10708886D01*
X-32239773Y-10716585D01*
X-32255087Y-10727711D01*
X-32267753Y-10741778D01*
X-32277218Y-10758172D01*
X-32279545Y-10765335D01*
X-32283067Y-10776174D01*
X-32284950Y-10794087D01*
X-32285140Y-10795896D01*
X-32287799Y-10802358D01*
X-32293528Y-10806356D01*
X-32296310Y-10806810D01*
X-32296500Y-10807000D01*
X-32296500Y-10893938D01*
X-32303405Y-10888564D01*
X-32315242Y-10884500D01*
X-32324607Y-10884500D01*
X-32333845Y-10886041D01*
X-32344851Y-10891998D01*
X-32346500Y-10893789D01*
X-32346500Y-10807000D01*
X-32390952Y-10807000D01*
X-32391613Y-10807035D01*
X-32397237Y-10807640D01*
X-32410709Y-10812665D01*
X-32422219Y-10821281D01*
X-32430835Y-10832791D01*
X-32435860Y-10846263D01*
X-32436464Y-10851887D01*
X-32436500Y-10852548D01*
X-32436500Y-10897000D01*
X-32349456Y-10897000D01*
X-32353328Y-10901206D01*
X-32358355Y-10912667D01*
X-32359389Y-10925140D01*
X-32356316Y-10937272D01*
X-32349961Y-10947000D01*
X-32436500Y-10947000D01*
X-32436500Y-10991452D01*
X-33152741Y-10991452D01*
X-32575290Y-10414000D01*
X-32236558Y-10414000D01*
X-32234530Y-10434593D01*
X-32228523Y-10454395D01*
X-32218768Y-10472645D01*
X-32205641Y-10488641D01*
X-32189645Y-10501769D01*
X-32171395Y-10511523D01*
X-32151593Y-10517530D01*
X-32131000Y-10519558D01*
X-32110407Y-10517530D01*
X-32090605Y-10511523D01*
X-32072355Y-10501769D01*
X-32058602Y-10490482D01*
X-32056359Y-10488641D01*
X-32043930Y-10473496D01*
X-32043231Y-10472645D01*
X-32037792Y-10462468D01*
X-32033477Y-10454396D01*
X-32032158Y-10450049D01*
X-32027470Y-10434593D01*
X-32027470Y-10434593D01*
X-32025442Y-10414000D01*
X-32027470Y-10393407D01*
X-32033477Y-10373604D01*
X-32043231Y-10355355D01*
X-32056359Y-10339359D01*
X-32072355Y-10326231D01*
X-32090604Y-10316477D01*
X-32110407Y-10310470D01*
X-32131000Y-10308442D01*
X-32151593Y-10310470D01*
X-32161467Y-10313465D01*
X-32171395Y-10316477D01*
X-32189645Y-10326232D01*
X-32195895Y-10331361D01*
X-32205641Y-10339359D01*
X-32210801Y-10345647D01*
X-32218768Y-10355355D01*
X-32228523Y-10373605D01*
X-32234530Y-10393407D01*
X-32236558Y-10414000D01*
X-32575290Y-10414000D01*
X-32355426Y-10194136D01*
X-32354389Y-10193210D01*
X-32354226Y-10193080D01*
X-32351603Y-10190988D01*
X-32348381Y-10186262D01*
X-32348116Y-10185888D01*
X-32346828Y-10184144D01*
X-32344721Y-10181288D01*
X-32344721Y-10181288D01*
X-32344363Y-10180804D01*
X-32344130Y-10180342D01*
X-32342268Y-10174306D01*
X-32342123Y-10173865D01*
X-32340037Y-10167902D01*
X-32339950Y-10167392D01*
X-32339950Y-10161074D01*
X-32339941Y-10160610D01*
X-32339705Y-10154297D01*
X-32339950Y-10152437D01*
X-32339950Y-9887451D01*
X-32337981Y-9880747D01*
X-32334078Y-9876908D01*
X-32318396Y-9867198D01*
X-32310117Y-9859651D01*
X-32303324Y-9853458D01*
X-32291032Y-9837182D01*
X-32281942Y-9818925D01*
X-32276360Y-9799308D01*
X-32274478Y-9779000D01*
X-32276360Y-9758692D01*
X-32281942Y-9739075D01*
X-32291032Y-9720818D01*
X-32303324Y-9704542D01*
X-32318396Y-9690802D01*
X-32335736Y-9680065D01*
X-32354754Y-9672698D01*
X-32365653Y-9670660D01*
X-32374802Y-9668950D01*
X-32395198Y-9668950D01*
X-32404347Y-9670660D01*
X-32415246Y-9672698D01*
X-32434264Y-9680065D01*
X-32451604Y-9690802D01*
X-32466676Y-9704542D01*
X-32478967Y-9720818D01*
X-32484859Y-9732651D01*
X-32488058Y-9739075D01*
X-32490528Y-9747755D01*
X-32493447Y-9758016D01*
X-32493640Y-9758692D01*
X-32495521Y-9779000D01*
X-32493640Y-9799308D01*
X-32488058Y-9818925D01*
X-32487682Y-9819681D01*
X-32478967Y-9837182D01*
X-32478967Y-9837182D01*
X-32478967Y-9837182D01*
X-32466676Y-9853458D01*
X-32451604Y-9867198D01*
X-32435922Y-9876908D01*
X-32431259Y-9882111D01*
X-32430050Y-9887451D01*
X-32430050Y-10136204D01*
X-32432018Y-10142907D01*
X-32433682Y-10144972D01*
X-33412171Y-11123461D01*
X-33418304Y-11126810D01*
X-33425273Y-11126311D01*
X-33430866Y-11122124D01*
X-33432039Y-11120220D01*
X-33434032Y-11116218D01*
X-33446324Y-11099942D01*
X-33461396Y-11086202D01*
X-33478736Y-11075465D01*
X-33497754Y-11068098D01*
X-33509876Y-11065832D01*
X-33517802Y-11064350D01*
X-33538198Y-11064350D01*
X-33551563Y-11066848D01*
X-33558246Y-11068098D01*
X-33577264Y-11075465D01*
X-33594604Y-11086202D01*
X-33609676Y-11099942D01*
X-33621968Y-11116218D01*
X-33631021Y-11134400D01*
X-33631058Y-11134475D01*
X-33633180Y-11141933D01*
X-33636640Y-11154092D01*
X-33636706Y-11154802D01*
X-33638522Y-11174400D01*
X-33929350Y-11174400D01*
X-33929350Y-10920400D01*
X-33638522Y-10920400D01*
X-33636640Y-10940708D01*
X-33631058Y-10960325D01*
X-33627635Y-10967199D01*
X-33621968Y-10978582D01*
X-33621967Y-10978582D01*
X-33621967Y-10978582D01*
X-33609676Y-10994858D01*
X-33594604Y-11008598D01*
X-33577264Y-11019335D01*
X-33558246Y-11026702D01*
X-33538198Y-11030450D01*
X-33538197Y-11030450D01*
X-33517803Y-11030450D01*
X-33517802Y-11030450D01*
X-33497754Y-11026702D01*
X-33478736Y-11019335D01*
X-33468465Y-11012975D01*
X-33461396Y-11008598D01*
X-33446324Y-10994858D01*
X-33434033Y-10978582D01*
X-33431510Y-10973517D01*
X-33430916Y-10972323D01*
X-33426166Y-10967199D01*
X-33419816Y-10965450D01*
X-33339126Y-10965450D01*
X-33337738Y-10965528D01*
X-33334197Y-10965927D01*
X-33334196Y-10965927D01*
X-33334196Y-10965927D01*
X-33328576Y-10964864D01*
X-33328124Y-10964787D01*
X-33322471Y-10963935D01*
X-33322471Y-10963935D01*
X-33321875Y-10963845D01*
X-33321386Y-10963684D01*
X-33320853Y-10963402D01*
X-33320853Y-10963402D01*
X-33315793Y-10960728D01*
X-33315386Y-10960523D01*
X-33310236Y-10958043D01*
X-33309694Y-10957781D01*
X-33309271Y-10957482D01*
X-33304805Y-10953015D01*
X-33304471Y-10952693D01*
X-33301099Y-10949565D01*
X-33300281Y-10948806D01*
X-33300280Y-10948805D01*
X-33299839Y-10948396D01*
X-33298697Y-10946907D01*
X-32609426Y-10257637D01*
X-32608390Y-10256710D01*
X-32605603Y-10254488D01*
X-32602380Y-10249761D01*
X-32602115Y-10249387D01*
X-32601858Y-10249039D01*
X-32601123Y-10248044D01*
X-32598363Y-10244304D01*
X-32598130Y-10243843D01*
X-32596267Y-10237804D01*
X-32596123Y-10237364D01*
X-32594037Y-10231402D01*
X-32593950Y-10230892D01*
X-32593950Y-10224574D01*
X-32593941Y-10224110D01*
X-32593705Y-10217797D01*
X-32593950Y-10215937D01*
X-32593950Y-9887451D01*
X-32591981Y-9880747D01*
X-32588078Y-9876908D01*
X-32572396Y-9867198D01*
X-32564117Y-9859651D01*
X-32557324Y-9853458D01*
X-32545032Y-9837182D01*
X-32535942Y-9818925D01*
X-32530360Y-9799308D01*
X-32528478Y-9779000D01*
X-32530360Y-9758692D01*
X-32535942Y-9739075D01*
X-32545032Y-9720818D01*
X-32557324Y-9704542D01*
X-32572396Y-9690802D01*
X-32589736Y-9680065D01*
X-32608754Y-9672698D01*
X-32619653Y-9670660D01*
X-32628802Y-9668950D01*
X-32649198Y-9668950D01*
X-32658347Y-9670660D01*
X-32669246Y-9672698D01*
X-32688264Y-9680065D01*
X-32705604Y-9690802D01*
X-32720676Y-9704542D01*
X-32732967Y-9720818D01*
X-32738859Y-9732651D01*
X-32742058Y-9739075D01*
X-32744528Y-9747755D01*
X-32747447Y-9758016D01*
X-32747640Y-9758692D01*
X-32749521Y-9779000D01*
X-32747640Y-9799308D01*
X-32742058Y-9818925D01*
X-32741682Y-9819681D01*
X-32732967Y-9837182D01*
X-32732967Y-9837182D01*
X-32732967Y-9837182D01*
X-32720676Y-9853458D01*
X-32705604Y-9867198D01*
X-32689922Y-9876908D01*
X-32685259Y-9882111D01*
X-32684050Y-9887451D01*
X-32684050Y-10199703D01*
X-32686018Y-10206407D01*
X-32687682Y-10208472D01*
X-33350928Y-10871718D01*
X-33357061Y-10875067D01*
X-33359696Y-10875350D01*
X-33419816Y-10875350D01*
X-33426520Y-10873382D01*
X-33430916Y-10868477D01*
X-33432954Y-10864384D01*
X-33434033Y-10862218D01*
X-33446324Y-10845942D01*
X-33461396Y-10832202D01*
X-33478736Y-10821465D01*
X-33497754Y-10814098D01*
X-33507778Y-10812224D01*
X-33517802Y-10810350D01*
X-33538198Y-10810350D01*
X-33550580Y-10812665D01*
X-33558246Y-10814098D01*
X-33577264Y-10821465D01*
X-33594604Y-10832202D01*
X-33609676Y-10845942D01*
X-33621968Y-10862218D01*
X-33627526Y-10873382D01*
X-33631058Y-10880475D01*
X-33636640Y-10900092D01*
X-33638522Y-10920400D01*
X-33929350Y-10920400D01*
X-33929350Y-10666400D01*
X-33638522Y-10666400D01*
X-33636640Y-10686708D01*
X-33631058Y-10706325D01*
X-33627635Y-10713199D01*
X-33621968Y-10724582D01*
X-33621967Y-10724582D01*
X-33621967Y-10724582D01*
X-33609676Y-10740858D01*
X-33594604Y-10754598D01*
X-33577264Y-10765335D01*
X-33558246Y-10772702D01*
X-33538198Y-10776450D01*
X-33538197Y-10776450D01*
X-33517803Y-10776450D01*
X-33517802Y-10776450D01*
X-33497754Y-10772702D01*
X-33478736Y-10765335D01*
X-33478736Y-10765335D01*
X-33461396Y-10754598D01*
X-33446324Y-10740858D01*
X-33434033Y-10724582D01*
X-33432577Y-10721658D01*
X-33430916Y-10718323D01*
X-33426166Y-10713199D01*
X-33419816Y-10711450D01*
X-33402626Y-10711450D01*
X-33401238Y-10711528D01*
X-33397697Y-10711927D01*
X-33397696Y-10711927D01*
X-33397696Y-10711927D01*
X-33392076Y-10710864D01*
X-33391624Y-10710787D01*
X-33385971Y-10709935D01*
X-33385971Y-10709935D01*
X-33385375Y-10709845D01*
X-33384886Y-10709684D01*
X-33384353Y-10709402D01*
X-33384353Y-10709402D01*
X-33379293Y-10706728D01*
X-33378886Y-10706523D01*
X-33373736Y-10704043D01*
X-33373194Y-10703781D01*
X-33372771Y-10703482D01*
X-33368305Y-10699015D01*
X-33367971Y-10698693D01*
X-33365570Y-10696466D01*
X-33363781Y-10694806D01*
X-33363780Y-10694805D01*
X-33363339Y-10694396D01*
X-33362197Y-10692907D01*
X-33307926Y-10638637D01*
X-33306890Y-10637710D01*
X-33304103Y-10635488D01*
X-33300880Y-10630761D01*
X-33300615Y-10630387D01*
X-33296863Y-10625304D01*
X-33296630Y-10624843D01*
X-33294767Y-10618804D01*
X-33294623Y-10618364D01*
X-33292537Y-10612402D01*
X-33292450Y-10611892D01*
X-33292450Y-10605574D01*
X-33292441Y-10605110D01*
X-33292205Y-10598797D01*
X-33292450Y-10596937D01*
X-33292450Y-10437797D01*
X-33290481Y-10431093D01*
X-33288818Y-10429028D01*
X-33273000Y-10413211D01*
X-33266868Y-10409862D01*
X-33259899Y-10410361D01*
X-33254306Y-10414548D01*
X-33251892Y-10420763D01*
X-33250530Y-10434593D01*
X-33244523Y-10454395D01*
X-33234768Y-10472645D01*
X-33221641Y-10488641D01*
X-33205645Y-10501769D01*
X-33187395Y-10511523D01*
X-33167593Y-10517530D01*
X-33147000Y-10519558D01*
X-33126407Y-10517530D01*
X-33106605Y-10511523D01*
X-33088355Y-10501769D01*
X-33074602Y-10490482D01*
X-33072359Y-10488641D01*
X-33059930Y-10473496D01*
X-33059231Y-10472645D01*
X-33053792Y-10462468D01*
X-33049477Y-10454396D01*
X-33048158Y-10450049D01*
X-33043470Y-10434593D01*
X-33043470Y-10434593D01*
X-33041442Y-10414000D01*
X-33043470Y-10393407D01*
X-33049477Y-10373604D01*
X-33059231Y-10355355D01*
X-33072359Y-10339359D01*
X-33088355Y-10326231D01*
X-33106604Y-10316477D01*
X-33126407Y-10310470D01*
X-33140236Y-10309108D01*
X-33146715Y-10306492D01*
X-33150751Y-10300788D01*
X-33151063Y-10293808D01*
X-33147789Y-10287999D01*
X-32926926Y-10067137D01*
X-32925890Y-10066210D01*
X-32923103Y-10063988D01*
X-32919880Y-10059261D01*
X-32919615Y-10058887D01*
X-32915863Y-10053804D01*
X-32915630Y-10053342D01*
X-32913768Y-10047305D01*
X-32913623Y-10046864D01*
X-32911537Y-10040902D01*
X-32911450Y-10040392D01*
X-32911450Y-10034075D01*
X-32911441Y-10033612D01*
X-32911205Y-10027297D01*
X-32911450Y-10025436D01*
X-32911450Y-9675797D01*
X-32909481Y-9669093D01*
X-32907818Y-9667028D01*
X-32814472Y-9573682D01*
X-32808339Y-9570333D01*
X-32805703Y-9570050D01*
X-32747184Y-9570050D01*
X-32740480Y-9572019D01*
X-32736084Y-9576923D01*
X-32732967Y-9583182D01*
X-32723254Y-9596044D01*
X-32720676Y-9599458D01*
X-32712363Y-9607037D01*
X-32705604Y-9613198D01*
X-32688264Y-9623935D01*
X-32669246Y-9631302D01*
X-32649198Y-9635050D01*
X-32649197Y-9635050D01*
X-32628803Y-9635050D01*
X-32628802Y-9635050D01*
X-32608754Y-9631302D01*
X-32589736Y-9623935D01*
X-32586505Y-9621934D01*
X-32572396Y-9613198D01*
X-32557324Y-9599458D01*
X-32545032Y-9583182D01*
X-32535942Y-9564925D01*
X-32530360Y-9545308D01*
X-32528478Y-9525000D01*
X-32530360Y-9504692D01*
X-32535942Y-9485075D01*
X-32545032Y-9466818D01*
X-32547974Y-9462923D01*
X-32550443Y-9456387D01*
X-32548987Y-9449553D01*
X-32544067Y-9444592D01*
X-32538079Y-9443050D01*
X-32535797Y-9443050D01*
X-32529093Y-9445019D01*
X-32527029Y-9446681D01*
X-32493338Y-9480372D01*
X-32489990Y-9486504D01*
X-32490180Y-9492533D01*
X-32490977Y-9495335D01*
X-32493103Y-9502807D01*
X-32493640Y-9504692D01*
X-32495521Y-9525000D01*
X-32493640Y-9545308D01*
X-32488058Y-9564925D01*
X-32484526Y-9572019D01*
X-32478967Y-9583182D01*
X-32478967Y-9583182D01*
X-32478967Y-9583182D01*
X-32469254Y-9596044D01*
X-32466676Y-9599458D01*
X-32458363Y-9607037D01*
X-32451604Y-9613198D01*
X-32434264Y-9623935D01*
X-32415246Y-9631302D01*
X-32395198Y-9635050D01*
X-32395197Y-9635050D01*
X-32374803Y-9635050D01*
X-32374802Y-9635050D01*
X-32354754Y-9631302D01*
X-32335736Y-9623935D01*
X-32332505Y-9621934D01*
X-32318396Y-9613198D01*
X-32303324Y-9599458D01*
X-32291032Y-9583182D01*
X-32281942Y-9564925D01*
X-32276360Y-9545308D01*
X-32274478Y-9525000D01*
X-32241521Y-9525000D01*
X-32239640Y-9545308D01*
X-32234058Y-9564925D01*
X-32230526Y-9572019D01*
X-32224967Y-9583182D01*
X-32224967Y-9583182D01*
X-32224967Y-9583182D01*
X-32215254Y-9596044D01*
X-32212676Y-9599458D01*
X-32204363Y-9607037D01*
X-32197604Y-9613198D01*
X-32180264Y-9623935D01*
X-32161246Y-9631302D01*
X-32141198Y-9635050D01*
X-32141197Y-9635050D01*
X-32120803Y-9635050D01*
X-32120802Y-9635050D01*
X-32100754Y-9631302D01*
X-32081736Y-9623935D01*
X-32078505Y-9621934D01*
X-32064396Y-9613198D01*
X-32049324Y-9599458D01*
X-32037032Y-9583182D01*
X-32027942Y-9564925D01*
X-32022360Y-9545308D01*
X-32020478Y-9525000D01*
X-32022360Y-9504692D01*
X-32027942Y-9485075D01*
X-32037032Y-9466818D01*
X-32049324Y-9450542D01*
X-32064396Y-9436802D01*
X-32081736Y-9426065D01*
X-32100754Y-9418698D01*
X-32112876Y-9416432D01*
X-32120802Y-9414950D01*
X-32141198Y-9414950D01*
X-32150604Y-9416708D01*
X-32161246Y-9418698D01*
X-32180264Y-9426065D01*
X-32197604Y-9436802D01*
X-32212676Y-9450542D01*
X-32224967Y-9466818D01*
X-32232305Y-9481555D01*
X-32234058Y-9485075D01*
X-32236229Y-9492705D01*
X-32239103Y-9502807D01*
X-32239640Y-9504692D01*
X-32241521Y-9525000D01*
X-32274478Y-9525000D01*
X-32276360Y-9504692D01*
X-32281942Y-9485075D01*
X-32291032Y-9466818D01*
X-32303324Y-9450542D01*
X-32318396Y-9436802D01*
X-32335736Y-9426065D01*
X-32354754Y-9418698D01*
X-32366876Y-9416432D01*
X-32374802Y-9414950D01*
X-32395198Y-9414950D01*
X-32415246Y-9418698D01*
X-32415246Y-9418698D01*
X-32415246Y-9418698D01*
X-32416611Y-9419226D01*
X-32423573Y-9419812D01*
X-32429747Y-9416541D01*
X-32429858Y-9416432D01*
X-32477863Y-9368426D01*
X-32478789Y-9367390D01*
X-32481012Y-9364603D01*
X-32485736Y-9361382D01*
X-32486113Y-9361114D01*
X-32491196Y-9357363D01*
X-32491658Y-9357130D01*
X-32497697Y-9355267D01*
X-32498137Y-9355123D01*
X-32504097Y-9353037D01*
X-32504609Y-9352950D01*
X-32505210Y-9352950D01*
X-32510926Y-9352950D01*
X-32511390Y-9352941D01*
X-32517703Y-9352705D01*
X-32519563Y-9352950D01*
X-32889774Y-9352950D01*
X-32891162Y-9352872D01*
X-32894703Y-9352473D01*
X-32900321Y-9353536D01*
X-32900777Y-9353613D01*
X-32906429Y-9354465D01*
X-32906429Y-9354465D01*
X-32907025Y-9354555D01*
X-32907516Y-9354717D01*
X-32913105Y-9357671D01*
X-32913518Y-9357879D01*
X-32915365Y-9358769D01*
X-32919206Y-9360618D01*
X-32919629Y-9360918D01*
X-32924095Y-9365385D01*
X-32924429Y-9365706D01*
X-32929061Y-9370004D01*
X-32930203Y-9371493D01*
X-33113073Y-9554363D01*
X-33114110Y-9555290D01*
X-33116897Y-9557512D01*
X-33120118Y-9562236D01*
X-33120386Y-9562614D01*
X-33122091Y-9564925D01*
X-33124138Y-9567697D01*
X-33124369Y-9568157D01*
X-33124547Y-9568733D01*
X-33124547Y-9568733D01*
X-33124953Y-9570050D01*
X-33126233Y-9574198D01*
X-33126377Y-9574637D01*
X-33127177Y-9576923D01*
X-33128464Y-9580599D01*
X-33128550Y-9581107D01*
X-33128550Y-9587426D01*
X-33128559Y-9587890D01*
X-33128721Y-9592218D01*
X-33128795Y-9594203D01*
X-33128550Y-9596064D01*
X-33128550Y-9944104D01*
X-33130518Y-9950807D01*
X-33132182Y-9952872D01*
X-33425350Y-10246040D01*
X-33431482Y-10249388D01*
X-33436360Y-10249039D01*
X-33435738Y-10250975D01*
X-33437537Y-10257727D01*
X-33439366Y-10260056D01*
X-33483142Y-10303832D01*
X-33489274Y-10307180D01*
X-33496243Y-10306682D01*
X-33496389Y-10306627D01*
X-33497754Y-10306098D01*
X-33506818Y-10304403D01*
X-33517802Y-10302350D01*
X-33538198Y-10302350D01*
X-33551563Y-10304848D01*
X-33558246Y-10306098D01*
X-33577264Y-10313465D01*
X-33594604Y-10324202D01*
X-33609676Y-10337942D01*
X-33621968Y-10354218D01*
X-33628323Y-10366982D01*
X-33631058Y-10372475D01*
X-33633160Y-10379863D01*
X-33636640Y-10392092D01*
X-33636762Y-10393407D01*
X-33638522Y-10412400D01*
X-33636640Y-10432708D01*
X-33631058Y-10452325D01*
X-33628982Y-10456495D01*
X-33621968Y-10470582D01*
X-33621967Y-10470582D01*
X-33621967Y-10470582D01*
X-33609676Y-10486858D01*
X-33594604Y-10500598D01*
X-33577264Y-10511335D01*
X-33558246Y-10518702D01*
X-33538198Y-10522450D01*
X-33538197Y-10522450D01*
X-33517803Y-10522450D01*
X-33517802Y-10522450D01*
X-33497754Y-10518702D01*
X-33478736Y-10511335D01*
X-33478736Y-10511335D01*
X-33461396Y-10500598D01*
X-33446324Y-10486858D01*
X-33434032Y-10470582D01*
X-33424942Y-10452325D01*
X-33419360Y-10432708D01*
X-33417478Y-10412400D01*
X-33419360Y-10392092D01*
X-33422820Y-10379933D01*
X-33422761Y-10372946D01*
X-33419661Y-10367772D01*
X-33053926Y-10002037D01*
X-33052890Y-10001110D01*
X-33052488Y-10000790D01*
X-33050103Y-9998888D01*
X-33046880Y-9994161D01*
X-33046615Y-9993787D01*
X-33042863Y-9988704D01*
X-33042630Y-9988243D01*
X-33040767Y-9982204D01*
X-33040623Y-9981764D01*
X-33038537Y-9975802D01*
X-33038450Y-9975292D01*
X-33038450Y-9968974D01*
X-33038441Y-9968510D01*
X-33038205Y-9962197D01*
X-33038450Y-9960337D01*
X-33038450Y-9612297D01*
X-33036481Y-9605593D01*
X-33034818Y-9603528D01*
X-32877972Y-9446682D01*
X-32871839Y-9443333D01*
X-32869203Y-9443050D01*
X-32739921Y-9443050D01*
X-32733217Y-9445019D01*
X-32728642Y-9450299D01*
X-32727647Y-9457215D01*
X-32730026Y-9462923D01*
X-32732967Y-9466818D01*
X-32736084Y-9473077D01*
X-32740834Y-9478201D01*
X-32747184Y-9479950D01*
X-32826274Y-9479950D01*
X-32827662Y-9479872D01*
X-32831203Y-9479473D01*
X-32835169Y-9480223D01*
X-32836821Y-9480536D01*
X-32837275Y-9480613D01*
X-32842929Y-9481465D01*
X-32842929Y-9481465D01*
X-32843525Y-9481555D01*
X-32844015Y-9481716D01*
X-32849603Y-9484670D01*
X-32850017Y-9484879D01*
X-32855707Y-9487619D01*
X-32856128Y-9487917D01*
X-32860594Y-9492383D01*
X-32860928Y-9492705D01*
X-32865119Y-9496595D01*
X-32865119Y-9496595D01*
X-32865561Y-9497004D01*
X-32866704Y-9498493D01*
X-32986073Y-9617863D01*
X-32987110Y-9618790D01*
X-32989897Y-9621012D01*
X-32991890Y-9623935D01*
X-32993118Y-9625736D01*
X-32993386Y-9626114D01*
X-32995123Y-9628468D01*
X-32997138Y-9631197D01*
X-32997369Y-9631657D01*
X-32997547Y-9632233D01*
X-32997547Y-9632233D01*
X-32998218Y-9634409D01*
X-32999233Y-9637698D01*
X-32999377Y-9638137D01*
X-33001229Y-9643428D01*
X-33001464Y-9644099D01*
X-33001550Y-9644607D01*
X-33001550Y-9650926D01*
X-33001559Y-9651390D01*
X-33001795Y-9657703D01*
X-33001550Y-9659564D01*
X-33001550Y-10009204D01*
X-33003518Y-10015907D01*
X-33005182Y-10017972D01*
X-33367073Y-10379863D01*
X-33368110Y-10380790D01*
X-33370897Y-10383012D01*
X-33374118Y-10387736D01*
X-33374386Y-10388114D01*
X-33376123Y-10390468D01*
X-33378138Y-10393197D01*
X-33378369Y-10393657D01*
X-33378547Y-10394233D01*
X-33378547Y-10394233D01*
X-33378889Y-10395340D01*
X-33380233Y-10399698D01*
X-33380377Y-10400137D01*
X-33381668Y-10403825D01*
X-33382464Y-10406099D01*
X-33382550Y-10406607D01*
X-33382550Y-10412926D01*
X-33382559Y-10413390D01*
X-33382795Y-10419703D01*
X-33382550Y-10421564D01*
X-33382550Y-10580704D01*
X-33384518Y-10587407D01*
X-33386182Y-10589472D01*
X-33412171Y-10615461D01*
X-33418304Y-10618810D01*
X-33425273Y-10618311D01*
X-33430866Y-10614124D01*
X-33432039Y-10612220D01*
X-33434032Y-10608218D01*
X-33446324Y-10591942D01*
X-33461396Y-10578202D01*
X-33478736Y-10567465D01*
X-33497754Y-10560098D01*
X-33507778Y-10558224D01*
X-33517802Y-10556350D01*
X-33538198Y-10556350D01*
X-33551563Y-10558848D01*
X-33558246Y-10560098D01*
X-33577264Y-10567465D01*
X-33594604Y-10578202D01*
X-33609676Y-10591942D01*
X-33621968Y-10608218D01*
X-33627241Y-10618810D01*
X-33631058Y-10626475D01*
X-33636640Y-10646092D01*
X-33638522Y-10666400D01*
X-33929350Y-10666400D01*
X-33929350Y-10158400D01*
X-33638522Y-10158400D01*
X-33636640Y-10178708D01*
X-33631058Y-10198325D01*
X-33630372Y-10199703D01*
X-33621968Y-10216582D01*
X-33621967Y-10216582D01*
X-33621967Y-10216582D01*
X-33609676Y-10232858D01*
X-33594604Y-10246598D01*
X-33577264Y-10257335D01*
X-33558246Y-10264702D01*
X-33538198Y-10268450D01*
X-33538197Y-10268450D01*
X-33517803Y-10268450D01*
X-33517802Y-10268450D01*
X-33497754Y-10264702D01*
X-33478736Y-10257335D01*
X-33478736Y-10257335D01*
X-33461396Y-10246598D01*
X-33456488Y-10242124D01*
X-33450208Y-10239062D01*
X-33445961Y-10239564D01*
X-33446487Y-10238156D01*
X-33445001Y-10231329D01*
X-33444014Y-10229799D01*
X-33434032Y-10216582D01*
X-33424942Y-10198325D01*
X-33419360Y-10178708D01*
X-33417478Y-10158400D01*
X-33419360Y-10138092D01*
X-33424942Y-10118475D01*
X-33434032Y-10100218D01*
X-33446324Y-10083942D01*
X-33461396Y-10070202D01*
X-33478736Y-10059465D01*
X-33497754Y-10052098D01*
X-33509243Y-10049950D01*
X-33517802Y-10048350D01*
X-33538198Y-10048350D01*
X-33551563Y-10050848D01*
X-33558246Y-10052098D01*
X-33577264Y-10059465D01*
X-33594604Y-10070202D01*
X-33609676Y-10083942D01*
X-33621968Y-10100218D01*
X-33628656Y-10113651D01*
X-33631058Y-10118475D01*
X-33633979Y-10128741D01*
X-33636178Y-10136468D01*
X-33636640Y-10138092D01*
X-33638522Y-10158400D01*
X-33929350Y-10158400D01*
X-33929350Y-9904400D01*
X-33638522Y-9904400D01*
X-33636640Y-9924708D01*
X-33631058Y-9944325D01*
X-33628982Y-9948495D01*
X-33621968Y-9962582D01*
X-33621967Y-9962582D01*
X-33621967Y-9962582D01*
X-33611493Y-9976453D01*
X-33609676Y-9978858D01*
X-33601363Y-9986437D01*
X-33594604Y-9992598D01*
X-33577264Y-10003335D01*
X-33558246Y-10010702D01*
X-33538198Y-10014450D01*
X-33538197Y-10014450D01*
X-33517803Y-10014450D01*
X-33517802Y-10014450D01*
X-33497754Y-10010702D01*
X-33478736Y-10003335D01*
X-33478736Y-10003335D01*
X-33461396Y-9992598D01*
X-33446324Y-9978858D01*
X-33434032Y-9962582D01*
X-33424942Y-9944325D01*
X-33419360Y-9924708D01*
X-33417478Y-9904400D01*
X-33419360Y-9884092D01*
X-33424942Y-9864475D01*
X-33434032Y-9846218D01*
X-33446324Y-9829942D01*
X-33461396Y-9816202D01*
X-33478736Y-9805465D01*
X-33497754Y-9798098D01*
X-33509243Y-9795950D01*
X-33517802Y-9794350D01*
X-33538198Y-9794350D01*
X-33551563Y-9796848D01*
X-33558246Y-9798098D01*
X-33577264Y-9805465D01*
X-33594604Y-9816202D01*
X-33609676Y-9829942D01*
X-33621968Y-9846218D01*
X-33628656Y-9859651D01*
X-33631058Y-9864475D01*
X-33633252Y-9872185D01*
X-33636178Y-9882468D01*
X-33636640Y-9884092D01*
X-33638522Y-9904400D01*
X-33929350Y-9904400D01*
X-33929350Y-9650400D01*
X-33638522Y-9650400D01*
X-33636640Y-9670708D01*
X-33631058Y-9690325D01*
X-33628982Y-9694495D01*
X-33621968Y-9708582D01*
X-33621967Y-9708582D01*
X-33621967Y-9708582D01*
X-33609676Y-9724858D01*
X-33594604Y-9738598D01*
X-33577264Y-9749335D01*
X-33558246Y-9756702D01*
X-33538198Y-9760450D01*
X-33538197Y-9760450D01*
X-33517803Y-9760450D01*
X-33517802Y-9760450D01*
X-33497754Y-9756702D01*
X-33478736Y-9749335D01*
X-33478736Y-9749335D01*
X-33461396Y-9738598D01*
X-33446324Y-9724858D01*
X-33434032Y-9708582D01*
X-33424942Y-9690325D01*
X-33419360Y-9670708D01*
X-33417549Y-9651157D01*
X-33417478Y-9650400D01*
X-33417959Y-9645210D01*
X-33419360Y-9630092D01*
X-33424942Y-9610475D01*
X-33434032Y-9592218D01*
X-33446324Y-9575942D01*
X-33461396Y-9562202D01*
X-33478736Y-9551465D01*
X-33497754Y-9544098D01*
X-33507778Y-9542224D01*
X-33517802Y-9540350D01*
X-33538198Y-9540350D01*
X-33550185Y-9542591D01*
X-33558246Y-9544098D01*
X-33577264Y-9551465D01*
X-33594604Y-9562202D01*
X-33609676Y-9575942D01*
X-33621968Y-9592218D01*
X-33629445Y-9607235D01*
X-33631058Y-9610475D01*
X-33632455Y-9615382D01*
X-33636640Y-9630092D01*
X-33636752Y-9631302D01*
X-33638522Y-9650400D01*
X-33929350Y-9650400D01*
X-33929350Y-9572049D01*
X-33927382Y-9565345D01*
X-33925719Y-9563282D01*
X-33680519Y-9318082D01*
X-33674387Y-9314733D01*
X-33671751Y-9314450D01*
X-33628921Y-9314450D01*
X-33622217Y-9316419D01*
X-33617642Y-9321699D01*
X-33616647Y-9328615D01*
X-33619026Y-9334323D01*
X-33621968Y-9338218D01*
X-33630385Y-9355123D01*
X-33631058Y-9356475D01*
X-33632443Y-9361343D01*
X-33636576Y-9375868D01*
X-33636640Y-9376092D01*
X-33638522Y-9396400D01*
X-33636640Y-9416708D01*
X-33631058Y-9436325D01*
X-33627081Y-9444313D01*
X-33621968Y-9454582D01*
X-33621967Y-9454582D01*
X-33621967Y-9454582D01*
X-33609676Y-9470858D01*
X-33594604Y-9484598D01*
X-33577264Y-9495335D01*
X-33558246Y-9502702D01*
X-33538198Y-9506450D01*
X-33538197Y-9506450D01*
X-33517803Y-9506450D01*
X-33517802Y-9506450D01*
X-33497754Y-9502702D01*
X-33478736Y-9495335D01*
X-33478736Y-9495335D01*
X-33461396Y-9484598D01*
X-33446324Y-9470858D01*
X-33434032Y-9454582D01*
X-33424942Y-9436325D01*
X-33419360Y-9416708D01*
X-33417478Y-9396400D01*
X-33419360Y-9376092D01*
X-33424942Y-9356475D01*
X-33434032Y-9338218D01*
X-33436974Y-9334323D01*
X-33439443Y-9327787D01*
X-33437987Y-9320953D01*
X-33433067Y-9315992D01*
X-33427079Y-9314450D01*
X-31994450Y-9314450D01*
X-31987746Y-9316419D01*
X-31983171Y-9321699D01*
X-31982050Y-9326850D01*
X-31982050Y-9440327D01*
X-31982832Y-9444660D01*
X-31985025Y-9450542D01*
X-31986409Y-9454252D01*
X-31987050Y-9460213D01*
X-31987050Y-9589787D01*
X-31986409Y-9595748D01*
X-31981380Y-9609233D01*
X-31972755Y-9620755D01*
X-31961233Y-9629380D01*
X-31947748Y-9634409D01*
X-31942114Y-9635015D01*
X-31935660Y-9637689D01*
X-31931675Y-9643428D01*
X-31931425Y-9650410D01*
X-31934990Y-9656419D01*
X-31938200Y-9658582D01*
X-31944758Y-9661640D01*
X-31953137Y-9667507D01*
X-31953137Y-9667507D01*
X-31890253Y-9730391D01*
X-31891231Y-9730532D01*
X-31904310Y-9736505D01*
X-31915176Y-9745920D01*
X-31922949Y-9758016D01*
X-31925308Y-9766047D01*
X-31988492Y-9702863D01*
X-31988493Y-9702863D01*
X-31994360Y-9711242D01*
X-32004343Y-9732651D01*
X-32005241Y-9736001D01*
X-32008877Y-9741967D01*
X-32015162Y-9745020D01*
X-32022099Y-9744191D01*
X-32027487Y-9739742D01*
X-32028318Y-9738319D01*
X-32037033Y-9720818D01*
X-32049324Y-9704542D01*
X-32064396Y-9690802D01*
X-32081736Y-9680065D01*
X-32100754Y-9672698D01*
X-32111653Y-9670660D01*
X-32120802Y-9668950D01*
X-32141198Y-9668950D01*
X-32150347Y-9670660D01*
X-32161246Y-9672698D01*
X-32180264Y-9680065D01*
X-32197604Y-9690802D01*
X-32212676Y-9704542D01*
X-32224967Y-9720818D01*
X-32230859Y-9732651D01*
X-32234058Y-9739075D01*
X-32236528Y-9747755D01*
X-32239447Y-9758016D01*
X-32239640Y-9758692D01*
X-32241521Y-9779000D01*
X-32239640Y-9799308D01*
X-32234058Y-9818925D01*
X-32233682Y-9819681D01*
X-32224967Y-9837182D01*
X-32224967Y-9837182D01*
X-32224967Y-9837182D01*
X-32212676Y-9853458D01*
X-32212676Y-9853458D01*
X-32208207Y-9857532D01*
X-32197604Y-9867198D01*
X-32180264Y-9877935D01*
X-32161246Y-9885302D01*
X-32141198Y-9889050D01*
X-32141197Y-9889050D01*
X-32120803Y-9889050D01*
X-32120802Y-9889050D01*
X-32100754Y-9885302D01*
X-32081736Y-9877935D01*
X-32073637Y-9872920D01*
X-32064396Y-9867198D01*
X-32049324Y-9853458D01*
X-32037033Y-9837182D01*
X-32028318Y-9819681D01*
X-32023568Y-9814557D01*
X-32016802Y-9812815D01*
X-32010168Y-9815008D01*
X-32005772Y-9820439D01*
X-32005241Y-9821999D01*
X-32004343Y-9825349D01*
X-31994360Y-9846758D01*
X-31988492Y-9855137D01*
X-31925308Y-9791952D01*
X-31922949Y-9799984D01*
X-31915176Y-9812080D01*
X-31904310Y-9821495D01*
X-31891231Y-9827468D01*
X-31890253Y-9827609D01*
X-31953137Y-9890493D01*
X-31944758Y-9896360D01*
X-31923349Y-9906343D01*
X-31900532Y-9912457D01*
X-31877000Y-9914516D01*
X-31853468Y-9912457D01*
X-31830651Y-9906343D01*
X-31809242Y-9896360D01*
X-31800862Y-9890493D01*
X-31863747Y-9827609D01*
X-31862768Y-9827468D01*
X-31849690Y-9821495D01*
X-31838824Y-9812080D01*
X-31831051Y-9799984D01*
X-31828692Y-9791952D01*
X-31765507Y-9855137D01*
X-31765507Y-9855137D01*
X-31759640Y-9846758D01*
X-31749657Y-9825349D01*
X-31743543Y-9802532D01*
X-31741484Y-9779000D01*
X-31743543Y-9755468D01*
X-31749657Y-9732651D01*
X-31759640Y-9711242D01*
X-31765507Y-9702863D01*
X-31828692Y-9766048D01*
X-31831051Y-9758016D01*
X-31838824Y-9745920D01*
X-31849690Y-9736505D01*
X-31862768Y-9730532D01*
X-31863747Y-9730391D01*
X-31800862Y-9667507D01*
X-31800863Y-9667507D01*
X-31809242Y-9661640D01*
X-31815800Y-9658582D01*
X-31821044Y-9653965D01*
X-31822959Y-9647245D01*
X-31820938Y-9640557D01*
X-31815621Y-9636024D01*
X-31811885Y-9635015D01*
X-31806252Y-9634409D01*
X-31792767Y-9629380D01*
X-31781245Y-9620755D01*
X-31772620Y-9609233D01*
X-31767591Y-9595748D01*
X-31766950Y-9589787D01*
X-31766950Y-9527955D01*
X-31766950Y-9460544D01*
X-31766950Y-9460542D01*
X-31766950Y-9460213D01*
X-31767591Y-9454252D01*
X-31768975Y-9450542D01*
X-31771168Y-9444660D01*
X-31771950Y-9440327D01*
X-31771950Y-9276770D01*
X-31771890Y-9275555D01*
X-31771442Y-9271000D01*
X-31773470Y-9250407D01*
X-31779477Y-9230604D01*
X-31789231Y-9212355D01*
X-31799069Y-9200368D01*
X-31802359Y-9196359D01*
X-31805898Y-9193455D01*
X-31806799Y-9192638D01*
X-31860238Y-9139199D01*
X-31861055Y-9138298D01*
X-31863959Y-9134759D01*
X-31879955Y-9121632D01*
X-31891093Y-9115678D01*
X-31898204Y-9111877D01*
X-31918007Y-9105870D01*
X-31938600Y-9103842D01*
X-31943155Y-9104290D01*
X-31944370Y-9104350D01*
X-33714630Y-9104350D01*
X-33715845Y-9104290D01*
X-33720400Y-9103842D01*
X-33720400Y-9103842D01*
X-33724955Y-9104290D01*
X-33725561Y-9104350D01*
X-33740993Y-9105870D01*
X-33750894Y-9108873D01*
X-33760795Y-9111877D01*
X-33779045Y-9121632D01*
X-33794643Y-9134433D01*
X-33795041Y-9134759D01*
X-33797945Y-9138297D01*
X-33798762Y-9139199D01*
X-34104601Y-9445038D01*
X-34105503Y-9445855D01*
X-34108965Y-9448697D01*
X-34109041Y-9448759D01*
X-34118441Y-9460213D01*
X-34122169Y-9464755D01*
X-34131923Y-9483005D01*
X-34137930Y-9502807D01*
X-34139958Y-9523400D01*
X-34139510Y-9527955D01*
X-34139450Y-9529170D01*
X-34139450Y-12395751D01*
X-34141419Y-12402454D01*
X-34143082Y-12404519D01*
X-34583881Y-12845318D01*
X-34590014Y-12848667D01*
X-34592649Y-12848950D01*
X-35511351Y-12848950D01*
X-35518055Y-12846981D01*
X-35520119Y-12845318D01*
X-35705318Y-12660119D01*
X-35708667Y-12653986D01*
X-35708950Y-12651350D01*
X-35708950Y-12469400D01*
X-35185064Y-12469400D01*
X-35179343Y-12490749D01*
X-35169360Y-12512158D01*
X-35155811Y-12531508D01*
X-35139108Y-12548211D01*
X-35119758Y-12561760D01*
X-35098349Y-12571743D01*
X-35094442Y-12572790D01*
X-35088476Y-12576426D01*
X-35085423Y-12582711D01*
X-35086252Y-12589649D01*
X-35090700Y-12595037D01*
X-35093171Y-12596330D01*
X-35099196Y-12598664D01*
X-35101264Y-12599465D01*
X-35118604Y-12610202D01*
X-35133676Y-12623942D01*
X-35145968Y-12640218D01*
X-35154894Y-12658146D01*
X-35155058Y-12658475D01*
X-35160640Y-12678092D01*
X-35162522Y-12698400D01*
X-35160640Y-12718708D01*
X-35155058Y-12738325D01*
X-35151927Y-12744614D01*
X-35145968Y-12756582D01*
X-35145967Y-12756582D01*
X-35145967Y-12756582D01*
X-35133676Y-12772858D01*
X-35118604Y-12786598D01*
X-35101264Y-12797335D01*
X-35082246Y-12804702D01*
X-35062198Y-12808450D01*
X-35062197Y-12808450D01*
X-35041803Y-12808450D01*
X-35041802Y-12808450D01*
X-35021754Y-12804702D01*
X-35002736Y-12797335D01*
X-35002736Y-12797335D01*
X-34985396Y-12786598D01*
X-34970324Y-12772858D01*
X-34958032Y-12756582D01*
X-34948942Y-12738325D01*
X-34943360Y-12718708D01*
X-34941479Y-12698400D01*
X-34943360Y-12678092D01*
X-34948942Y-12658475D01*
X-34958032Y-12640218D01*
X-34970324Y-12623942D01*
X-34985396Y-12610202D01*
X-35002736Y-12599465D01*
X-35010829Y-12596330D01*
X-35016369Y-12592073D01*
X-35018728Y-12585496D01*
X-35017157Y-12578688D01*
X-35012154Y-12573810D01*
X-35009558Y-12572790D01*
X-35005651Y-12571743D01*
X-34984242Y-12561760D01*
X-34964892Y-12548211D01*
X-34948189Y-12531508D01*
X-34934640Y-12512158D01*
X-34924657Y-12490749D01*
X-34918936Y-12469400D01*
X-35008631Y-12469400D01*
X-35006051Y-12465384D01*
X-35002000Y-12451589D01*
X-35002000Y-12437211D01*
X-35006051Y-12423416D01*
X-35008631Y-12419400D01*
X-34918936Y-12419400D01*
X-34918936Y-12419400D01*
X-34924657Y-12398051D01*
X-34934640Y-12376642D01*
X-34948189Y-12357292D01*
X-34964892Y-12340589D01*
X-34984242Y-12327040D01*
X-35005651Y-12317057D01*
X-35009559Y-12316010D01*
X-35015525Y-12312373D01*
X-35018577Y-12306088D01*
X-35017748Y-12299151D01*
X-35013299Y-12293763D01*
X-35010829Y-12292470D01*
X-35002736Y-12289335D01*
X-35002736Y-12289335D01*
X-34985396Y-12278598D01*
X-34970324Y-12264858D01*
X-34958032Y-12248582D01*
X-34948942Y-12230325D01*
X-34943360Y-12210708D01*
X-34941479Y-12190400D01*
X-34943360Y-12170092D01*
X-34948942Y-12150475D01*
X-34958032Y-12132218D01*
X-34970324Y-12115942D01*
X-34985396Y-12102202D01*
X-35002736Y-12091465D01*
X-35021754Y-12084098D01*
X-35031778Y-12082224D01*
X-35041802Y-12080350D01*
X-35062198Y-12080350D01*
X-35075563Y-12082848D01*
X-35082246Y-12084098D01*
X-35101264Y-12091465D01*
X-35118604Y-12102202D01*
X-35133676Y-12115942D01*
X-35145968Y-12132218D01*
X-35152651Y-12145641D01*
X-35155058Y-12150475D01*
X-35160640Y-12170092D01*
X-35162522Y-12190400D01*
X-35160640Y-12210708D01*
X-35155058Y-12230325D01*
X-35152005Y-12236456D01*
X-35145968Y-12248582D01*
X-35145967Y-12248582D01*
X-35145967Y-12248582D01*
X-35133676Y-12264858D01*
X-35118604Y-12278598D01*
X-35101264Y-12289335D01*
X-35093171Y-12292470D01*
X-35087631Y-12296727D01*
X-35085272Y-12303303D01*
X-35086843Y-12310111D01*
X-35091846Y-12314989D01*
X-35094441Y-12316010D01*
X-35098349Y-12317057D01*
X-35119758Y-12327040D01*
X-35139108Y-12340589D01*
X-35155811Y-12357292D01*
X-35169360Y-12376642D01*
X-35179343Y-12398051D01*
X-35185064Y-12419400D01*
X-35185064Y-12419400D01*
X-35095369Y-12419400D01*
X-35097949Y-12423416D01*
X-35102000Y-12437211D01*
X-35102000Y-12451589D01*
X-35097949Y-12465384D01*
X-35095369Y-12469400D01*
X-35185064Y-12469400D01*
X-35708950Y-12469400D01*
X-35708950Y-11936400D01*
X-35162522Y-11936400D01*
X-35160640Y-11956708D01*
X-35155058Y-11976325D01*
X-35154001Y-11978448D01*
X-35145968Y-11994582D01*
X-35145967Y-11994582D01*
X-35145967Y-11994582D01*
X-35133676Y-12010858D01*
X-35118604Y-12024598D01*
X-35101264Y-12035335D01*
X-35082246Y-12042702D01*
X-35062198Y-12046450D01*
X-35062197Y-12046450D01*
X-35041803Y-12046450D01*
X-35041802Y-12046450D01*
X-35021754Y-12042702D01*
X-35002736Y-12035335D01*
X-35002736Y-12035335D01*
X-34985396Y-12024598D01*
X-34970324Y-12010858D01*
X-34958032Y-11994582D01*
X-34948942Y-11976325D01*
X-34943360Y-11956708D01*
X-34941479Y-11936400D01*
X-34943360Y-11916092D01*
X-34948942Y-11896475D01*
X-34958032Y-11878218D01*
X-34970324Y-11861942D01*
X-34985396Y-11848202D01*
X-35002736Y-11837465D01*
X-35021754Y-11830098D01*
X-35031778Y-11828224D01*
X-35041802Y-11826350D01*
X-35062198Y-11826350D01*
X-35075563Y-11828848D01*
X-35082246Y-11830098D01*
X-35101264Y-11837465D01*
X-35118604Y-11848202D01*
X-35133676Y-11861942D01*
X-35145968Y-11878218D01*
X-35152232Y-11890799D01*
X-35155058Y-11896475D01*
X-35157442Y-11904851D01*
X-35160250Y-11914722D01*
X-35160640Y-11916092D01*
X-35162522Y-11936400D01*
X-35708950Y-11936400D01*
X-35708950Y-11682400D01*
X-35162522Y-11682400D01*
X-35160640Y-11702708D01*
X-35155058Y-11722325D01*
X-35151635Y-11729199D01*
X-35145968Y-11740582D01*
X-35145967Y-11740582D01*
X-35145967Y-11740582D01*
X-35134416Y-11755878D01*
X-35133676Y-11756858D01*
X-35120109Y-11769226D01*
X-35118604Y-11770598D01*
X-35101264Y-11781335D01*
X-35082246Y-11788702D01*
X-35062198Y-11792450D01*
X-35062197Y-11792450D01*
X-35041803Y-11792450D01*
X-35041802Y-11792450D01*
X-35021754Y-11788702D01*
X-35002736Y-11781335D01*
X-35002736Y-11781335D01*
X-34985396Y-11770598D01*
X-34970324Y-11756858D01*
X-34958032Y-11740582D01*
X-34948942Y-11722325D01*
X-34943360Y-11702708D01*
X-34941479Y-11682400D01*
X-34943360Y-11662092D01*
X-34948942Y-11642475D01*
X-34958032Y-11624218D01*
X-34970324Y-11607942D01*
X-34985396Y-11594202D01*
X-35002736Y-11583465D01*
X-35021754Y-11576098D01*
X-35031778Y-11574224D01*
X-35041802Y-11572350D01*
X-35062198Y-11572350D01*
X-35075563Y-11574848D01*
X-35082246Y-11576098D01*
X-35101264Y-11583465D01*
X-35118604Y-11594202D01*
X-35133676Y-11607942D01*
X-35145968Y-11624218D01*
X-35153626Y-11639599D01*
X-35155058Y-11642475D01*
X-35156288Y-11646799D01*
X-35160640Y-11662092D01*
X-35160706Y-11662802D01*
X-35162522Y-11682400D01*
X-35708950Y-11682400D01*
X-35708950Y-11428400D01*
X-35162522Y-11428400D01*
X-35160640Y-11448708D01*
X-35155058Y-11468325D01*
X-35151814Y-11474840D01*
X-35145968Y-11486582D01*
X-35145967Y-11486582D01*
X-35145967Y-11486582D01*
X-35133676Y-11502858D01*
X-35118604Y-11516598D01*
X-35101264Y-11527335D01*
X-35082246Y-11534702D01*
X-35062198Y-11538450D01*
X-35062197Y-11538450D01*
X-35041803Y-11538450D01*
X-35041802Y-11538450D01*
X-35021754Y-11534702D01*
X-35002736Y-11527335D01*
X-35002736Y-11527335D01*
X-34985396Y-11516598D01*
X-34970324Y-11502858D01*
X-34958032Y-11486582D01*
X-34948942Y-11468325D01*
X-34943360Y-11448708D01*
X-34941479Y-11428400D01*
X-34943360Y-11408092D01*
X-34948942Y-11388475D01*
X-34958032Y-11370218D01*
X-34970324Y-11353942D01*
X-34985396Y-11340202D01*
X-35002736Y-11329465D01*
X-35021754Y-11322098D01*
X-35031778Y-11320224D01*
X-35041802Y-11318350D01*
X-35062198Y-11318350D01*
X-35075563Y-11320848D01*
X-35082246Y-11322098D01*
X-35101264Y-11329465D01*
X-35118604Y-11340202D01*
X-35133676Y-11353942D01*
X-35145968Y-11370218D01*
X-35154882Y-11388121D01*
X-35155058Y-11388475D01*
X-35157709Y-11397790D01*
X-35160640Y-11408092D01*
X-35160706Y-11408802D01*
X-35162522Y-11428400D01*
X-35708950Y-11428400D01*
X-35708950Y-11308770D01*
X-35708890Y-11307554D01*
X-35708442Y-11303000D01*
X-35710470Y-11282407D01*
X-35716477Y-11262604D01*
X-35726231Y-11244355D01*
X-35731429Y-11238022D01*
X-35739359Y-11228359D01*
X-35742898Y-11225455D01*
X-35743799Y-11224638D01*
X-35981819Y-10986618D01*
X-35985167Y-10980486D01*
X-35984669Y-10973517D01*
X-35980482Y-10967923D01*
X-35973935Y-10965482D01*
X-35973051Y-10965450D01*
X-35160184Y-10965450D01*
X-35153480Y-10967419D01*
X-35149084Y-10972323D01*
X-35145967Y-10978582D01*
X-35133676Y-10994858D01*
X-35118604Y-11008598D01*
X-35101264Y-11019335D01*
X-35082246Y-11026702D01*
X-35062198Y-11030450D01*
X-35062197Y-11030450D01*
X-35041803Y-11030450D01*
X-35041802Y-11030450D01*
X-35021754Y-11026702D01*
X-35002736Y-11019335D01*
X-34992465Y-11012975D01*
X-34985396Y-11008598D01*
X-34980488Y-11004124D01*
X-34974208Y-11001062D01*
X-34969962Y-11001564D01*
X-34970487Y-11000156D01*
X-34969001Y-10993329D01*
X-34968014Y-10991799D01*
X-34958032Y-10978582D01*
X-34948942Y-10960325D01*
X-34943360Y-10940708D01*
X-34941479Y-10920400D01*
X-34943360Y-10900092D01*
X-34948942Y-10880475D01*
X-34958032Y-10862218D01*
X-34970324Y-10845942D01*
X-34985396Y-10832202D01*
X-35002736Y-10821465D01*
X-35021754Y-10814098D01*
X-35031778Y-10812224D01*
X-35041802Y-10810350D01*
X-35062198Y-10810350D01*
X-35074580Y-10812665D01*
X-35082246Y-10814098D01*
X-35101264Y-10821465D01*
X-35118604Y-10832202D01*
X-35133676Y-10845942D01*
X-35138665Y-10852548D01*
X-35145967Y-10862218D01*
X-35149084Y-10868477D01*
X-35153834Y-10873601D01*
X-35160184Y-10875350D01*
X-36045804Y-10875350D01*
X-36052507Y-10873382D01*
X-36054572Y-10871718D01*
X-36527318Y-10398972D01*
X-36530667Y-10392839D01*
X-36530950Y-10390203D01*
X-36530950Y-10163226D01*
X-36530872Y-10161838D01*
X-36530473Y-10158296D01*
X-36531536Y-10152678D01*
X-36531613Y-10152222D01*
X-36532555Y-10145976D01*
X-36532717Y-10145483D01*
X-36535670Y-10139896D01*
X-36535879Y-10139483D01*
X-36538618Y-10133795D01*
X-36538919Y-10133371D01*
X-36543385Y-10128905D01*
X-36543706Y-10128571D01*
X-36548004Y-10123939D01*
X-36549493Y-10122797D01*
X-37049863Y-9622426D01*
X-37050790Y-9621390D01*
X-37053012Y-9618603D01*
X-37057736Y-9615382D01*
X-37058113Y-9615114D01*
X-37063196Y-9611363D01*
X-37063658Y-9611130D01*
X-37069697Y-9609267D01*
X-37070137Y-9609123D01*
X-37076097Y-9607037D01*
X-37076609Y-9606950D01*
X-37077210Y-9606950D01*
X-37082926Y-9606950D01*
X-37083390Y-9606941D01*
X-37089703Y-9606705D01*
X-37091564Y-9606950D01*
X-37362533Y-9606950D01*
X-37369237Y-9604982D01*
X-37373468Y-9600395D01*
X-37377231Y-9593355D01*
X-37390359Y-9577359D01*
X-37406355Y-9564231D01*
X-37424604Y-9554477D01*
X-37444407Y-9548470D01*
X-37465000Y-9546442D01*
X-37485593Y-9548470D01*
X-37495467Y-9551465D01*
X-37505395Y-9554477D01*
X-37523645Y-9564232D01*
X-37528428Y-9568157D01*
X-37539641Y-9577359D01*
X-37543212Y-9581710D01*
X-37552769Y-9593355D01*
X-37562523Y-9611605D01*
X-37568530Y-9631407D01*
X-37570558Y-9652000D01*
X-38267950Y-9652000D01*
X-38267950Y-9449305D01*
X-38267935Y-9448697D01*
X-38266160Y-9412563D01*
X-38266041Y-9411352D01*
X-38260777Y-9375868D01*
X-38260540Y-9374675D01*
X-38251823Y-9339877D01*
X-38251470Y-9338713D01*
X-38251293Y-9338218D01*
X-38242890Y-9314733D01*
X-38239386Y-9304939D01*
X-38238920Y-9303815D01*
X-38223582Y-9271386D01*
X-38223376Y-9271000D01*
X-37570558Y-9271000D01*
X-37568530Y-9291593D01*
X-37562523Y-9311395D01*
X-37552769Y-9329645D01*
X-37539641Y-9345641D01*
X-37523645Y-9358769D01*
X-37505395Y-9368523D01*
X-37485593Y-9374530D01*
X-37465000Y-9376558D01*
X-37444407Y-9374530D01*
X-37424605Y-9368523D01*
X-37406355Y-9358769D01*
X-37398357Y-9352205D01*
X-37390359Y-9345641D01*
X-37377231Y-9329645D01*
X-37373468Y-9322605D01*
X-37368572Y-9317620D01*
X-37362533Y-9316050D01*
X-37234797Y-9316050D01*
X-37228093Y-9318019D01*
X-37226029Y-9319682D01*
X-36370682Y-10175028D01*
X-36367333Y-10181161D01*
X-36367050Y-10183797D01*
X-36367050Y-10410774D01*
X-36367128Y-10412162D01*
X-36367246Y-10413211D01*
X-36367527Y-10415704D01*
X-36366570Y-10420764D01*
X-36366464Y-10421321D01*
X-36366387Y-10421773D01*
X-36365535Y-10427429D01*
X-36365535Y-10427429D01*
X-36365445Y-10428027D01*
X-36365285Y-10428513D01*
X-36365002Y-10429047D01*
X-36365002Y-10429047D01*
X-36362329Y-10434105D01*
X-36362123Y-10434514D01*
X-36359643Y-10439664D01*
X-36359642Y-10439664D01*
X-36359381Y-10440208D01*
X-36359083Y-10440627D01*
X-36358657Y-10441053D01*
X-36358657Y-10441054D01*
X-36354610Y-10445100D01*
X-36354296Y-10445426D01*
X-36350406Y-10449619D01*
X-36350405Y-10449620D01*
X-36349995Y-10450061D01*
X-36348507Y-10451203D01*
X-36103736Y-10695974D01*
X-36102811Y-10697009D01*
X-36100588Y-10699797D01*
X-36095862Y-10703019D01*
X-36095487Y-10703285D01*
X-36090888Y-10706679D01*
X-36090888Y-10706679D01*
X-36090402Y-10707038D01*
X-36089944Y-10707269D01*
X-36089368Y-10707447D01*
X-36089367Y-10707447D01*
X-36083901Y-10709133D01*
X-36083465Y-10709277D01*
X-36078070Y-10711165D01*
X-36078070Y-10711165D01*
X-36077501Y-10711364D01*
X-36076993Y-10711450D01*
X-36076390Y-10711450D01*
X-36070674Y-10711450D01*
X-36070210Y-10711459D01*
X-36064499Y-10711672D01*
X-36064499Y-10711672D01*
X-36063897Y-10711695D01*
X-36062037Y-10711450D01*
X-35160184Y-10711450D01*
X-35153480Y-10713419D01*
X-35149084Y-10718323D01*
X-35145967Y-10724582D01*
X-35133676Y-10740858D01*
X-35118604Y-10754598D01*
X-35101264Y-10765335D01*
X-35082246Y-10772702D01*
X-35062198Y-10776450D01*
X-35062197Y-10776450D01*
X-35041803Y-10776450D01*
X-35041802Y-10776450D01*
X-35021754Y-10772702D01*
X-35002736Y-10765335D01*
X-35002736Y-10765335D01*
X-34985396Y-10754598D01*
X-34970324Y-10740858D01*
X-34958032Y-10724582D01*
X-34948942Y-10706325D01*
X-34943360Y-10686708D01*
X-34941479Y-10666400D01*
X-34943360Y-10646092D01*
X-34948942Y-10626475D01*
X-34958032Y-10608218D01*
X-34970324Y-10591942D01*
X-34985396Y-10578202D01*
X-35002736Y-10567465D01*
X-35021754Y-10560098D01*
X-35031778Y-10558224D01*
X-35041802Y-10556350D01*
X-35062198Y-10556350D01*
X-35075563Y-10558848D01*
X-35082246Y-10560098D01*
X-35101264Y-10567465D01*
X-35118604Y-10578202D01*
X-35133676Y-10591942D01*
X-35139308Y-10599399D01*
X-35145967Y-10608218D01*
X-35149084Y-10614477D01*
X-35153834Y-10619601D01*
X-35160184Y-10621350D01*
X-36045803Y-10621350D01*
X-36052507Y-10619382D01*
X-36054572Y-10617718D01*
X-36258290Y-10414000D01*
X-36024766Y-10414000D01*
X-36022707Y-10437532D01*
X-36016593Y-10460349D01*
X-36006610Y-10481758D01*
X-36000743Y-10490137D01*
X-35937558Y-10426952D01*
X-35935199Y-10434984D01*
X-35927426Y-10447080D01*
X-35916560Y-10456495D01*
X-35903482Y-10462468D01*
X-35902503Y-10462609D01*
X-35965387Y-10525493D01*
X-35957008Y-10531360D01*
X-35935599Y-10541343D01*
X-35912782Y-10547457D01*
X-35889250Y-10549516D01*
X-35865718Y-10547457D01*
X-35842901Y-10541343D01*
X-35821492Y-10531360D01*
X-35813113Y-10525493D01*
X-35875997Y-10462609D01*
X-35875019Y-10462468D01*
X-35861940Y-10456495D01*
X-35851074Y-10447080D01*
X-35843301Y-10434984D01*
X-35840942Y-10426952D01*
X-35777757Y-10490137D01*
X-35777757Y-10490137D01*
X-35771890Y-10481758D01*
X-35761907Y-10460349D01*
X-35761009Y-10456999D01*
X-35757373Y-10451033D01*
X-35751088Y-10447980D01*
X-35744150Y-10448810D01*
X-35738763Y-10453258D01*
X-35737932Y-10454681D01*
X-35734885Y-10460799D01*
X-35729217Y-10472182D01*
X-35718135Y-10486858D01*
X-35716926Y-10488458D01*
X-35703609Y-10500598D01*
X-35701854Y-10502198D01*
X-35684514Y-10512935D01*
X-35665496Y-10520302D01*
X-35645448Y-10524050D01*
X-35645447Y-10524050D01*
X-35625053Y-10524050D01*
X-35625052Y-10524050D01*
X-35605004Y-10520302D01*
X-35585986Y-10512935D01*
X-35585986Y-10512935D01*
X-35568646Y-10502198D01*
X-35553574Y-10488458D01*
X-35541283Y-10472182D01*
X-35539789Y-10469183D01*
X-35538166Y-10465923D01*
X-35533416Y-10460799D01*
X-35527066Y-10459050D01*
X-35159387Y-10459050D01*
X-35152684Y-10461019D01*
X-35148287Y-10465923D01*
X-35145967Y-10470582D01*
X-35133676Y-10486858D01*
X-35118604Y-10500598D01*
X-35101264Y-10511335D01*
X-35082246Y-10518702D01*
X-35062198Y-10522450D01*
X-35062197Y-10522450D01*
X-35041803Y-10522450D01*
X-35041802Y-10522450D01*
X-35021754Y-10518702D01*
X-35002736Y-10511335D01*
X-35002736Y-10511335D01*
X-34985396Y-10500598D01*
X-34970324Y-10486858D01*
X-34958032Y-10470582D01*
X-34948942Y-10452325D01*
X-34943360Y-10432708D01*
X-34941549Y-10413157D01*
X-34941479Y-10412400D01*
X-34941629Y-10410774D01*
X-34943360Y-10392092D01*
X-34948942Y-10372475D01*
X-34958032Y-10354218D01*
X-34970324Y-10337942D01*
X-34985396Y-10324202D01*
X-35002736Y-10313465D01*
X-35021754Y-10306098D01*
X-35033876Y-10303832D01*
X-35041802Y-10302350D01*
X-35062198Y-10302350D01*
X-35075563Y-10304848D01*
X-35082246Y-10306098D01*
X-35101264Y-10313465D01*
X-35118604Y-10324202D01*
X-35133676Y-10337942D01*
X-35134885Y-10339542D01*
X-35145967Y-10354218D01*
X-35149881Y-10362077D01*
X-35154631Y-10367201D01*
X-35160981Y-10368950D01*
X-35527066Y-10368950D01*
X-35533770Y-10366982D01*
X-35538166Y-10362077D01*
X-35539301Y-10359798D01*
X-35541283Y-10355818D01*
X-35553574Y-10339542D01*
X-35568646Y-10325802D01*
X-35585986Y-10315065D01*
X-35594079Y-10311930D01*
X-35599619Y-10307673D01*
X-35601978Y-10301096D01*
X-35600407Y-10294288D01*
X-35595404Y-10289410D01*
X-35592808Y-10288390D01*
X-35588901Y-10287343D01*
X-35567492Y-10277360D01*
X-35559113Y-10271493D01*
X-35621997Y-10208609D01*
X-35621019Y-10208468D01*
X-35607940Y-10202495D01*
X-35597074Y-10193080D01*
X-35589301Y-10180984D01*
X-35586942Y-10172952D01*
X-35523757Y-10236137D01*
X-35523757Y-10236137D01*
X-35517890Y-10227758D01*
X-35507907Y-10206349D01*
X-35501793Y-10183532D01*
X-35499734Y-10160000D01*
X-35501793Y-10136468D01*
X-35507907Y-10113651D01*
X-35516937Y-10094286D01*
X-35517986Y-10087378D01*
X-35515134Y-10081000D01*
X-35509287Y-10077176D01*
X-35505235Y-10076654D01*
X-35504749Y-10076673D01*
X-35504749Y-10076672D01*
X-35504147Y-10076695D01*
X-35502286Y-10076450D01*
X-35152921Y-10076450D01*
X-35146217Y-10078419D01*
X-35141642Y-10083699D01*
X-35140647Y-10090615D01*
X-35143026Y-10096323D01*
X-35145968Y-10100218D01*
X-35152656Y-10113651D01*
X-35155058Y-10118475D01*
X-35157979Y-10128741D01*
X-35160640Y-10138092D01*
X-35160788Y-10139692D01*
X-35162522Y-10158400D01*
X-35160640Y-10178708D01*
X-35155058Y-10198325D01*
X-35154372Y-10199703D01*
X-35145968Y-10216582D01*
X-35145967Y-10216582D01*
X-35145967Y-10216582D01*
X-35133676Y-10232858D01*
X-35118604Y-10246598D01*
X-35101264Y-10257335D01*
X-35082246Y-10264702D01*
X-35062198Y-10268450D01*
X-35062197Y-10268450D01*
X-35041803Y-10268450D01*
X-35041802Y-10268450D01*
X-35021754Y-10264702D01*
X-35002736Y-10257335D01*
X-35002736Y-10257335D01*
X-34985396Y-10246598D01*
X-34970324Y-10232858D01*
X-34958032Y-10216582D01*
X-34948942Y-10198325D01*
X-34943360Y-10178708D01*
X-34941479Y-10158400D01*
X-34943360Y-10138092D01*
X-34948942Y-10118475D01*
X-34958032Y-10100218D01*
X-34960974Y-10096323D01*
X-34963443Y-10089787D01*
X-34961987Y-10082953D01*
X-34957067Y-10077992D01*
X-34951079Y-10076450D01*
X-34950397Y-10076450D01*
X-34943693Y-10078419D01*
X-34941629Y-10080082D01*
X-34846682Y-10175028D01*
X-34843333Y-10181161D01*
X-34843050Y-10183797D01*
X-34843050Y-10896603D01*
X-34845019Y-10903307D01*
X-34846682Y-10905372D01*
X-34949350Y-11008040D01*
X-34955482Y-11011388D01*
X-34960360Y-11011039D01*
X-34959738Y-11012975D01*
X-34961537Y-11019727D01*
X-34963366Y-11022056D01*
X-35007142Y-11065832D01*
X-35013274Y-11069180D01*
X-35020244Y-11068682D01*
X-35020389Y-11068627D01*
X-35021754Y-11068098D01*
X-35033876Y-11065832D01*
X-35041802Y-11064350D01*
X-35062198Y-11064350D01*
X-35075563Y-11066848D01*
X-35082246Y-11068098D01*
X-35101264Y-11075465D01*
X-35118604Y-11086202D01*
X-35133676Y-11099942D01*
X-35145968Y-11116218D01*
X-35155021Y-11134400D01*
X-35155058Y-11134475D01*
X-35157180Y-11141933D01*
X-35160640Y-11154092D01*
X-35160706Y-11154802D01*
X-35162522Y-11174400D01*
X-35160640Y-11194708D01*
X-35155058Y-11214325D01*
X-35151635Y-11221199D01*
X-35145968Y-11232582D01*
X-35145967Y-11232582D01*
X-35145967Y-11232582D01*
X-35133676Y-11248858D01*
X-35118604Y-11262598D01*
X-35101264Y-11273335D01*
X-35082246Y-11280702D01*
X-35062198Y-11284450D01*
X-35062197Y-11284450D01*
X-35041803Y-11284450D01*
X-35041802Y-11284450D01*
X-35021754Y-11280702D01*
X-35002736Y-11273335D01*
X-35002736Y-11273335D01*
X-34985396Y-11262598D01*
X-34970324Y-11248858D01*
X-34958032Y-11232582D01*
X-34948942Y-11214325D01*
X-34943360Y-11194708D01*
X-34941479Y-11174400D01*
X-34943360Y-11154092D01*
X-34946820Y-11141933D01*
X-34946761Y-11134946D01*
X-34943661Y-11129772D01*
X-34768426Y-10954536D01*
X-34767389Y-10953610D01*
X-34764603Y-10951388D01*
X-34761383Y-10946665D01*
X-34761116Y-10946288D01*
X-34757363Y-10941204D01*
X-34757130Y-10940742D01*
X-34755268Y-10934704D01*
X-34755123Y-10934264D01*
X-34753037Y-10928303D01*
X-34752950Y-10927792D01*
X-34752950Y-10921474D01*
X-34752941Y-10921010D01*
X-34752705Y-10914697D01*
X-34752950Y-10912836D01*
X-34752950Y-10163226D01*
X-34752872Y-10161838D01*
X-34752473Y-10158296D01*
X-34753536Y-10152678D01*
X-34753613Y-10152222D01*
X-34754555Y-10145976D01*
X-34754717Y-10145484D01*
X-34757670Y-10139897D01*
X-34757877Y-10139485D01*
X-34760358Y-10134336D01*
X-34760357Y-10134336D01*
X-34760618Y-10133795D01*
X-34760919Y-10133371D01*
X-34765384Y-10128906D01*
X-34765705Y-10128572D01*
X-34770004Y-10123939D01*
X-34771493Y-10122797D01*
X-34892463Y-10001826D01*
X-34893390Y-10000790D01*
X-34895612Y-9998003D01*
X-34900336Y-9994782D01*
X-34900713Y-9994514D01*
X-34905796Y-9990763D01*
X-34906258Y-9990530D01*
X-34912297Y-9988667D01*
X-34912737Y-9988523D01*
X-34918697Y-9986437D01*
X-34919209Y-9986350D01*
X-34919810Y-9986350D01*
X-34925526Y-9986350D01*
X-34925990Y-9986341D01*
X-34932303Y-9986105D01*
X-34934164Y-9986350D01*
X-34951079Y-9986350D01*
X-34957783Y-9984382D01*
X-34962358Y-9979101D01*
X-34963353Y-9972185D01*
X-34960974Y-9966477D01*
X-34958032Y-9962582D01*
X-34948942Y-9944325D01*
X-34943360Y-9924708D01*
X-34941479Y-9904400D01*
X-34943360Y-9884092D01*
X-34948942Y-9864475D01*
X-34958032Y-9846218D01*
X-34970324Y-9829942D01*
X-34985396Y-9816202D01*
X-35002736Y-9805465D01*
X-35021754Y-9798098D01*
X-35033243Y-9795950D01*
X-35041802Y-9794350D01*
X-35062198Y-9794350D01*
X-35075563Y-9796848D01*
X-35082246Y-9798098D01*
X-35101264Y-9805465D01*
X-35118604Y-9816202D01*
X-35133676Y-9829942D01*
X-35145968Y-9846218D01*
X-35152656Y-9859651D01*
X-35155058Y-9864475D01*
X-35157252Y-9872185D01*
X-35160640Y-9884092D01*
X-35160788Y-9885692D01*
X-35162522Y-9904400D01*
X-35160640Y-9924708D01*
X-35155058Y-9944325D01*
X-35152982Y-9948495D01*
X-35145968Y-9962582D01*
X-35143026Y-9966477D01*
X-35140557Y-9973014D01*
X-35142013Y-9979847D01*
X-35146933Y-9984808D01*
X-35152921Y-9986350D01*
X-35486053Y-9986350D01*
X-35492757Y-9984382D01*
X-35494821Y-9982719D01*
X-35526911Y-9950628D01*
X-35530260Y-9944496D01*
X-35530070Y-9938467D01*
X-35526610Y-9926309D01*
X-35524729Y-9906000D01*
X-35526610Y-9885692D01*
X-35532192Y-9866075D01*
X-35541282Y-9847818D01*
X-35553574Y-9831542D01*
X-35568646Y-9817802D01*
X-35585986Y-9807065D01*
X-35594079Y-9803930D01*
X-35599619Y-9799673D01*
X-35601978Y-9793096D01*
X-35600407Y-9786288D01*
X-35595404Y-9781410D01*
X-35592808Y-9780390D01*
X-35588901Y-9779343D01*
X-35567492Y-9769360D01*
X-35559113Y-9763493D01*
X-35621997Y-9700609D01*
X-35621019Y-9700468D01*
X-35607940Y-9694495D01*
X-35597074Y-9685080D01*
X-35589301Y-9672984D01*
X-35586942Y-9664952D01*
X-35523757Y-9728137D01*
X-35523757Y-9728137D01*
X-35517890Y-9719758D01*
X-35507907Y-9698349D01*
X-35501793Y-9675532D01*
X-35499734Y-9652000D01*
X-35499874Y-9650400D01*
X-35162522Y-9650400D01*
X-35160640Y-9670708D01*
X-35155058Y-9690325D01*
X-35152982Y-9694495D01*
X-35145968Y-9708582D01*
X-35145967Y-9708582D01*
X-35145967Y-9708582D01*
X-35133676Y-9724858D01*
X-35118604Y-9738598D01*
X-35101264Y-9749335D01*
X-35082246Y-9756702D01*
X-35062198Y-9760450D01*
X-35062197Y-9760450D01*
X-35041803Y-9760450D01*
X-35041802Y-9760450D01*
X-35021754Y-9756702D01*
X-35002736Y-9749335D01*
X-35002736Y-9749335D01*
X-34985396Y-9738598D01*
X-34970324Y-9724858D01*
X-34958032Y-9708582D01*
X-34948942Y-9690325D01*
X-34943360Y-9670708D01*
X-34941549Y-9651157D01*
X-34941479Y-9650400D01*
X-34941959Y-9645210D01*
X-34943360Y-9630092D01*
X-34948942Y-9610475D01*
X-34958032Y-9592218D01*
X-34970324Y-9575942D01*
X-34985396Y-9562202D01*
X-35002736Y-9551465D01*
X-35021754Y-9544098D01*
X-35031778Y-9542224D01*
X-35041802Y-9540350D01*
X-35062198Y-9540350D01*
X-35074185Y-9542591D01*
X-35082246Y-9544098D01*
X-35101264Y-9551465D01*
X-35118604Y-9562202D01*
X-35133676Y-9575942D01*
X-35145968Y-9592218D01*
X-35153445Y-9607235D01*
X-35155058Y-9610475D01*
X-35156455Y-9615382D01*
X-35160640Y-9630092D01*
X-35160752Y-9631302D01*
X-35162522Y-9650400D01*
X-35499874Y-9650400D01*
X-35501793Y-9628468D01*
X-35507907Y-9605651D01*
X-35517890Y-9584242D01*
X-35523757Y-9575863D01*
X-35523757Y-9575863D01*
X-35586942Y-9639048D01*
X-35589301Y-9631016D01*
X-35597074Y-9618920D01*
X-35607940Y-9609505D01*
X-35621019Y-9603532D01*
X-35621997Y-9603391D01*
X-35559113Y-9540507D01*
X-35559113Y-9540507D01*
X-35567492Y-9534640D01*
X-35588901Y-9524657D01*
X-35611718Y-9518543D01*
X-35635250Y-9516484D01*
X-35658782Y-9518543D01*
X-35681599Y-9524657D01*
X-35703008Y-9534640D01*
X-35711387Y-9540507D01*
X-35711387Y-9540507D01*
X-35648503Y-9603391D01*
X-35649482Y-9603532D01*
X-35662560Y-9609505D01*
X-35673426Y-9618920D01*
X-35681199Y-9631016D01*
X-35683558Y-9639048D01*
X-35746743Y-9575863D01*
X-35746743Y-9575863D01*
X-35752610Y-9584242D01*
X-35755668Y-9590800D01*
X-35760285Y-9596044D01*
X-35767005Y-9597959D01*
X-35773693Y-9595938D01*
X-35778226Y-9590621D01*
X-35779235Y-9586885D01*
X-35779841Y-9581252D01*
X-35784870Y-9567767D01*
X-35793495Y-9556245D01*
X-35805017Y-9547620D01*
X-35818502Y-9542591D01*
X-35824133Y-9541985D01*
X-35824134Y-9541985D01*
X-35824463Y-9541950D01*
X-35824795Y-9541950D01*
X-35824795Y-9541950D01*
X-35953706Y-9541950D01*
X-35953708Y-9541950D01*
X-35954037Y-9541950D01*
X-35954365Y-9541985D01*
X-35954366Y-9541985D01*
X-35959998Y-9542591D01*
X-35964038Y-9544098D01*
X-35973483Y-9547620D01*
X-35985005Y-9556245D01*
X-35993630Y-9567767D01*
X-35998659Y-9581252D01*
X-35999300Y-9587213D01*
X-35999300Y-9716787D01*
X-35998659Y-9722748D01*
X-35993630Y-9736233D01*
X-35985005Y-9747755D01*
X-35973483Y-9756380D01*
X-35959998Y-9761409D01*
X-35954365Y-9762015D01*
X-35947910Y-9764689D01*
X-35943925Y-9770428D01*
X-35943675Y-9777410D01*
X-35947241Y-9783419D01*
X-35950450Y-9785582D01*
X-35957008Y-9788640D01*
X-35965387Y-9794507D01*
X-35965387Y-9794507D01*
X-35902503Y-9857391D01*
X-35903482Y-9857532D01*
X-35916560Y-9863505D01*
X-35927426Y-9872920D01*
X-35935199Y-9885016D01*
X-35937558Y-9893048D01*
X-36000743Y-9829863D01*
X-36000743Y-9829863D01*
X-36006610Y-9838242D01*
X-36016593Y-9859651D01*
X-36022707Y-9882468D01*
X-36024766Y-9906000D01*
X-36022707Y-9929532D01*
X-36016593Y-9952349D01*
X-36006610Y-9973758D01*
X-36000743Y-9982137D01*
X-35937558Y-9918952D01*
X-35935199Y-9926984D01*
X-35927426Y-9939080D01*
X-35916560Y-9948495D01*
X-35903482Y-9954468D01*
X-35902503Y-9954609D01*
X-35965387Y-10017493D01*
X-35957008Y-10023360D01*
X-35935599Y-10033343D01*
X-35931692Y-10034390D01*
X-35925726Y-10038027D01*
X-35922673Y-10044311D01*
X-35923502Y-10051249D01*
X-35927950Y-10056637D01*
X-35930421Y-10057930D01*
X-35936588Y-10060319D01*
X-35938514Y-10061065D01*
X-35955854Y-10071802D01*
X-35970926Y-10085542D01*
X-35983218Y-10101818D01*
X-35989109Y-10113651D01*
X-35992308Y-10120075D01*
X-35994726Y-10128571D01*
X-35997890Y-10139692D01*
X-35997890Y-10139692D01*
X-35999772Y-10160000D01*
X-35997890Y-10180308D01*
X-35992308Y-10199925D01*
X-35991932Y-10200681D01*
X-35983218Y-10218182D01*
X-35983217Y-10218182D01*
X-35983217Y-10218182D01*
X-35972135Y-10232858D01*
X-35970926Y-10234458D01*
X-35965876Y-10239062D01*
X-35955854Y-10248198D01*
X-35938514Y-10258935D01*
X-35930421Y-10262070D01*
X-35924881Y-10266327D01*
X-35922522Y-10272903D01*
X-35924093Y-10279712D01*
X-35929096Y-10284590D01*
X-35931691Y-10285610D01*
X-35935599Y-10286657D01*
X-35957008Y-10296640D01*
X-35965387Y-10302507D01*
X-35965387Y-10302507D01*
X-35902503Y-10365391D01*
X-35903482Y-10365532D01*
X-35916560Y-10371505D01*
X-35927426Y-10380920D01*
X-35935199Y-10393016D01*
X-35937558Y-10401047D01*
X-36000743Y-10337863D01*
X-36000743Y-10337863D01*
X-36006610Y-10346242D01*
X-36016593Y-10367651D01*
X-36022707Y-10390468D01*
X-36024766Y-10414000D01*
X-36258290Y-10414000D01*
X-36273318Y-10398971D01*
X-36276667Y-10392839D01*
X-36276950Y-10390203D01*
X-36276950Y-10163226D01*
X-36276872Y-10161838D01*
X-36276473Y-10158296D01*
X-36277536Y-10152678D01*
X-36277613Y-10152222D01*
X-36278555Y-10145976D01*
X-36278717Y-10145484D01*
X-36281670Y-10139897D01*
X-36281877Y-10139485D01*
X-36284358Y-10134336D01*
X-36284357Y-10134336D01*
X-36284618Y-10133795D01*
X-36284919Y-10133371D01*
X-36289384Y-10128906D01*
X-36289705Y-10128572D01*
X-36294004Y-10123939D01*
X-36295493Y-10122797D01*
X-36766290Y-9652000D01*
X-36554558Y-9652000D01*
X-36552530Y-9672593D01*
X-36546523Y-9692395D01*
X-36536769Y-9710645D01*
X-36523641Y-9726641D01*
X-36507645Y-9739769D01*
X-36489395Y-9749523D01*
X-36469593Y-9755530D01*
X-36449000Y-9757558D01*
X-36428407Y-9755530D01*
X-36408605Y-9749523D01*
X-36390355Y-9739769D01*
X-36379100Y-9730532D01*
X-36374359Y-9726641D01*
X-36366000Y-9716456D01*
X-36361232Y-9710645D01*
X-36355792Y-9700468D01*
X-36351477Y-9692396D01*
X-36350993Y-9690802D01*
X-36345470Y-9672593D01*
X-36345470Y-9672593D01*
X-36343442Y-9652000D01*
X-36345470Y-9631407D01*
X-36351477Y-9611604D01*
X-36361231Y-9593355D01*
X-36374359Y-9577359D01*
X-36390355Y-9564231D01*
X-36408604Y-9554477D01*
X-36428407Y-9548470D01*
X-36449000Y-9546442D01*
X-36469593Y-9548470D01*
X-36479467Y-9551465D01*
X-36489395Y-9554477D01*
X-36507645Y-9564232D01*
X-36512428Y-9568157D01*
X-36523641Y-9577359D01*
X-36527212Y-9581710D01*
X-36536769Y-9593355D01*
X-36546523Y-9611605D01*
X-36552530Y-9631407D01*
X-36554558Y-9652000D01*
X-36766290Y-9652000D01*
X-37021890Y-9396400D01*
X-35162522Y-9396400D01*
X-35160640Y-9416708D01*
X-35155058Y-9436325D01*
X-35151081Y-9444313D01*
X-35145968Y-9454582D01*
X-35145967Y-9454582D01*
X-35145967Y-9454582D01*
X-35133676Y-9470858D01*
X-35118604Y-9484598D01*
X-35101264Y-9495335D01*
X-35082246Y-9502702D01*
X-35062198Y-9506450D01*
X-35062197Y-9506450D01*
X-35041803Y-9506450D01*
X-35041802Y-9506450D01*
X-35021754Y-9502702D01*
X-35002736Y-9495335D01*
X-35002736Y-9495335D01*
X-34985396Y-9484598D01*
X-34970324Y-9470858D01*
X-34958032Y-9454582D01*
X-34948942Y-9436325D01*
X-34943360Y-9416708D01*
X-34941479Y-9396400D01*
X-34943360Y-9376092D01*
X-34948942Y-9356475D01*
X-34958032Y-9338218D01*
X-34970324Y-9321942D01*
X-34985396Y-9308202D01*
X-35002736Y-9297465D01*
X-35021754Y-9290098D01*
X-35031778Y-9288224D01*
X-35041802Y-9286350D01*
X-35062198Y-9286350D01*
X-35075563Y-9288848D01*
X-35082246Y-9290098D01*
X-35101264Y-9297465D01*
X-35118604Y-9308202D01*
X-35133676Y-9321942D01*
X-35145968Y-9338218D01*
X-35154385Y-9355123D01*
X-35155058Y-9356475D01*
X-35156443Y-9361343D01*
X-35160576Y-9375868D01*
X-35160640Y-9376092D01*
X-35162522Y-9396400D01*
X-37021890Y-9396400D01*
X-37147290Y-9271000D01*
X-36554558Y-9271000D01*
X-36552530Y-9291593D01*
X-36546523Y-9311395D01*
X-36536769Y-9329645D01*
X-36523641Y-9345641D01*
X-36507645Y-9358769D01*
X-36489395Y-9368523D01*
X-36469593Y-9374530D01*
X-36449000Y-9376558D01*
X-36428407Y-9374530D01*
X-36408605Y-9368523D01*
X-36390355Y-9358769D01*
X-36382357Y-9352205D01*
X-36374359Y-9345641D01*
X-36365070Y-9334323D01*
X-36361232Y-9329645D01*
X-36355051Y-9318082D01*
X-36351477Y-9311396D01*
X-36350508Y-9308202D01*
X-36345470Y-9291593D01*
X-36345470Y-9291593D01*
X-36343442Y-9271000D01*
X-36345470Y-9250407D01*
X-36351477Y-9230604D01*
X-36361231Y-9212355D01*
X-36374359Y-9196359D01*
X-36390355Y-9183231D01*
X-36408604Y-9173477D01*
X-36428407Y-9167470D01*
X-36449000Y-9165442D01*
X-36449000Y-9165442D01*
X-36451250Y-9165663D01*
X-36469593Y-9167470D01*
X-36479494Y-9170473D01*
X-36489395Y-9173477D01*
X-36507645Y-9183232D01*
X-36513895Y-9188361D01*
X-36523641Y-9196359D01*
X-36530205Y-9204357D01*
X-36536769Y-9212355D01*
X-36546523Y-9230605D01*
X-36552530Y-9250407D01*
X-36554558Y-9271000D01*
X-37147290Y-9271000D01*
X-37176863Y-9241426D01*
X-37177790Y-9240390D01*
X-37180012Y-9237603D01*
X-37184736Y-9234382D01*
X-37185113Y-9234114D01*
X-37190196Y-9230363D01*
X-37190658Y-9230130D01*
X-37196697Y-9228267D01*
X-37197137Y-9228123D01*
X-37203097Y-9226037D01*
X-37203609Y-9225950D01*
X-37204210Y-9225950D01*
X-37209926Y-9225950D01*
X-37210390Y-9225941D01*
X-37216703Y-9225705D01*
X-37218564Y-9225950D01*
X-37362533Y-9225950D01*
X-37369237Y-9223982D01*
X-37373468Y-9219395D01*
X-37377231Y-9212355D01*
X-37390359Y-9196359D01*
X-37406355Y-9183231D01*
X-37424604Y-9173477D01*
X-37444407Y-9167470D01*
X-37465000Y-9165442D01*
X-37485593Y-9167470D01*
X-37495494Y-9170473D01*
X-37505395Y-9173477D01*
X-37523645Y-9183232D01*
X-37529895Y-9188361D01*
X-37539641Y-9196359D01*
X-37546205Y-9204357D01*
X-37552769Y-9212355D01*
X-37562523Y-9230605D01*
X-37568530Y-9250407D01*
X-37570558Y-9271000D01*
X-38223376Y-9271000D01*
X-38223009Y-9270313D01*
X-38204567Y-9239545D01*
X-38203891Y-9238533D01*
X-38182522Y-9209720D01*
X-38181750Y-9208779D01*
X-38174126Y-9200368D01*
X-38157659Y-9182200D01*
X-38156800Y-9181341D01*
X-38130221Y-9157250D01*
X-38129280Y-9156478D01*
X-38120878Y-9150247D01*
X-38100466Y-9135109D01*
X-38099455Y-9134433D01*
X-38078097Y-9121632D01*
X-38068687Y-9115991D01*
X-38067614Y-9115418D01*
X-38035184Y-9100080D01*
X-38034061Y-9099615D01*
X-38000286Y-9087529D01*
X-37999124Y-9087177D01*
X-37977323Y-9081716D01*
X-37964325Y-9078460D01*
X-37963132Y-9078223D01*
X-37927648Y-9072959D01*
X-37926437Y-9072840D01*
X-37890303Y-9071065D01*
X-37889695Y-9071050D01*
X-37885614Y-9071050D01*
X-30694386Y-9071050D01*
X-30690305Y-9071050D01*
X-30689697Y-9071065D01*
G37*
%TD.AperFunction*%
%TD*%
M02*
